<svg width="80" height="80" viewBox="0 0 80 80" fill="none" xmlns="http://www.w3.org/2000/svg">
<path d="M34.4 80C31 80 28.4167 78.9833 26.65 76.95C24.8833 74.9167 24 72.6 24 70C24 68.2667 24.3833 66.5833 25.15 64.95C25.9167 63.3167 27.1 61.9667 28.7 60.9C30.1667 59.9667 31.35 58.7667 32.25 57.3C33.15 55.8333 33.7667 54.2667 34.1 52.6L32.9 52C32.5 51.8 32.1333 51.5667 31.8 51.3L22.6 54.6C21.4667 55 20.3667 55.3333 19.3 55.6C18.2333 55.8667 17.1333 56 16 56C11.8 56 8.08333 54.1667 4.85 50.5C1.61667 46.8333 0 41.4667 0 34.4C0 31 1.01667 28.4167 3.05 26.65C5.08333 24.8833 7.36667 24 9.9 24C11.6333 24 13.3333 24.3833 15 25.15C16.6667 25.9167 18.0333 27.1 19.1 28.7C20.0333 30.1667 21.2333 31.35 22.7 32.25C24.1667 33.15 25.7333 33.7667 27.4 34.1L28 32.9C28.2 32.5 28.4333 32.1333 28.7 31.8L25.4 22.6C25 21.4667 24.6667 20.3667 24.4 19.3C24.1333 18.2333 24 17.1667 24 16.1C24 11.8333 25.8333 8.08333 29.5 4.85C33.1667 1.61667 38.5333 0 45.6 0C49 0 51.5833 1.01667 53.35 3.05C55.1167 5.08333 56 7.36667 56 9.9C56 11.6333 55.6167 13.3333 54.85 15C54.0833 16.6667 52.9 18.0333 51.3 19.1C49.8333 20.0333 48.65 21.2333 47.75 22.7C46.85 24.1667 46.2333 25.7333 45.9 27.4L47.1 28C47.5 28.2 47.8667 28.4333 48.2 28.7L57.4 25.3C58.5333 24.9 59.6167 24.5833 60.65 24.35C61.6833 24.1167 62.7667 24 63.9 24C69.3 24 73.3333 26.2333 76 30.7C78.6667 35.1667 80 40.1333 80 45.6C80 49 78.9333 51.5833 76.8 53.35C74.6667 55.1167 72.3 56 69.7 56C68.0333 56 66.4167 55.6167 64.85 54.85C63.2833 54.0833 61.9667 52.9 60.9 51.3C59.9667 49.8333 58.7667 48.65 57.3 47.75C55.8333 46.85 54.2667 46.2333 52.6 45.9L52 47.1C51.8 47.5 51.5667 47.8667 51.3 48.2L54.6 57.4C55 58.4667 55.3333 59.4833 55.6 60.45C55.8667 61.4167 56 62.4333 56 63.5C56.0667 67.8333 54.2667 71.6667 50.6 75C46.9333 78.3333 41.5333 80 34.4 80ZM40 46C41.6667 46 43.0833 45.4167 44.25 44.25C45.4167 43.0833 46 41.6667 46 40C46 38.3333 45.4167 36.9167 44.25 35.75C43.0833 34.5833 41.6667 34 40 34C38.3333 34 36.9167 34.5833 35.75 35.75C34.5833 36.9167 34 38.3333 34 40C34 41.6667 34.5833 43.0833 35.75 44.25C36.9167 45.4167 38.3333 46 40 46Z" fill="url(#paint0_radial_260_10473)"/>
<defs>
<radialGradient id="paint0_radial_260_10473" cx="0" cy="0" r="1" gradientUnits="userSpaceOnUse" gradientTransform="translate(40 40) rotate(90) scale(61.25)">
<stop offset="0.00520833" stop-color="#B8D3FF"/>
<stop offset="0.479167" stop-color="#82B1FF"/>
<stop offset="1" stop-color="#2962FF"/>
</radialGradient>
</defs>
</svg>
