<svg width="85" height="85" viewBox="0 0 85 85" fill="none" xmlns="http://www.w3.org/2000/svg">
<path fill-rule="evenodd" clip-rule="evenodd" d="M5.5 0.15686L0 5.65686L19.1282 24.7851C17.7416 24.2617 16.3322 24 14.9 24C12.3667 24 10.0833 24.8833 8.05 26.65C6.01667 28.4167 5 31 5 34.4C5 41.4667 6.61667 46.8333 9.85 50.5C13.0833 54.1667 16.8 56 21 56C22.1333 56 23.2333 55.8667 24.3 55.6C25.3667 55.3333 26.4667 55 27.6 54.6L36.8 51.3C37.1333 51.5667 37.5 51.8 37.9 52L39.1 52.6C38.7667 54.2667 38.15 55.8333 37.25 57.3C36.35 58.7667 35.1667 59.9667 33.7 60.9C32.1 61.9667 30.9167 63.3167 30.15 64.95C29.3833 66.5833 29 68.2667 29 70C29 72.6 29.8833 74.9167 31.65 76.95C33.4167 78.9833 36 80 39.4 80C46.5333 80 51.9333 78.3333 55.6 75C58.4243 72.4324 60.1412 69.5682 60.7504 66.4073L78.4889 84.1457L83.9889 78.6457L5.5 0.15686ZM72.4084 55.7516C73.1615 55.9172 73.9253 56 74.7 56C77.3 56 79.6667 55.1167 81.8 53.35C83.9333 51.5833 85 49 85 45.6C85 40.1333 83.6667 35.1667 81 30.7C78.3333 26.2333 74.3 24 68.9 24C67.7667 24 66.6833 24.1167 65.65 24.35C64.6167 24.5833 63.5333 24.9 62.4 25.3L53.2 28.7C52.8667 28.4333 52.5 28.2 52.1 28L50.9 27.4C51.2333 25.7333 51.85 24.1667 52.75 22.7C53.65 21.2333 54.8333 20.0333 56.3 19.1C57.9 18.0333 59.0833 16.6667 59.85 15C60.6167 13.3333 61 11.6333 61 9.9C61 7.36667 60.1167 5.08333 58.35 3.05C56.5833 1.01667 54 0 50.6 0C43.5333 0 38.1667 1.61667 34.5 4.85C31.8265 7.20754 30.1277 9.83977 29.4035 12.7467L72.4084 55.7516Z" fill="url(#paint0_radial_260_10477)"/>
<defs>
<radialGradient id="paint0_radial_260_10477" cx="0" cy="0" r="1" gradientUnits="userSpaceOnUse" gradientTransform="translate(42.5 42.0729) rotate(90) scale(64.4241 65.0781)">
<stop offset="0.00520833" stop-color="#B8D3FF"/>
<stop offset="0.479167" stop-color="#82B1FF"/>
<stop offset="1" stop-color="#2962FF"/>
</radialGradient>
</defs>
</svg>
