<svg width="48" height="48" viewBox="0 0 48 48" fill="none" xmlns="http://www.w3.org/2000/svg">
<path d="M1.048 41.82C2.348 44.66 4.524 46.526 7.516 47.424C8.356 47.678 9.228 47.798 10.102 47.88C11.212 47.986 12.322 48 13.436 48H35.496C36.546 48 37.592 47.932 38.636 47.8C40.282 47.588 41.83 47.1 43.228 46.18C44.908 45.074 46.172 43.606 46.988 41.764C47.36 40.924 47.574 40.024 47.728 39.116C47.954 37.766 48.004 36.4 48.002 35.036C47.998 27.436 48.002 19.844 47.996 12.248H47.99C47.99 10.772 47.86 9.308 47.51 7.868C46.876 5.248 45.386 3.248 43.15 1.782C42 1.032 40.74 0.568 39.394 0.326C38.36 0.14 37.318 0.056 36.266 0.026C36.186 0.02 36.1 0.006 36.018 0H11.972C11.668 0.02 11.366 0.034 11.062 0.052C9.568 0.138 8.082 0.298 6.676 0.854C4.004 1.914 2.076 3.758 0.946 6.414C0.562 7.31 0.362 8.264 0.22 9.23C0.108 10.014 0.044 10.8 0.02 11.59C0.02 11.654 0.006 11.714 0 11.776V36.224C0.02 36.504 0.034 36.79 0.054 37.072C0.154 38.704 0.362 40.322 1.048 41.82ZM11.858 32.746C12.572 32.446 13.318 32.282 14.074 32.126C14.648 32.006 15.224 31.894 15.794 31.772C16.56 31.606 16.96 31.126 16.994 30.344V30.044C16.994 24.124 16.994 18.2 16.998 12.278C16.998 12.032 17.024 11.778 17.082 11.538C17.222 10.968 17.628 10.642 18.174 10.502C18.684 10.37 19.204 10.278 19.722 10.172C21.188 9.872 22.654 9.58 24.122 9.284L28.662 8.364C30.002 8.096 31.342 7.824 32.682 7.558C33.122 7.472 33.568 7.382 34.01 7.346C34.63 7.296 35.056 7.686 35.118 8.31C35.134 8.456 35.142 8.606 35.142 8.756C35.146 12.576 35.146 16.4 35.142 20.22L35.144 20.226V31.652C35.144 32.486 35.028 33.306 34.656 34.064C34.076 35.244 33.136 35.988 31.88 36.344C31.18 36.544 30.468 36.658 29.74 36.69C27.84 36.78 26.194 35.49 25.854 33.618C25.57 32.072 26.308 30.37 27.93 29.574C28.576 29.254 29.27 29.074 29.966 28.926C30.722 28.762 31.482 28.62 32.234 28.446C32.782 28.32 33.148 27.986 33.254 27.414C33.282 27.288 33.294 27.154 33.294 27.028C33.294 23.398 33.294 19.768 33.29 16.142C33.29 16.018 33.27 15.892 33.238 15.772C33.158 15.472 32.938 15.286 32.63 15.304C32.31 15.324 31.994 15.374 31.68 15.436C30.16 15.736 28.64 16.042 27.12 16.348L19.72 17.844C19.688 17.85 19.656 17.864 19.624 17.87C19.07 18.024 18.87 18.276 18.844 18.85C18.84 18.934 18.844 19.022 18.844 19.11C18.84 24.314 18.844 29.518 18.838 34.722C18.838 35.562 18.744 36.394 18.408 37.176C17.852 38.456 16.868 39.256 15.54 39.642C14.84 39.842 14.12 39.962 13.39 39.986C11.47 40.058 9.88 38.786 9.55 36.898C9.27 35.272 10.01 33.526 11.858 32.746Z" fill="white"/>
</svg>
