<svg width="57" height="57" viewBox="0 0 57 57" fill="none" xmlns="http://www.w3.org/2000/svg">
<g filter="url(#filter0_d_38_3783)">
<path fill-rule="evenodd" clip-rule="evenodd" d="M9.125 9.125H24.125V24.125H9.125V9.125ZM7.125 7.125H9.125H24.125H26.125V9.125V24.125V26.125H24.125H9.125H7.125V24.125V9.125V7.125ZM9.125 32.875H24.125V47.875H9.125V32.875ZM7.125 30.875H9.125H24.125H26.125V32.875V47.875V49.875H24.125H9.125H7.125V47.875V32.875V30.875ZM47.875 9.125H32.875V24.125H47.875V9.125ZM32.875 7.125H30.875V9.125V24.125V26.125H32.875H47.875H49.875V24.125V9.125V7.125H47.875H32.875ZM32.875 32.875H47.875V47.875H32.875V32.875ZM30.875 30.875H32.875H47.875H49.875V32.875V47.875V49.875H47.875H32.875H30.875V47.875V32.875V30.875Z" fill="#C1D8FF"/>
</g>
<defs>
<filter id="filter0_d_38_3783" x="5.125" y="6.125" width="48.75" height="48.75" filterUnits="userSpaceOnUse" color-interpolation-filters="sRGB">
<feFlood flood-opacity="0" result="BackgroundImageFix"/>
<feColorMatrix in="SourceAlpha" type="matrix" values="0 0 0 0 0 0 0 0 0 0 0 0 0 0 0 0 0 0 127 0" result="hardAlpha"/>
<feOffset dx="1" dy="2"/>
<feGaussianBlur stdDeviation="1.5"/>
<feComposite in2="hardAlpha" operator="out"/>
<feColorMatrix type="matrix" values="0 0 0 0 0 0 0 0 0 0 0 0 0 0 0 0 0 0 0.7 0"/>
<feBlend mode="normal" in2="BackgroundImageFix" result="effect1_dropShadow_38_3783"/>
<feBlend mode="normal" in="SourceGraphic" in2="effect1_dropShadow_38_3783" result="shape"/>
</filter>
</defs>
</svg>
