<svg width="160" height="72" viewBox="0 0 160 72" fill="none" xmlns="http://www.w3.org/2000/svg">
<g filter="url(#filter0_d_106_7229)">
<path fill-rule="evenodd" clip-rule="evenodd" d="M46 12H114V50H93.0109C92.6298 48.4324 91.8264 46.9602 90.6299 45.7638L88.7844 43.9182C86.6539 41.7877 86.1257 38.5329 87.4731 35.838L89.0499 32.6845C89.6747 31.4348 90 30.0568 90 28.6596V26.5481H93L89.0001 20.5481L85 26.5481H88V28.6596C88 29.7463 87.747 30.8181 87.261 31.79L85.6843 34.9436C83.9518 38.4084 84.6309 42.5932 87.3702 45.3324L89.2157 47.178C90.025 47.9872 90.603 48.9586 90.9349 50H83.0109C82.6298 48.4324 81.8264 46.9602 80.6299 45.7638L78.7844 43.9182C76.6539 41.7877 76.1257 38.5329 77.4731 35.838L79.0499 32.6845C79.6747 31.4348 80 30.0568 80 28.6596V26.5481H83L79.0001 20.5481L75 26.5481H78V28.6596C78 29.7463 77.747 30.8181 77.261 31.79L75.6843 34.9436C73.9518 38.4084 74.6309 42.5932 77.3702 45.3324L79.2157 47.178C80.025 47.9872 80.603 48.9586 80.9349 50H73.0109C72.6298 48.4324 71.8264 46.9602 70.6299 45.7638L68.7844 43.9182C66.6539 41.7877 66.1257 38.5329 67.4731 35.838L69.0499 32.6845C69.6747 31.4348 70 30.0568 70 28.6596V26.5481H73L69.0001 20.5481L65 26.5481H68V28.6596C68 29.7463 67.747 30.8181 67.261 31.79L65.6843 34.9436C63.9518 38.4084 64.6309 42.5932 67.3702 45.3324L69.2157 47.178C70.025 47.9872 70.603 48.9586 70.9349 50H46V12ZM71.265 52H46C44.8954 52 44 51.1046 44 50V12C44 10.8954 44.8954 10 46 10H114C115.105 10 116 10.8954 116 12V50C116 51.1046 115.105 52 114 52H93.2653C93.2857 53.4089 92.9756 54.833 92.3158 56.1526L90.7391 59.3061C90.2531 60.2781 90 61.3499 90 62.4366V62.5481H88V62.4366C88 61.0394 88.3254 59.6614 88.9502 58.4117L90.527 55.2582C91.0446 54.2229 91.2854 53.105 91.265 52H83.2653C83.2857 53.4089 82.9756 54.833 82.3158 56.1526L80.7391 59.3061C80.2531 60.2781 80.0001 61.3499 80.0001 62.4366V62.5481H78.0001V62.4366C78.0001 61.0394 78.3254 59.6614 78.9502 58.4117L80.527 55.2582C81.0446 54.2229 81.2854 53.105 81.265 52H73.2653C73.2857 53.4089 72.9756 54.833 72.3158 56.1526L70.7391 59.3061C70.2531 60.2781 70 61.3499 70 62.4366V62.5481H68V62.4366C68 61.0394 68.3254 59.6614 68.9502 58.4117L70.527 55.2582C71.0446 54.2229 71.2854 53.105 71.265 52Z" fill="#C1D8FF"/>
</g>
<defs>
<filter id="filter0_d_106_7229" x="42" y="9" width="80" height="60.5481" filterUnits="userSpaceOnUse" color-interpolation-filters="sRGB">
<feFlood flood-opacity="0" result="BackgroundImageFix"/>
<feColorMatrix in="SourceAlpha" type="matrix" values="0 0 0 0 0 0 0 0 0 0 0 0 0 0 0 0 0 0 127 0" result="hardAlpha"/>
<feOffset dx="2" dy="3"/>
<feGaussianBlur stdDeviation="2"/>
<feComposite in2="hardAlpha" operator="out"/>
<feColorMatrix type="matrix" values="0 0 0 0 0 0 0 0 0 0 0 0 0 0 0 0 0 0 0.7 0"/>
<feBlend mode="normal" in2="BackgroundImageFix" result="effect1_dropShadow_106_7229"/>
<feBlend mode="normal" in="SourceGraphic" in2="effect1_dropShadow_106_7229" result="shape"/>
</filter>
</defs>
</svg>
