<svg width="160" height="72" viewBox="0 0 160 72" fill="none" xmlns="http://www.w3.org/2000/svg">
<g filter="url(#filter0_d_106_7241)">
<path fill-rule="evenodd" clip-rule="evenodd" d="M44 12C44 10.8954 44.8954 10 46 10H114C115.105 10 116 10.8954 116 12V50C116 51.1046 115.105 52 114 52H93.2654C93.2322 49.7098 92.326 47.4597 90.63 45.7638L88.7845 43.9182C86.654 41.7877 86.1258 38.5329 87.4732 35.838L89.05 32.6845C89.6748 31.4348 90.0002 30.0568 90.0002 28.6596V26.5481H93.0002L89.0002 20.5481L85.0002 26.5481H88.0002V28.6596C88.0002 29.7463 87.7471 30.8181 87.2611 31.79L85.6844 34.9436C83.9519 38.4084 84.631 42.5932 87.3703 45.3324L89.2158 47.178C90.5279 48.49 91.2322 50.2285 91.2651 52H93.2652C93.2856 53.4089 92.9756 54.833 92.3158 56.1526L90.739 59.3061C90.253 60.2781 90 61.3499 90 62.4366V62.5481H88V62.4366C88 61.0394 88.3253 59.6614 88.9501 58.4117L90.5269 55.2582C91.0445 54.2229 91.2854 53.105 91.2649 52H83.2654C83.2322 49.7098 82.326 47.4597 80.63 45.7638L78.7845 43.9182C76.654 41.7877 76.1258 38.5329 77.4732 35.838L79.05 32.6845C79.6748 31.4348 80.0002 30.0568 80.0002 28.6596V26.5481H83.0002L79.0002 20.5481L75.0002 26.5481H78.0002V28.6596C78.0002 29.7463 77.7471 30.8181 77.2611 31.79L75.6844 34.9436C73.9519 38.4084 74.631 42.5932 77.3703 45.3324L79.2158 47.178C80.5279 48.49 81.2322 50.2285 81.2651 52H83.2652C83.2856 53.4089 82.9756 54.833 82.3158 56.1526L80.739 59.3061C80.253 60.2781 80 61.3499 80 62.4366V62.5481H78V62.4366C78 61.0394 78.3253 59.6614 78.9502 58.4117L80.5269 55.2582C81.0445 54.2229 81.2854 53.105 81.2649 52H73.2654C73.2322 49.7098 72.326 47.4597 70.63 45.7638L68.7845 43.9182C66.654 41.7877 66.1258 38.5329 67.4732 35.838L69.05 32.6845C69.6748 31.4348 70.0002 30.0568 70.0002 28.6596V26.5481H73.0002L69.0002 20.5481L65.0002 26.5481H68.0002V28.6596C68.0002 29.7463 67.7471 30.8181 67.2611 31.79L65.6844 34.9436C63.9519 38.4084 64.631 42.5932 67.3703 45.3324L69.2158 47.178C70.5279 48.49 71.2322 50.2285 71.2651 52H73.2652C73.2856 53.4089 72.9756 54.833 72.3158 56.1526L70.739 59.3061C70.253 60.2781 70 61.3499 70 62.4366V62.5481H68V62.4366C68 61.0394 68.3253 59.6614 68.9502 58.4117L70.5269 55.2582C71.0445 54.2229 71.2854 53.105 71.2649 52H46C44.8954 52 44 51.1046 44 50V12Z" fill="white"/>
</g>
<defs>
<filter id="filter0_d_106_7241" x="42" y="9" width="80" height="60.5481" filterUnits="userSpaceOnUse" color-interpolation-filters="sRGB">
<feFlood flood-opacity="0" result="BackgroundImageFix"/>
<feColorMatrix in="SourceAlpha" type="matrix" values="0 0 0 0 0 0 0 0 0 0 0 0 0 0 0 0 0 0 127 0" result="hardAlpha"/>
<feOffset dx="2" dy="3"/>
<feGaussianBlur stdDeviation="2"/>
<feComposite in2="hardAlpha" operator="out"/>
<feColorMatrix type="matrix" values="0 0 0 0 0 0 0 0 0 0 0 0 0 0 0 0 0 0 0.7 0"/>
<feBlend mode="normal" in2="BackgroundImageFix" result="effect1_dropShadow_106_7241"/>
<feBlend mode="normal" in="SourceGraphic" in2="effect1_dropShadow_106_7241" result="shape"/>
</filter>
</defs>
</svg>
