<svg width="192" height="453" viewBox="0 0 192 453" fill="none" xmlns="http://www.w3.org/2000/svg">
<path d="M13.5 235.5V216C11 217.5 11 219 11 221.5V230C11 233.2 12.6667 235 13.5 235.5Z" fill="#2962FF"/>
<path d="M13.5 314.5V295C11 296.5 11 298 11 300.5V309C11 312.2 12.6667 314 13.5 314.5Z" fill="#2962FF"/>
<path d="M96 448L96 8L76 8C72.8 8 69.3333 9.33333 68 10C54 13 33 23.5 29 27.5C25 31.5 23 36 22 41.5C21 47 12.5 65 12.5 72.5C12.5 78.5 13.1667 97 13.5001 105.5L13.5001 312C13.1667 322.667 12.7001 348 13.5001 364C14.5001 384 21.5 418.5 24 427C26.5 435.5 34.5 440 48.5 443C59.7 445.4 84.8333 447.333 96 448Z" fill="#2962FF"/>
<path d="M13.5001 364C14.5001 384 21.5 418.5 24 427C26.2837 434.764 33.1566 439.191 45 442.186C43.6667 439.291 40.8 432.2 40 427C39 420.5 36.5 387.5 37 380.5C37.5 373.5 49.5 326 50.5 312C51.5 298 51.5 236 45.5 210C39.5 184 35 164 29 136.5C23 109 25.5 89.5 29 78.5C32.5 67.5 33.5 38 26.4324 30.5C24.0903 33.7374 22.7579 37.3315 22 41.5C21 47 12.5 65 12.5 72.5C12.5 78.5 13.1667 97 13.5001 105.5L13.5001 208.75L13.5001 312C13.1667 322.667 12.7001 348 13.5001 364Z" fill="#2962FF"/>
<path d="M13.5001 364C14.5001 384 21.5 418.5 24 427C26.2837 434.764 33.1566 439.191 45 442.186C43.6667 439.291 40.8 432.2 40 427C39 420.5 36.5 387.5 37 380.5C37.5 373.5 49.5 326 50.5 312C51.5 298 51.5 236 45.5 210C39.5 184 35 164 29 136.5C23 109 25.5 89.5 29 78.5C32.5 67.5 33.5 38 26.4324 30.5C24.0903 33.7374 22.7579 37.3315 22 41.5C21 47 12.5 65 12.5 72.5C12.5 78.5 13.1667 97 13.5001 105.5L13.5001 208.75L13.5001 312C13.1667 322.667 12.7001 348 13.5001 364Z" fill="#1A237E" fill-opacity="0.4"/>
<path d="M13.5 140C15.5 139.5 19.8999 139.7 21.4999 144.5C23.4999 150.5 38.9999 198.5 39.9999 226C40.9999 253.5 40.4999 296 38.9999 305C37.4999 314 32.4999 343.5 24.4999 338C18.9622 334.193 15.1002 330.518 13.5 329" stroke="#1A237E"/>
<path d="M22.4998 240.64L21.5297 146.191C23.0792 150.954 26.9086 163.097 30.6414 177.314C34.8908 193.5 39.0025 212.328 39.5003 226.018C39.9999 239.758 40.1249 257.25 39.9375 272.431C39.7498 287.633 39.249 300.464 38.5068 304.918C37.7561 309.422 36.1359 319.014 33.7102 326.789C32.4939 330.687 31.0926 334.068 29.5312 336.128C28.7505 337.157 27.9691 337.803 27.2021 338.055C26.5252 338.278 25.7998 338.214 24.993 337.724L22.5 240.648L22.4998 240.64Z" fill="#212121" stroke="black"/>
<path d="M21.5 144.5C21.355 144.065 21.1871 143.668 21 143.306L22 240.653L24.5 338C26.7688 339.56 28.7964 338.304 30.5713 335.5C31.5 320 27.5 190.5 25.876 158.5C23.7494 151.371 22.0722 146.217 21.5 144.5Z" fill="#424242"/>
<path d="M24.4744 337L22.0001 240.653L21.0586 149" stroke="black"/>
<path d="M45.5004 210C44.871 207.272 44.2581 204.611 43.6582 202C56.0004 193 83.7723 191.833 96.0004 192L96.0004 297L50.9587 297C51.2189 272.83 50.2008 230.368 45.5004 210Z" fill="black"/>
<path d="M52.8754 292L95.9999 292L95.9999 219C77.9999 219 57.5775 222.667 49.6162 224.5C52.3983 244.983 53.5684 277.022 52.8754 292Z" fill="#212121"/>
<path d="M40 226C39 198.5 23.5 150.5 21.5 144.5C21.355 144.065 21.1871 143.668 21 143.306L21.0431 147.5C25.0862 158 31.5 187.5 36 206C40.5 224.5 38 274 38 290.5C38 307 32 341.5 24.4486 336C24.4486 336 23.993 336.572 24 337C24.0071 337.436 24.5 338 24.5 338C32.5 343.5 37.5 314 39 305C40.5 296 41 253.5 40 226Z" fill="black"/>
<path d="M37.0669 315.5C37.2082 314.822 37.3434 314.154 37.4725 313.5L23.832 312L23.8834 314L37.0669 315.5Z" fill="black"/>
<path d="M40.5199 257.5C40.5167 254.5 40.502 251.487 40.4752 248.5L22.2061 238L22.5617 253.5L40.5199 257.5Z" fill="black"/>
<path d="M40.5088 253.5L40.505 252.711L22.4062 246.724L22.4241 247.5C22.4241 247.5 40.5002 253.492 40.5088 253.5Z" fill="#343F45"/>
<path d="M28.2042 166.5C25.0347 155.325 22.2693 146.807 21.5002 144.5C21.1556 143.466 20.6812 142.646 20.1289 142L20.1289 161.24C20.7931 162.724 21.7405 164.08 23.0002 164.5C25.4002 165.3 27.4695 166.167 28.2042 166.5Z" fill="black"/>
<path d="M37.4297 377.5C39.0686 368.22 44.838 344.176 48.1605 327C56.8209 332.5 82.5001 333.5 96.0001 333.5L96.0001 393.5C84.0001 393.5 48.0001 389.5 37.4297 377.5Z" fill="black"/>
<path d="M49.5 333C62.3 336.2 85.6667 338.833 96 339L96 387C62.4 385.4 45.3333 377.333 41 373C42.2 368.6 47.3333 344 49.5 333Z" fill="#212121"/>
<path d="M43.6577 202C38.5393 179.721 34.3705 161.115 28.9999 136.5C28.7421 135.319 28.5001 134.152 28.2731 133C25.2481 119 57.4999 112.5 95.9999 112.5L95.9999 192C63.9999 192 47.7717 198.667 43.6577 202Z" fill="#212121"/>
<path d="M43.6577 202C38.5393 179.721 34.3705 161.115 28.9999 136.5C28.7421 135.319 28.5001 134.152 28.2731 133C25.2481 119 57.4999 112.5 95.9999 112.5L95.9999 120C65.4999 120 31.4999 126.5 31.9999 136.5C32.4999 146.5 41.7178 186 45.1088 201C44.52 201.356 44.0373 201.692 43.6577 202Z" fill="black"/>
<path d="M96 19V10C89.1667 10 74.8 10.2 72 11C69.2 11.8 66.1667 16 65 18C65.5 19 66.3989 19.3382 69 19.5C74.549 19.8452 84.117 19 86.5 19H96Z" fill="black"/>
<path d="M65 18C65.5259 19.0518 67.0198 19.2344 69 19.5C66.5 38.7049 57.6 85.8 42 119C48.8333 99.8333 63 52.8 65 18Z" fill="#2962FF"/>
<path d="M65 18C65.5259 19.0518 67.0198 19.2344 69 19.5C66.5 38.7049 57.6 85.8 42 119C48.8333 99.8333 63 52.8 65 18Z" fill="#1A237E" fill-opacity="0.4"/>
<path d="M69 19.5C69.6215 19.5387 70.2934 19.5624 71 19.574C67 50.5 52.5 101.5 42 119C57.6 85.8 66.5 38.7049 69 19.5Z" fill="#2962FF"/>
<path d="M69 19.5C69.6215 19.5387 70.2934 19.5624 71 19.574C67 50.5 52.5 101.5 42 119C57.6 85.8 66.5 38.7049 69 19.5Z" fill="#82B1FF" fill-opacity="0.4"/>
<rect x="66" y="17" width="30" height="1" fill="url(#paint0_linear_100_2119)"/>
<rect x="68" y="15" width="28" height="1" fill="url(#paint1_linear_100_2119)"/>
<rect x="70" y="13" width="26" height="1" fill="url(#paint2_linear_100_2119)"/>
<rect x="73" y="11" width="23" height="1" fill="url(#paint3_linear_100_2119)"/>
<path d="M96 440.5V437.5C69.2 436.3 52.1667 432.667 47 431L50 436C53.2935 436.988 57.4658 437.882 62 438.5C73.9866 440.135 88.5027 440.5 96 440.5Z" fill="#2962FF"/>
<path d="M96 440.5V437.5C69.2 436.3 52.1667 432.667 47 431L50 436C53.2935 436.988 57.4658 437.882 62 438.5C73.9866 440.135 88.5027 440.5 96 440.5Z" fill="#1A237E" fill-opacity="0.4"/>
<path d="M96 440.5V444.5C43.5 440.5 30.5 439 22.5 417.5C22.5 417.5 57.5 438 62 438.5C66.5 439 85.6667 440.5 96 440.5Z" fill="#1A237E"/>
<path d="M0 177C1.5 162.5 14.5 160 20 166V170.5C16.8 173.3 5.33333 176 0 177Z" fill="#2962FF"/>
<path d="M20 170.5C16.8 173.3 5.33333 176 0 177C0.0717956 176.306 0.169937 175.639 0.292341 175C1.02868 174.857 1.76583 174.702 2.5 174.538C9.97548 172.865 17.1422 170.214 20 169V170.5Z" fill="black"/>
<path opacity="0.1" d="M47 375.5C39.5 378 52 331.5 53 313.5C57.4999 259 51.5 227 50 217.5C48.5 208 43.9999 193.5 41.4999 181C38.9999 168.5 33.4999 141.5 35.9999 141.5C38.4999 141.5 44.4999 153.5 47 162C49.5 170.5 64.9999 220 64.9999 268.5C64.9999 317 54.5 373 47 375.5Z" fill="white"/>
<path d="M8.5 165C4.9 167.4 2.66667 171.667 2 173.5C7.2 167.1 15.1667 165.5 18.5 165.5C16.6667 164.333 12.1 162.6 8.5 165Z" fill="#2962FF"/>
<path d="M8.5 165C4.9 167.4 2.66667 171.667 2 173.5C7.2 167.1 15.1667 165.5 18.5 165.5C16.6667 164.333 12.1 162.6 8.5 165Z" fill="#82B1FF" fill-opacity="0.4"/>
<path d="M26.4324 30.5C27.9542 32.1148 29.1019 34.7496 29.9312 38M45 442.186C43.6667 439.291 40.8 432.2 40 427C39 420.5 36.5 387.5 37 380.5C37.5 373.5 49.5 326 50.5 312C51.5 298 51.5 236 45.5 210C39.5 184 35 164 29 136.5C23 109 25.5 89.5 29 78.5C31.7464 69.8684 32.9535 49.8458 29.9312 38M29.9312 38C28.4541 39.5 24 45.1 18 55.5" stroke="#1A237E"/>
<path d="M29.9313 38C29.102 34.7496 27.9543 32.1148 26.4325 30.5L27.5 29C29.0217 30.6148 30.1707 32.7496 31 36C34.0223 47.8458 33.2464 69.8684 30.5 78.5C27.3496 88.4013 25 105.5 28 128.5C24.0603 105.19 25.8497 88.4013 29.0001 78.5C31.7465 69.8684 32.9536 49.8458 29.9313 38Z" fill="#2962FF"/>
<path d="M29.9313 38C29.102 34.7496 27.9543 32.1148 26.4325 30.5L27.5 29C29.0217 30.6148 30.1707 32.7496 31 36C34.0223 47.8458 33.2464 69.8684 30.5 78.5C27.3496 88.4013 25 105.5 28 128.5C24.0603 105.19 25.8497 88.4013 29.0001 78.5C31.7465 69.8684 32.9536 49.8458 29.9313 38Z" fill="#82B1FF" fill-opacity="0.4"/>
<g filter="url(#filter0_d_100_2119)">
<path d="M32 418.5C35.6 425.3 53.3333 434.667 62 438.5C51.5 436 41.5 434 34.5 430C28.9 426.8 25.1667 421 24 418.5V402C25.1667 404.667 28.4 411.7 32 418.5Z" fill="#FF1744"/>
</g>
<path d="M27.5977 424C29.3755 426.159 31.7053 428.403 34.4999 430C31.9999 425 27.5977 418 27.5977 424Z" fill="#D50000"/>
<path d="M27.5977 424C29.3755 426.159 31.7053 428.403 34.4999 430C31.9999 425 27.5977 418 27.5977 424Z" fill="black" fill-opacity="0.2"/>
<path d="M32 418.5C35.6 425.3 53.3333 434.667 62 438.5C57.5101 437.431 53.1116 436.453 49 435.372C32.6 426.869 26.5 415.581 25.5 411L25.7364 421.5C24.937 420.308 24.3518 419.254 24 418.5V402C25.1667 404.667 28.4 411.7 32 418.5Z" fill="#D50000"/>
<path d="M32 418.5C35.6 425.3 53.3333 434.667 62 438.5C57.5101 437.431 53.1116 436.453 49 435.372C32.6 426.869 26.5 415.581 25.5 411L25.7364 421.5C24.937 420.308 24.3518 419.254 24 418.5V402C25.1667 404.667 28.4 411.7 32 418.5Z" fill="black" fill-opacity="0.2"/>
<g filter="url(#filter1_d_100_2119)">
<path d="M29.5002 31.5C22.5002 38 21.0002 51.5 22.5002 57.5C30.0001 37 47.5002 29 54.0002 26.5C59.2002 24.5 61.8336 17.6667 62.5002 14.5C53.8336 18 35.1002 26.3 29.5002 31.5Z" fill="#C1D8FF"/>
<path d="M53.8208 26.0333C47.4573 28.4808 30.5574 36.1866 22.6692 55.6704C22.289 52.7755 22.4358 48.8157 23.3015 44.7927C24.3531 39.9057 26.4458 35.0185 29.8404 31.8664C32.5773 29.325 38.592 25.9796 45.0699 22.8117C51.0903 19.8674 57.4456 17.1068 61.7828 15.3315C61.3717 16.8297 60.6301 18.805 59.5198 20.6831C58.1559 22.9904 56.2718 25.0906 53.8208 26.0333Z" stroke="#9E9E9E"/>
</g>
<path d="M26.3737 45.0138C26.2503 45.0046 26.1257 45 26 45C25.1348 45 24.321 45.2197 23.6112 45.6064C23.5 46 22.3832 51.7811 22.6492 53.7112C23.9686 49.8801 25.6819 46.3166 26.3737 45.0138Z" fill="#FFA726"/>
<g filter="url(#filter2_d_100_2119)">
<path d="M46 25C43.7909 25 42 26.7909 42 29C42 29.9459 42.3284 30.8152 42.8773 31.5L49.7092 27.5C49.1159 26.0341 47.6787 25 46 25Z" fill="#FAFAFA"/>
</g>
<path d="M49.7092 27.5C49.1159 26.0341 47.6787 25 46 25V29.6717L49.7092 27.5Z" fill="#757575"/>
<g filter="url(#filter3_d_100_2119)">
<path d="M58 19C55.7909 19 54 20.7909 54 23C54 24.0144 54.3776 24.9407 55 25.6458L60.2807 19.7135C59.6338 19.2637 58.8477 19 58 19Z" fill="#FAFAFA"/>
</g>
<path d="M60.2811 19.7135C59.6341 19.2637 58.848 19 58.0003 19C56.9859 19 56.0596 19.3776 55.3545 20L57.6407 22.6797L60.2811 19.7135Z" fill="#757575"/>
<g filter="url(#filter4_d_100_2119)">
<path d="M35 33C31.6863 33 29 35.6863 29 39C29 40.6703 29.6825 42.1811 30.7838 43.2689L34 38L39.3126 34.8285C38.2218 33.701 36.6927 33 35 33Z" fill="#FAFAFA"/>
</g>
<path d="M39.3126 34.8285C38.2218 33.701 36.6927 33 35 33C34.6593 33 34.3252 33.0284 34 33.083V38L39.3126 34.8285Z" fill="#757575"/>
<path d="M54.0284 27C59.2284 25 61.8333 17.6667 62.5 14.5C61.3309 14.9721 60.0287 15.8788 58.5284 16.6591C58.0284 20 56.0284 23.5 49.5284 26C32.8322 32.4216 27.0284 43 22 53C22.0067 54.9345 22.1922 56.6555 22.5283 58C30.0283 37.5 47.5284 29.5 54.0284 27Z" fill="#9E9E9E"/>
<path d="M178.5 235.5V216C181 217.5 181 219 181 221.5V230C181 233.2 179.333 235 178.5 235.5Z" fill="#2962FF"/>
<path d="M178.5 314.5V295C181 296.5 181 298 181 300.5V309C181 312.2 179.333 314 178.5 314.5Z" fill="#2962FF"/>
<path d="M96 448L96 8L116 8C119.2 8 122.667 9.33333 124 10C138 13 159 23.5 163 27.5C167 31.5 169 36 170 41.5C171 47 179.5 65 179.5 72.5C179.5 78.5 178.833 97 178.5 105.5L178.5 312C178.833 322.667 179.3 348 178.5 364C177.5 384 170.5 418.5 168 427C165.5 435.5 157.5 440 143.5 443C132.3 445.4 107.167 447.333 96 448Z" fill="#2962FF"/>
<path d="M178.5 364C177.5 384 170.5 418.5 168 427C165.716 434.764 158.843 439.191 147 442.186C148.333 439.291 151.2 432.2 152 427C153 420.5 155.5 387.5 155 380.5C154.5 373.5 142.5 326 141.5 312C140.5 298 140.5 236 146.5 210C152.5 184 157 164 163 136.5C169 109 166.5 89.5 163 78.5C159.5 67.5 158.5 38 165.568 30.5C167.91 33.7374 169.242 37.3315 170 41.5C171 47 179.5 65 179.5 72.5C179.5 78.5 178.833 97 178.5 105.5L178.5 208.75L178.5 312C178.833 322.667 179.3 348 178.5 364Z" fill="#2962FF"/>
<path d="M178.5 364C177.5 384 170.5 418.5 168 427C165.716 434.764 158.843 439.191 147 442.186C148.333 439.291 151.2 432.2 152 427C153 420.5 155.5 387.5 155 380.5C154.5 373.5 142.5 326 141.5 312C140.5 298 140.5 236 146.5 210C152.5 184 157 164 163 136.5C169 109 166.5 89.5 163 78.5C159.5 67.5 158.5 38 165.568 30.5C167.91 33.7374 169.242 37.3315 170 41.5C171 47 179.5 65 179.5 72.5C179.5 78.5 178.833 97 178.5 105.5L178.5 208.75L178.5 312C178.833 322.667 179.3 348 178.5 364Z" fill="#1A237E" fill-opacity="0.4"/>
<path d="M178.5 140C176.5 139.5 172.1 139.7 170.5 144.5C168.5 150.5 153 198.5 152 226C151 253.5 151.5 296 153 305C154.5 314 159.5 343.5 167.5 338C173.038 334.193 176.9 330.518 178.5 329" stroke="#1A237E"/>
<path d="M169.5 240.64L170.47 146.191C168.921 150.954 165.091 163.097 161.359 177.314C157.109 193.5 152.998 212.328 152.5 226.018C152 239.758 151.875 257.25 152.062 272.431C152.25 287.633 152.751 300.464 153.493 304.918C154.244 309.422 155.864 319.014 158.29 326.789C159.506 330.687 160.907 334.068 162.469 336.128C163.25 337.157 164.031 337.803 164.798 338.055C165.475 338.278 166.2 338.214 167.007 337.724L169.5 240.648L169.5 240.64Z" fill="#212121" stroke="black"/>
<path d="M170.5 144.5C170.645 144.065 170.813 143.668 171 143.306L170 240.653L167.5 338C165.231 339.56 163.204 338.304 161.429 335.5C160.5 320 164.5 190.5 166.124 158.5C168.251 151.371 169.928 146.217 170.5 144.5Z" fill="#424242"/>
<path d="M167.526 337L170 240.653L170.941 149" stroke="black"/>
<path d="M146.5 210C147.129 207.272 147.742 204.611 148.342 202C136 193 108.228 191.833 95.9996 192L95.9996 297L141.041 297C140.781 272.83 141.799 230.368 146.5 210Z" fill="black"/>
<path d="M139.125 292L96.0001 292L96.0001 219C114 219 134.423 222.667 142.384 224.5C139.602 244.983 138.432 277.022 139.125 292Z" fill="#212121"/>
<path d="M152 226C153 198.5 168.5 150.5 170.5 144.5C170.645 144.065 170.813 143.668 171 143.306L170.957 147.5C166.914 158 160.5 187.5 156 206C151.5 224.5 154 274 154 290.5C154 307 160 341.5 167.551 336C167.551 336 168.007 336.572 168 337C167.993 337.436 167.5 338 167.5 338C159.5 343.5 154.5 314 153 305C151.5 296 151 253.5 152 226Z" fill="black"/>
<path d="M154.933 315.5C154.792 314.822 154.657 314.154 154.528 313.5L168.168 312L168.117 314L154.933 315.5Z" fill="black"/>
<path d="M151.48 257.5C151.483 254.5 151.498 251.487 151.525 248.5L169.794 238L169.438 253.5L151.48 257.5Z" fill="black"/>
<path d="M151.491 253.5L151.495 252.711L169.594 246.724L169.576 247.5C169.576 247.5 151.5 253.492 151.491 253.5Z" fill="#343F45"/>
<path d="M163.796 166.5C166.965 155.325 169.731 146.807 170.5 144.5C170.844 143.466 171.319 142.646 171.871 142L171.871 161.24C171.207 162.724 170.259 164.08 169 164.5C166.6 165.3 164.53 166.167 163.796 166.5Z" fill="black"/>
<path d="M154.57 377.5C152.931 368.22 147.162 344.176 143.839 327C135.179 332.5 109.5 333.5 95.9999 333.5L95.9999 393.5C108 393.5 144 389.5 154.57 377.5Z" fill="black"/>
<path d="M142.5 333C129.7 336.2 106.333 338.833 96 339L96 387C129.6 385.4 146.667 377.333 151 373C149.8 368.6 144.667 344 142.5 333Z" fill="#212121"/>
<path d="M148.342 202C153.461 179.721 157.63 161.115 163 136.5C163.258 135.319 163.5 134.152 163.727 133C166.752 119 134.5 112.5 96.0001 112.5L96.0001 192C128 192 144.228 198.667 148.342 202Z" fill="#212121"/>
<path d="M148.342 202C153.461 179.721 157.63 161.115 163 136.5C163.258 135.319 163.5 134.152 163.727 133C166.752 119 134.5 112.5 96.0001 112.5L96.0001 120C126.5 120 160.5 126.5 160 136.5C159.5 146.5 150.282 186 146.891 201C147.48 201.356 147.963 201.692 148.342 202Z" fill="black"/>
<path d="M96 19V10C102.833 10 117.2 10.2 120 11C122.8 11.8 125.833 16 127 18C126.5 19 125.601 19.3382 123 19.5C117.451 19.8452 107.883 19 105.5 19H96Z" fill="black"/>
<path d="M127 18C126.474 19.0518 124.98 19.2344 123 19.5C125.5 38.7049 134.4 85.8 150 119C143.167 99.8333 129 52.8 127 18Z" fill="#2962FF"/>
<path d="M127 18C126.474 19.0518 124.98 19.2344 123 19.5C125.5 38.7049 134.4 85.8 150 119C143.167 99.8333 129 52.8 127 18Z" fill="#1A237E" fill-opacity="0.4"/>
<path d="M123 19.5C122.379 19.5387 121.707 19.5624 121 19.574C125 50.5 139.5 101.5 150 119C134.4 85.8 125.5 38.7049 123 19.5Z" fill="#2962FF"/>
<path d="M123 19.5C122.379 19.5387 121.707 19.5624 121 19.574C125 50.5 139.5 101.5 150 119C134.4 85.8 125.5 38.7049 123 19.5Z" fill="#82B1FF" fill-opacity="0.4"/>
<rect width="30" height="1" transform="matrix(-1 0 0 1 126 17)" fill="url(#paint4_linear_100_2119)"/>
<rect width="28" height="1" transform="matrix(-1 0 0 1 124 15)" fill="url(#paint5_linear_100_2119)"/>
<rect width="26" height="1" transform="matrix(-1 0 0 1 122 13)" fill="url(#paint6_linear_100_2119)"/>
<rect width="23" height="1" transform="matrix(-1 0 0 1 119 11)" fill="url(#paint7_linear_100_2119)"/>
<path d="M96 440.5V437.5C122.8 436.3 139.833 432.667 145 431L142 436C138.707 436.988 134.534 437.882 130 438.5C118.013 440.135 103.497 440.5 96 440.5Z" fill="#2962FF"/>
<path d="M96 440.5V437.5C122.8 436.3 139.833 432.667 145 431L142 436C138.707 436.988 134.534 437.882 130 438.5C118.013 440.135 103.497 440.5 96 440.5Z" fill="#1A237E" fill-opacity="0.4"/>
<path d="M96 440.5V444.5C148.5 440.5 161.5 439 169.5 417.5C169.5 417.5 134.5 438 130 438.5C125.5 439 106.333 440.5 96 440.5Z" fill="#1A237E"/>
<path d="M192 177C190.5 162.5 177.5 160 172 166V170.5C175.2 173.3 186.667 176 192 177Z" fill="#2962FF"/>
<path d="M172 170.5C175.2 173.3 186.667 176 192 177C191.928 176.306 191.83 175.639 191.708 175C190.971 174.857 190.234 174.702 189.5 174.538C182.025 172.865 174.858 170.214 172 169V170.5Z" fill="black"/>
<path opacity="0.1" d="M145 375.5C152.5 378 140 331.5 139 313.5C134.5 259 140.5 227 142 217.5C143.5 208 148 193.5 150.5 181C153 168.5 158.5 141.5 156 141.5C153.5 141.5 147.5 153.5 145 162C142.5 170.5 127 220 127 268.5C127 317 137.5 373 145 375.5Z" fill="white"/>
<path d="M183.5 165C187.1 167.4 189.333 171.667 190 173.5C184.8 167.1 176.833 165.5 173.5 165.5C175.333 164.333 179.9 162.6 183.5 165Z" fill="#2962FF"/>
<path d="M183.5 165C187.1 167.4 189.333 171.667 190 173.5C184.8 167.1 176.833 165.5 173.5 165.5C175.333 164.333 179.9 162.6 183.5 165Z" fill="#82B1FF" fill-opacity="0.4"/>
<path d="M165.568 30.5C164.046 32.1148 162.898 34.7496 162.069 38M147 442.186C148.333 439.291 151.2 432.2 152 427C153 420.5 155.5 387.5 155 380.5C154.5 373.5 142.5 326 141.5 312C140.5 298 140.5 236 146.5 210C152.5 184 157 164 163 136.5C169 109 166.5 89.5 163 78.5C160.254 69.8684 159.047 49.8458 162.069 38M162.069 38C163.546 39.5 168 45.1 174 55.5" stroke="#1A237E"/>
<path d="M162.069 38C162.898 34.7496 164.046 32.1148 165.567 30.5L164.5 29C162.978 30.6148 161.829 32.7496 161 36C157.978 47.8458 158.754 69.8684 161.5 78.5C164.65 88.4013 167 105.5 164 128.5C167.94 105.19 166.15 88.4013 163 78.5C160.254 69.8684 159.046 49.8458 162.069 38Z" fill="#2962FF"/>
<path d="M162.069 38C162.898 34.7496 164.046 32.1148 165.567 30.5L164.5 29C162.978 30.6148 161.829 32.7496 161 36C157.978 47.8458 158.754 69.8684 161.5 78.5C164.65 88.4013 167 105.5 164 128.5C167.94 105.19 166.15 88.4013 163 78.5C160.254 69.8684 159.046 49.8458 162.069 38Z" fill="#82B1FF" fill-opacity="0.4"/>
<g filter="url(#filter5_d_100_2119)">
<path d="M160 418.5C156.4 425.3 138.667 434.667 130 438.5C140.5 436 150.5 434 157.5 430C163.1 426.8 166.833 421 168 418.5V402C166.833 404.667 163.6 411.7 160 418.5Z" fill="#FF1744"/>
</g>
<path d="M164.402 424C162.624 426.159 160.295 428.403 157.5 430C160 425 164.402 418 164.402 424Z" fill="#D50000"/>
<path d="M164.402 424C162.624 426.159 160.295 428.403 157.5 430C160 425 164.402 418 164.402 424Z" fill="black" fill-opacity="0.2"/>
<path d="M160 418.5C156.4 425.3 138.667 434.667 130 438.5C134.49 437.431 138.888 436.453 143 435.372C159.4 426.869 165.5 415.581 166.5 411L166.264 421.5C167.063 420.308 167.648 419.254 168 418.5V402C166.833 404.667 163.6 411.7 160 418.5Z" fill="#D50000"/>
<path d="M160 418.5C156.4 425.3 138.667 434.667 130 438.5C134.49 437.431 138.888 436.453 143 435.372C159.4 426.869 165.5 415.581 166.5 411L166.264 421.5C167.063 420.308 167.648 419.254 168 418.5V402C166.833 404.667 163.6 411.7 160 418.5Z" fill="black" fill-opacity="0.2"/>
<g filter="url(#filter6_d_100_2119)">
<path d="M162.5 31.5C169.5 38 171 51.5 169.5 57.5C162 37 144.5 29 138 26.5C132.8 24.5 130.166 17.6667 129.5 14.5C138.166 18 156.9 26.3 162.5 31.5Z" fill="#C1D8FF"/>
<path d="M138.179 26.0333C144.543 28.4808 161.443 36.1866 169.331 55.6704C169.711 52.7755 169.564 48.8157 168.698 44.7927C167.647 39.9057 165.554 35.0185 162.16 31.8664C159.423 29.325 153.408 25.9796 146.93 22.8117C140.91 19.8674 134.554 17.1068 130.217 15.3315C130.628 16.8297 131.37 18.805 132.48 20.6831C133.844 22.9904 135.728 25.0906 138.179 26.0333Z" stroke="#9E9E9E"/>
</g>
<path d="M165.626 45.0138C165.75 45.0046 165.874 45 166 45C166.865 45 167.679 45.2197 168.389 45.6064C168.5 46 169.617 51.7811 169.351 53.7112C168.031 49.8801 166.318 46.3166 165.626 45.0138Z" fill="#FFA726"/>
<g filter="url(#filter7_d_100_2119)">
<path d="M146 25C148.209 25 150 26.7909 150 29C150 29.9459 149.672 30.8152 149.123 31.5L142.291 27.5C142.884 26.0341 144.321 25 146 25Z" fill="#FAFAFA"/>
</g>
<path d="M142.291 27.5C142.884 26.0341 144.321 25 146 25V29.6717L142.291 27.5Z" fill="#757575"/>
<g filter="url(#filter8_d_100_2119)">
<path d="M134 19C136.209 19 138 20.7909 138 23C138 24.0144 137.622 24.9407 137 25.6458L131.719 19.7135C132.366 19.2637 133.152 19 134 19Z" fill="#FAFAFA"/>
</g>
<path d="M131.719 19.7135C132.366 19.2637 133.152 19 134 19C135.014 19 135.94 19.3776 136.646 20L134.359 22.6797L131.719 19.7135Z" fill="#757575"/>
<g filter="url(#filter9_d_100_2119)">
<path d="M157 33C160.314 33 163 35.6863 163 39C163 40.6703 162.318 42.1811 161.216 43.2689L158 38L152.687 34.8285C153.778 33.701 155.307 33 157 33Z" fill="#FAFAFA"/>
</g>
<path d="M152.687 34.8285C153.778 33.701 155.307 33 157 33C157.341 33 157.675 33.0284 158 33.083V38L152.687 34.8285Z" fill="#757575"/>
<path d="M137.972 27C132.772 25 130.167 17.6667 129.5 14.5C130.669 14.9721 131.971 15.8788 133.472 16.6591C133.972 20 135.972 23.5 142.472 26C159.168 32.4216 164.972 43 170 53C169.993 54.9345 169.808 56.6555 169.472 58C161.972 37.5 144.472 29.5 137.972 27Z" fill="#9E9E9E"/>
<defs>
<filter id="filter0_d_100_2119" x="10" y="388" width="66" height="64.5" filterUnits="userSpaceOnUse" color-interpolation-filters="sRGB">
<feFlood flood-opacity="0" result="BackgroundImageFix"/>
<feColorMatrix in="SourceAlpha" type="matrix" values="0 0 0 0 0 0 0 0 0 0 0 0 0 0 0 0 0 0 127 0" result="hardAlpha"/>
<feMorphology radius="2" operator="dilate" in="SourceAlpha" result="effect1_dropShadow_100_2119"/>
<feOffset/>
<feGaussianBlur stdDeviation="6"/>
<feComposite in2="hardAlpha" operator="out"/>
<feColorMatrix type="matrix" values="0 0 0 0 0.509804 0 0 0 0 0.694118 0 0 0 0 1 0 0 0 1 0"/>
<feBlend mode="normal" in2="BackgroundImageFix" result="effect1_dropShadow_100_2119"/>
<feBlend mode="normal" in="SourceGraphic" in2="effect1_dropShadow_100_2119" result="shape"/>
</filter>
<filter id="filter1_d_100_2119" x="7.97168" y="0.5" width="68.5283" height="71" filterUnits="userSpaceOnUse" color-interpolation-filters="sRGB">
<feFlood flood-opacity="0" result="BackgroundImageFix"/>
<feColorMatrix in="SourceAlpha" type="matrix" values="0 0 0 0 0 0 0 0 0 0 0 0 0 0 0 0 0 0 127 0" result="hardAlpha"/>
<feMorphology radius="2" operator="dilate" in="SourceAlpha" result="effect1_dropShadow_100_2119"/>
<feOffset/>
<feGaussianBlur stdDeviation="6"/>
<feComposite in2="hardAlpha" operator="out"/>
<feColorMatrix type="matrix" values="0 0 0 0 0.509804 0 0 0 0 0.694118 0 0 0 0 1 0 0 0 1 0"/>
<feBlend mode="normal" in2="BackgroundImageFix" result="effect1_dropShadow_100_2119"/>
<feBlend mode="normal" in="SourceGraphic" in2="effect1_dropShadow_100_2119" result="shape"/>
</filter>
<filter id="filter2_d_100_2119" x="28" y="11" width="35.709" height="34.5" filterUnits="userSpaceOnUse" color-interpolation-filters="sRGB">
<feFlood flood-opacity="0" result="BackgroundImageFix"/>
<feColorMatrix in="SourceAlpha" type="matrix" values="0 0 0 0 0 0 0 0 0 0 0 0 0 0 0 0 0 0 127 0" result="hardAlpha"/>
<feMorphology radius="2" operator="dilate" in="SourceAlpha" result="effect1_dropShadow_100_2119"/>
<feOffset/>
<feGaussianBlur stdDeviation="6"/>
<feComposite in2="hardAlpha" operator="out"/>
<feColorMatrix type="matrix" values="0 0 0 0 0.509804 0 0 0 0 0.694118 0 0 0 0 1 0 0 0 1 0"/>
<feBlend mode="normal" in2="BackgroundImageFix" result="effect1_dropShadow_100_2119"/>
<feBlend mode="normal" in="SourceGraphic" in2="effect1_dropShadow_100_2119" result="shape"/>
</filter>
<filter id="filter3_d_100_2119" x="40" y="5" width="34.2803" height="34.6458" filterUnits="userSpaceOnUse" color-interpolation-filters="sRGB">
<feFlood flood-opacity="0" result="BackgroundImageFix"/>
<feColorMatrix in="SourceAlpha" type="matrix" values="0 0 0 0 0 0 0 0 0 0 0 0 0 0 0 0 0 0 127 0" result="hardAlpha"/>
<feMorphology radius="2" operator="dilate" in="SourceAlpha" result="effect1_dropShadow_100_2119"/>
<feOffset/>
<feGaussianBlur stdDeviation="6"/>
<feComposite in2="hardAlpha" operator="out"/>
<feColorMatrix type="matrix" values="0 0 0 0 0.509804 0 0 0 0 0.694118 0 0 0 0 1 0 0 0 1 0"/>
<feBlend mode="normal" in2="BackgroundImageFix" result="effect1_dropShadow_100_2119"/>
<feBlend mode="normal" in="SourceGraphic" in2="effect1_dropShadow_100_2119" result="shape"/>
</filter>
<filter id="filter4_d_100_2119" x="15" y="19" width="38.3125" height="38.2688" filterUnits="userSpaceOnUse" color-interpolation-filters="sRGB">
<feFlood flood-opacity="0" result="BackgroundImageFix"/>
<feColorMatrix in="SourceAlpha" type="matrix" values="0 0 0 0 0 0 0 0 0 0 0 0 0 0 0 0 0 0 127 0" result="hardAlpha"/>
<feMorphology radius="2" operator="dilate" in="SourceAlpha" result="effect1_dropShadow_100_2119"/>
<feOffset/>
<feGaussianBlur stdDeviation="6"/>
<feComposite in2="hardAlpha" operator="out"/>
<feColorMatrix type="matrix" values="0 0 0 0 0.509804 0 0 0 0 0.694118 0 0 0 0 1 0 0 0 1 0"/>
<feBlend mode="normal" in2="BackgroundImageFix" result="effect1_dropShadow_100_2119"/>
<feBlend mode="normal" in="SourceGraphic" in2="effect1_dropShadow_100_2119" result="shape"/>
</filter>
<filter id="filter5_d_100_2119" x="116" y="388" width="66" height="64.5" filterUnits="userSpaceOnUse" color-interpolation-filters="sRGB">
<feFlood flood-opacity="0" result="BackgroundImageFix"/>
<feColorMatrix in="SourceAlpha" type="matrix" values="0 0 0 0 0 0 0 0 0 0 0 0 0 0 0 0 0 0 127 0" result="hardAlpha"/>
<feMorphology radius="2" operator="dilate" in="SourceAlpha" result="effect1_dropShadow_100_2119"/>
<feOffset/>
<feGaussianBlur stdDeviation="6"/>
<feComposite in2="hardAlpha" operator="out"/>
<feColorMatrix type="matrix" values="0 0 0 0 0.509804 0 0 0 0 0.694118 0 0 0 0 1 0 0 0 1 0"/>
<feBlend mode="normal" in2="BackgroundImageFix" result="effect1_dropShadow_100_2119"/>
<feBlend mode="normal" in="SourceGraphic" in2="effect1_dropShadow_100_2119" result="shape"/>
</filter>
<filter id="filter6_d_100_2119" x="115.5" y="0.5" width="68.5283" height="71" filterUnits="userSpaceOnUse" color-interpolation-filters="sRGB">
<feFlood flood-opacity="0" result="BackgroundImageFix"/>
<feColorMatrix in="SourceAlpha" type="matrix" values="0 0 0 0 0 0 0 0 0 0 0 0 0 0 0 0 0 0 127 0" result="hardAlpha"/>
<feMorphology radius="2" operator="dilate" in="SourceAlpha" result="effect1_dropShadow_100_2119"/>
<feOffset/>
<feGaussianBlur stdDeviation="6"/>
<feComposite in2="hardAlpha" operator="out"/>
<feColorMatrix type="matrix" values="0 0 0 0 0.509804 0 0 0 0 0.694118 0 0 0 0 1 0 0 0 1 0"/>
<feBlend mode="normal" in2="BackgroundImageFix" result="effect1_dropShadow_100_2119"/>
<feBlend mode="normal" in="SourceGraphic" in2="effect1_dropShadow_100_2119" result="shape"/>
</filter>
<filter id="filter7_d_100_2119" x="128.291" y="11" width="35.709" height="34.5" filterUnits="userSpaceOnUse" color-interpolation-filters="sRGB">
<feFlood flood-opacity="0" result="BackgroundImageFix"/>
<feColorMatrix in="SourceAlpha" type="matrix" values="0 0 0 0 0 0 0 0 0 0 0 0 0 0 0 0 0 0 127 0" result="hardAlpha"/>
<feMorphology radius="2" operator="dilate" in="SourceAlpha" result="effect1_dropShadow_100_2119"/>
<feOffset/>
<feGaussianBlur stdDeviation="6"/>
<feComposite in2="hardAlpha" operator="out"/>
<feColorMatrix type="matrix" values="0 0 0 0 0.509804 0 0 0 0 0.694118 0 0 0 0 1 0 0 0 1 0"/>
<feBlend mode="normal" in2="BackgroundImageFix" result="effect1_dropShadow_100_2119"/>
<feBlend mode="normal" in="SourceGraphic" in2="effect1_dropShadow_100_2119" result="shape"/>
</filter>
<filter id="filter8_d_100_2119" x="117.72" y="5" width="34.2803" height="34.6458" filterUnits="userSpaceOnUse" color-interpolation-filters="sRGB">
<feFlood flood-opacity="0" result="BackgroundImageFix"/>
<feColorMatrix in="SourceAlpha" type="matrix" values="0 0 0 0 0 0 0 0 0 0 0 0 0 0 0 0 0 0 127 0" result="hardAlpha"/>
<feMorphology radius="2" operator="dilate" in="SourceAlpha" result="effect1_dropShadow_100_2119"/>
<feOffset/>
<feGaussianBlur stdDeviation="6"/>
<feComposite in2="hardAlpha" operator="out"/>
<feColorMatrix type="matrix" values="0 0 0 0 0.509804 0 0 0 0 0.694118 0 0 0 0 1 0 0 0 1 0"/>
<feBlend mode="normal" in2="BackgroundImageFix" result="effect1_dropShadow_100_2119"/>
<feBlend mode="normal" in="SourceGraphic" in2="effect1_dropShadow_100_2119" result="shape"/>
</filter>
<filter id="filter9_d_100_2119" x="138.688" y="19" width="38.3125" height="38.2688" filterUnits="userSpaceOnUse" color-interpolation-filters="sRGB">
<feFlood flood-opacity="0" result="BackgroundImageFix"/>
<feColorMatrix in="SourceAlpha" type="matrix" values="0 0 0 0 0 0 0 0 0 0 0 0 0 0 0 0 0 0 127 0" result="hardAlpha"/>
<feMorphology radius="2" operator="dilate" in="SourceAlpha" result="effect1_dropShadow_100_2119"/>
<feOffset/>
<feGaussianBlur stdDeviation="6"/>
<feComposite in2="hardAlpha" operator="out"/>
<feColorMatrix type="matrix" values="0 0 0 0 0.509804 0 0 0 0 0.694118 0 0 0 0 1 0 0 0 1 0"/>
<feBlend mode="normal" in2="BackgroundImageFix" result="effect1_dropShadow_100_2119"/>
<feBlend mode="normal" in="SourceGraphic" in2="effect1_dropShadow_100_2119" result="shape"/>
</filter>
<linearGradient id="paint0_linear_100_2119" x1="96" y1="18" x2="66" y2="18" gradientUnits="userSpaceOnUse">
<stop stop-color="#DEDFDA"/>
<stop offset="1" stop-color="#DEDFDA" stop-opacity="0"/>
</linearGradient>
<linearGradient id="paint1_linear_100_2119" x1="96" y1="16" x2="68" y2="16" gradientUnits="userSpaceOnUse">
<stop stop-color="#DEDFDA"/>
<stop offset="1" stop-color="#DEDFDA" stop-opacity="0"/>
</linearGradient>
<linearGradient id="paint2_linear_100_2119" x1="96" y1="14" x2="70" y2="14" gradientUnits="userSpaceOnUse">
<stop stop-color="#DEDFDA"/>
<stop offset="1" stop-color="#DEDFDA" stop-opacity="0"/>
</linearGradient>
<linearGradient id="paint3_linear_100_2119" x1="96" y1="12" x2="73" y2="12" gradientUnits="userSpaceOnUse">
<stop stop-color="#DEDFDA"/>
<stop offset="1" stop-color="#DEDFDA" stop-opacity="0"/>
</linearGradient>
<linearGradient id="paint4_linear_100_2119" x1="30" y1="1.00003" x2="0" y2="1.00003" gradientUnits="userSpaceOnUse">
<stop stop-color="#DEDFDA"/>
<stop offset="1" stop-color="#DEDFDA" stop-opacity="0"/>
</linearGradient>
<linearGradient id="paint5_linear_100_2119" x1="28" y1="1.00003" x2="0" y2="1.00003" gradientUnits="userSpaceOnUse">
<stop stop-color="#DEDFDA"/>
<stop offset="1" stop-color="#DEDFDA" stop-opacity="0"/>
</linearGradient>
<linearGradient id="paint6_linear_100_2119" x1="26" y1="1.00003" x2="0" y2="1.00003" gradientUnits="userSpaceOnUse">
<stop stop-color="#DEDFDA"/>
<stop offset="1" stop-color="#DEDFDA" stop-opacity="0"/>
</linearGradient>
<linearGradient id="paint7_linear_100_2119" x1="23" y1="1.00003" x2="0" y2="1.00003" gradientUnits="userSpaceOnUse">
<stop stop-color="#DEDFDA"/>
<stop offset="1" stop-color="#DEDFDA" stop-opacity="0"/>
</linearGradient>
</defs>
</svg>
