<svg width="160" height="160" viewBox="0 0 160 160" fill="none" xmlns="http://www.w3.org/2000/svg">
<g filter="url(#filter0_d_117_8222)">
<path fill-rule="evenodd" clip-rule="evenodd" d="M80 128C106.51 128 128 106.51 128 80C128 53.4903 106.51 32 80 32C53.4903 32 32 53.4903 32 80C32 106.51 53.4903 128 80 128ZM80 130C107.614 130 130 107.614 130 80C130 52.3858 107.614 30 80 30C52.3858 30 30 52.3858 30 80C30 107.614 52.3858 130 80 130ZM78.75 45V35H81.25V45H78.75ZM77.5 60V80H77.715L98.7138 100.999L102.249 97.4632L82.5 77.714V60H77.5ZM78.75 115V125H81.25V115H78.75ZM45 81.25H35V78.75H45V81.25ZM58.5821 119.596L61.0821 115.266L58.917 114.016L56.417 118.346L58.5821 119.596ZM125 81.25H115V78.75H125V81.25ZM101.083 45.9839L103.583 41.6538L101.418 40.4038L98.9177 44.7339L101.083 45.9839ZM45.9839 101.082L41.6537 103.582L40.4037 101.417L44.7339 98.9174L45.9839 101.082ZM115.266 61.0825L119.597 58.5825L118.347 56.4174L114.016 58.9174L115.266 61.0825ZM44.7339 61.0822L40.4038 58.5822L41.6538 56.4171L45.9839 58.9171L44.7339 61.0822ZM114.017 101.082L118.347 103.582L119.597 101.417L115.267 98.9174L114.017 101.082ZM58.9172 45.9834L56.4172 41.6533L58.5823 40.4033L61.0823 44.7334L58.9172 45.9834ZM98.9179 115.266L101.418 119.596L103.583 118.346L101.083 114.016L98.9179 115.266Z" fill="#C1D8FF"/>
</g>
<defs>
<filter id="filter0_d_117_8222" x="28" y="29" width="108" height="108" filterUnits="userSpaceOnUse" color-interpolation-filters="sRGB">
<feFlood flood-opacity="0" result="BackgroundImageFix"/>
<feColorMatrix in="SourceAlpha" type="matrix" values="0 0 0 0 0 0 0 0 0 0 0 0 0 0 0 0 0 0 127 0" result="hardAlpha"/>
<feOffset dx="2" dy="3"/>
<feGaussianBlur stdDeviation="2"/>
<feComposite in2="hardAlpha" operator="out"/>
<feColorMatrix type="matrix" values="0 0 0 0 0 0 0 0 0 0 0 0 0 0 0 0 0 0 0.7 0"/>
<feBlend mode="normal" in2="BackgroundImageFix" result="effect1_dropShadow_117_8222"/>
<feBlend mode="normal" in="SourceGraphic" in2="effect1_dropShadow_117_8222" result="shape"/>
</filter>
</defs>
</svg>
