<svg width="58" height="58" viewBox="0 0 58 58" fill="none" xmlns="http://www.w3.org/2000/svg">
<g filter="url(#filter0_d_38_3407)">
<path fill-rule="evenodd" clip-rule="evenodd" d="M13.5176 7.9375H43.4824C44.3304 7.9375 45.0862 8.47224 45.3684 9.27186L49.6401 21.375H7.35988L11.6316 9.27186C11.9138 8.47224 12.6696 7.9375 13.5176 7.9375ZM5.23897 21.375L9.7456 8.60622C10.31 7.00697 11.8216 5.9375 13.5176 5.9375H43.4824C45.1784 5.9375 46.69 7.00697 47.2544 8.60622L51.761 21.375L52.7316 24.125L53.4375 26.125V45.125H3.5625V26.125L4.26838 24.125L5.23897 21.375ZM20.1875 35.625C20.1875 38.2484 18.0609 40.375 15.4375 40.375C12.8141 40.375 10.6875 38.2484 10.6875 35.625C10.6875 33.0016 12.8141 30.875 15.4375 30.875C18.0609 30.875 20.1875 33.0016 20.1875 35.625ZM46.3125 35.625C46.3125 38.2484 44.1859 40.375 41.5625 40.375C38.9391 40.375 36.8125 38.2484 36.8125 35.625C36.8125 33.0016 38.9391 30.875 41.5625 30.875C44.1859 30.875 46.3125 33.0016 46.3125 35.625ZM11.875 47.5H3.5625V50.25C3.5625 51.3546 4.45793 52.25 5.5625 52.25H9.875C10.9796 52.25 11.875 51.3546 11.875 50.25V47.5ZM45.125 47.5H53.4375V50.25C53.4375 51.3546 52.5421 52.25 51.4375 52.25H47.125C46.0204 52.25 45.125 51.3546 45.125 50.25V47.5Z" fill="white"/>
</g>
<defs>
<filter id="filter0_d_38_3407" x="1.5625" y="4.9375" width="55.875" height="52.3125" filterUnits="userSpaceOnUse" color-interpolation-filters="sRGB">
<feFlood flood-opacity="0" result="BackgroundImageFix"/>
<feColorMatrix in="SourceAlpha" type="matrix" values="0 0 0 0 0 0 0 0 0 0 0 0 0 0 0 0 0 0 127 0" result="hardAlpha"/>
<feOffset dx="1" dy="2"/>
<feGaussianBlur stdDeviation="1.5"/>
<feComposite in2="hardAlpha" operator="out"/>
<feColorMatrix type="matrix" values="0 0 0 0 0 0 0 0 0 0 0 0 0 0 0 0 0 0 0.7 0"/>
<feBlend mode="normal" in2="BackgroundImageFix" result="effect1_dropShadow_38_3407"/>
<feBlend mode="normal" in="SourceGraphic" in2="effect1_dropShadow_38_3407" result="shape"/>
</filter>
</defs>
</svg>
