<svg width="58" height="58" viewBox="0 0 58 58" fill="none" xmlns="http://www.w3.org/2000/svg">
<g filter="url(#filter0_d_38_3405)">
<path fill-rule="evenodd" clip-rule="evenodd" d="M43.4824 7.9375H13.5176C12.6696 7.9375 11.9138 8.47224 11.6316 9.27186L7.53635 20.875H49.4636L45.3684 9.27186C45.0862 8.47224 44.3304 7.9375 43.4824 7.9375ZM5.68341 26.125H5.5625V43.125H51.4375V26.125H51.3166H28.5H5.68341ZM3.5625 26.125L4.26838 24.125L9.7456 8.60622C10.31 7.00697 11.8216 5.9375 13.5176 5.9375H43.4824C45.1784 5.9375 46.69 7.00697 47.2544 8.60622L52.7316 24.125L53.4375 26.125V43.125V45.125H51.4375H5.5625H3.5625V43.125V26.125ZM50.6107 24.125L49.8166 21.875H7.18341L6.38929 24.125H28.5H50.6107ZM20.1875 35.625C20.1875 38.2484 18.0609 40.375 15.4375 40.375C12.8141 40.375 10.6875 38.2484 10.6875 35.625C10.6875 33.0016 12.8141 30.875 15.4375 30.875C18.0609 30.875 20.1875 33.0016 20.1875 35.625ZM41.5625 40.375C44.1859 40.375 46.3125 38.2484 46.3125 35.625C46.3125 33.0016 44.1859 30.875 41.5625 30.875C38.9391 30.875 36.8125 33.0016 36.8125 35.625C36.8125 38.2484 38.9391 40.375 41.5625 40.375ZM3.5625 47.5H11.875V50.25C11.875 51.3546 10.9796 52.25 9.875 52.25H5.5625C4.45793 52.25 3.5625 51.3546 3.5625 50.25V47.5ZM53.4375 47.5H45.125V50.25C45.125 51.3546 46.0204 52.25 47.125 52.25H51.4375C52.5421 52.25 53.4375 51.3546 53.4375 50.25V47.5Z" fill="#C1D8FF"/>
</g>
<defs>
<filter id="filter0_d_38_3405" x="1.5625" y="4.9375" width="55.875" height="52.3125" filterUnits="userSpaceOnUse" color-interpolation-filters="sRGB">
<feFlood flood-opacity="0" result="BackgroundImageFix"/>
<feColorMatrix in="SourceAlpha" type="matrix" values="0 0 0 0 0 0 0 0 0 0 0 0 0 0 0 0 0 0 127 0" result="hardAlpha"/>
<feOffset dx="1" dy="2"/>
<feGaussianBlur stdDeviation="1.5"/>
<feComposite in2="hardAlpha" operator="out"/>
<feColorMatrix type="matrix" values="0 0 0 0 0 0 0 0 0 0 0 0 0 0 0 0 0 0 0.7 0"/>
<feBlend mode="normal" in2="BackgroundImageFix" result="effect1_dropShadow_38_3405"/>
<feBlend mode="normal" in="SourceGraphic" in2="effect1_dropShadow_38_3405" result="shape"/>
</filter>
</defs>
</svg>
