<svg width="160" height="72" viewBox="0 0 160 72" fill="none" xmlns="http://www.w3.org/2000/svg">
<g filter="url(#filter0_d_100_7090)">
<path fill-rule="evenodd" clip-rule="evenodd" d="M35 32.674L36.618 33.8495L62.435 52.6066C64.1437 50.2588 66.3251 48.2772 68.8394 46.8016L69.2158 47.178C71.3463 49.3085 71.8745 52.5633 70.5271 55.2582L68.9503 58.4117C68.3255 59.6614 68.0002 61.0394 68.0002 62.4366V62.5481H70.0002V62.4366C70.0002 61.3499 70.2532 60.2781 70.7392 59.3061L72.3159 56.1526C74.034 52.7164 73.3803 48.5722 70.6976 45.832C72.4698 45.017 74.3745 44.4405 76.3704 44.1436C76.6652 44.5629 76.9988 44.9609 77.3703 45.3324L79.2158 47.178C81.3463 49.3085 81.8745 52.5633 80.5271 55.2582L78.9503 58.4117C78.3255 59.6614 78.0002 61.0394 78.0002 62.4366V62.5481H80.0002V62.4366C80.0002 61.3499 80.2532 60.2781 80.7392 59.3061L82.3159 56.1526C84.0484 52.6877 83.3693 48.503 80.63 45.7638L78.791 43.9247C79.0264 43.9169 79.2628 43.913 79.5002 43.913C82.3453 43.913 85.0588 44.4763 87.5353 45.4975L89.2158 47.178C91.3463 49.3085 91.8745 52.5633 90.5271 55.2582L88.9503 58.4117C88.3255 59.6614 88.0002 61.0394 88.0002 62.4366V62.5481H90.0002V62.4366C90.0002 61.3499 90.2532 60.2781 90.7392 59.3061L92.3159 56.1526C93.5662 53.6522 93.5605 50.7768 92.431 48.3403C94.0011 49.5604 95.3942 50.9976 96.5653 52.6067L122.382 33.8496L124 32.674C123.608 32.134 123.206 31.6017 122.795 31.0773C117.863 24.7829 111.612 19.633 104.472 15.9952C96.7377 12.0544 88.1806 10 79.5002 10C70.8198 10 62.2626 12.0544 54.5283 15.9952C47.3888 19.633 41.1375 24.7829 36.205 31.0773C35.7941 31.6017 35.3923 32.1339 35 32.674ZM88.6777 43.8091C91.8697 45.1931 94.6873 47.2766 96.9366 49.8648L121.176 32.2537C116.43 26.2142 110.422 21.2717 103.564 17.7772C96.111 13.9797 87.865 12 79.5002 12C71.1354 12 62.8894 13.9797 55.4363 17.7772C48.578 21.2717 42.5703 26.2141 37.8241 32.2537L62.0637 49.8648C63.5939 48.104 65.3872 46.5768 67.3824 45.3446L67.3703 45.3324C64.631 42.5932 63.9519 38.4084 65.6844 34.9436L67.2611 31.79C67.7471 30.8181 68.0002 29.7463 68.0002 28.6596V26.5481H65.0002L69.0002 20.5481L73.0002 26.5481H70.0002V28.6596C70.0002 30.0568 69.6748 31.4348 69.05 32.6845L67.4732 35.838C66.1258 38.5329 66.654 41.7877 68.7845 43.9182L69.199 44.3327C71.1178 43.3747 73.1888 42.6758 75.3661 42.2822C74.4443 39.9523 74.5143 37.2838 75.6844 34.9436L77.2611 31.79C77.7471 30.8181 78.0002 29.7463 78.0002 28.6596V26.5481H75.0002L79.0002 20.5481L83.0002 26.5481H80.0002V28.6596C80.0002 30.0568 79.6748 31.4348 79.05 32.6845L77.4732 35.838C76.4853 37.8139 76.5056 40.0908 77.4266 42.0049C78.1097 41.9441 78.8013 41.913 79.5002 41.913C81.5936 41.913 83.6219 42.1917 85.55 42.7139C84.4398 40.2864 84.4413 37.4297 85.6844 34.9436L87.2611 31.79C87.7471 30.8181 88.0002 29.7463 88.0002 28.6596V26.5481H85.0002L89.0002 20.5481L93.0002 26.5481H90.0002V28.6596C90.0002 30.0568 89.6748 31.4348 89.05 32.6845L87.4732 35.838C86.1486 38.4873 86.6366 41.6777 88.6777 43.8091Z" fill="#C1D8FF"/>
</g>
<defs>
<filter id="filter0_d_100_7090" x="33" y="9" width="97.0004" height="60.5481" filterUnits="userSpaceOnUse" color-interpolation-filters="sRGB">
<feFlood flood-opacity="0" result="BackgroundImageFix"/>
<feColorMatrix in="SourceAlpha" type="matrix" values="0 0 0 0 0 0 0 0 0 0 0 0 0 0 0 0 0 0 127 0" result="hardAlpha"/>
<feOffset dx="2" dy="3"/>
<feGaussianBlur stdDeviation="2"/>
<feComposite in2="hardAlpha" operator="out"/>
<feColorMatrix type="matrix" values="0 0 0 0 0 0 0 0 0 0 0 0 0 0 0 0 0 0 0.7 0"/>
<feBlend mode="normal" in2="BackgroundImageFix" result="effect1_dropShadow_100_7090"/>
<feBlend mode="normal" in="SourceGraphic" in2="effect1_dropShadow_100_7090" result="shape"/>
</filter>
</defs>
</svg>
