<svg width="160" height="72" viewBox="0 0 160 72" fill="none" xmlns="http://www.w3.org/2000/svg">
<g filter="url(#filter0_d_100_7092)">
<path fill-rule="evenodd" clip-rule="evenodd" d="M54.5283 15.9952C46.794 19.936 40.1022 25.6514 35 32.674L62.435 52.6066C64.1437 50.2589 66.3251 48.2772 68.8393 46.8016L69.2157 47.178C71.3462 49.3085 71.8744 52.5633 70.5269 55.2582L68.9502 58.4117C68.3253 59.6614 68 61.0394 68 62.4366V62.5481H70V62.4366C70 61.3499 70.253 60.2781 70.739 59.3061L72.3158 56.1526C74.0339 52.7164 73.3802 48.5722 70.6974 45.832C70.0603 46.125 69.4403 46.4488 68.8393 46.8016L67.3702 45.3324C64.6309 42.5932 63.9518 38.4084 65.6843 34.9436L67.261 31.79C67.747 30.8181 68 29.7463 68 28.6596V26.5481H65L69.0001 20.5481L73 26.5481H70V28.6596C70 30.0568 69.6747 31.4348 69.0499 32.6845L67.4731 35.838C66.1257 38.5329 66.6539 41.7877 68.7844 43.9182L70.6299 45.7638C70.6526 45.7864 70.6751 45.8092 70.6975 45.832C72.4697 45.017 74.3743 44.4405 76.3702 44.1436C76.665 44.5629 76.9986 44.9609 77.3701 45.3324L79.2157 47.178C81.3462 49.3085 81.8744 52.5633 80.5269 55.2582L78.9502 58.4117C78.3253 59.6614 78 61.0394 78 62.4366V62.5481H80V62.4366C80 61.3499 80.253 60.2781 80.739 59.3061L82.3158 56.1526C84.0482 52.6877 83.3691 48.503 80.6299 45.7637L78.7909 43.9247C79.0263 43.9169 79.2628 43.913 79.5002 43.913C82.3452 43.913 85.0587 44.4763 87.5352 45.4974L89.2157 47.178C91.3462 49.3085 91.8744 52.5633 90.5269 55.2582L88.9501 58.4117C88.3253 59.6614 88 61.0394 88 62.4366V62.5481H90V62.4366C90 61.3499 90.253 60.2781 90.739 59.3061L92.3158 56.1526C93.566 53.6521 93.5603 50.7767 92.4307 48.3402C90.9447 47.1855 89.3001 46.2252 87.5351 45.4974L87.3702 45.3324C84.6309 42.5932 83.9518 38.4084 85.6843 34.9436L87.261 31.79C87.747 30.8181 88 29.7463 88 28.6596V26.5481H85L89.0001 20.5481L93 26.5481H90V28.6596C90 30.0568 89.6747 31.4348 89.0499 32.6845L87.4731 35.838C86.1257 38.5329 86.6539 41.7877 88.7844 43.9182L90.6299 45.7638C91.3923 46.5262 91.9951 47.4005 92.4308 48.3402C94.001 49.5603 95.3942 50.9975 96.5653 52.6067L124 32.674C118.898 25.6514 112.206 19.936 104.472 15.9952C96.7377 12.0544 88.1806 10 79.5002 10C70.8198 10 62.2626 12.0544 54.5283 15.9952ZM78.7844 43.9182L78.7908 43.9247C77.9713 43.9518 77.1636 44.0256 76.3703 44.1436C74.4911 41.4714 74.1868 37.9386 75.6843 34.9436L77.261 31.79C77.747 30.8181 78 29.7463 78 28.6596V26.5481H75L79.0001 20.5481L83 26.5481H80V28.6596C80 30.0568 79.6747 31.4348 79.0499 32.6845L77.4731 35.838C76.1257 38.5329 76.6539 41.7877 78.7844 43.9182Z" fill="white"/>
</g>
<defs>
<filter id="filter0_d_100_7092" x="33" y="9" width="97.0003" height="60.5481" filterUnits="userSpaceOnUse" color-interpolation-filters="sRGB">
<feFlood flood-opacity="0" result="BackgroundImageFix"/>
<feColorMatrix in="SourceAlpha" type="matrix" values="0 0 0 0 0 0 0 0 0 0 0 0 0 0 0 0 0 0 127 0" result="hardAlpha"/>
<feOffset dx="2" dy="3"/>
<feGaussianBlur stdDeviation="2"/>
<feComposite in2="hardAlpha" operator="out"/>
<feColorMatrix type="matrix" values="0 0 0 0 0 0 0 0 0 0 0 0 0 0 0 0 0 0 0.7 0"/>
<feBlend mode="normal" in2="BackgroundImageFix" result="effect1_dropShadow_100_7092"/>
<feBlend mode="normal" in="SourceGraphic" in2="effect1_dropShadow_100_7092" result="shape"/>
</filter>
</defs>
</svg>
