<svg width="59" height="60" viewBox="0 0 59 60" fill="none" xmlns="http://www.w3.org/2000/svg">
<g filter="url(#filter0_d_38_3414)">
<path fill-rule="evenodd" clip-rule="evenodd" d="M27.3125 10.6875V2.375L29.6875 2.375V10.6875H27.3125ZM2.375 27.3125H9.5V29.6875H2.375V27.3125ZM47.5 27.3125H54.625V29.6875H47.5V27.3125ZM30.5567 34.4375H26.125H15.5156H2.375V36.8125H14.1444L11.3594 41.6363L13.4162 42.8238L16.8868 36.8125H24.7538L19.9546 45.125H11.875V47.5H18.5834L15.4375 52.9488L17.4943 54.1363L21.0994 47.8921L24.3436 53.5113L26.4004 52.3238L22.4706 45.5171L27.4962 36.8125H29.1855L34.4375 45.9093V46.1532L30.8749 52.3238L32.9317 53.5113L35.8791 48.4062L39.1874 54.1363L41.2442 52.9488L38.0983 47.5H42.75V45.125H36.7271L31.9279 36.8125H40.113L43.5837 42.8238L45.6405 41.6363L42.8554 36.8125H54.625V34.4375H41.4842H30.5567ZM46.5532 9.36105L40.6754 15.2389L42.3547 16.9183L48.2326 11.0404L46.5532 9.36105ZM14.6454 16.9184L8.76762 11.0406L10.447 9.36119L16.3248 15.239L14.6454 16.9184ZM40.75 27.3125C40.75 28.1251 40.6709 28.9192 40.5199 29.6875H42.553C42.6826 28.9151 42.75 28.1217 42.75 27.3125C42.75 19.4424 36.3701 13.0625 28.5 13.0625C20.6299 13.0625 14.25 19.4424 14.25 27.3125C14.25 28.1217 14.3174 28.9151 14.447 29.6875H16.4801C16.3291 28.9192 16.25 28.1251 16.25 27.3125C16.25 20.547 21.7345 15.0625 28.5 15.0625C35.2655 15.0625 40.75 20.547 40.75 27.3125Z" fill="#C1D8FF"/>
</g>
<defs>
<filter id="filter0_d_38_3414" x="0.375" y="1.375" width="58.25" height="57.7613" filterUnits="userSpaceOnUse" color-interpolation-filters="sRGB">
<feFlood flood-opacity="0" result="BackgroundImageFix"/>
<feColorMatrix in="SourceAlpha" type="matrix" values="0 0 0 0 0 0 0 0 0 0 0 0 0 0 0 0 0 0 127 0" result="hardAlpha"/>
<feOffset dx="1" dy="2"/>
<feGaussianBlur stdDeviation="1.5"/>
<feComposite in2="hardAlpha" operator="out"/>
<feColorMatrix type="matrix" values="0 0 0 0 0 0 0 0 0 0 0 0 0 0 0 0 0 0 0.7 0"/>
<feBlend mode="normal" in2="BackgroundImageFix" result="effect1_dropShadow_38_3414"/>
<feBlend mode="normal" in="SourceGraphic" in2="effect1_dropShadow_38_3414" result="shape"/>
</filter>
</defs>
</svg>
