<svg width="500" height="500" viewBox="0 0 500 500" fill="none" xmlns="http://www.w3.org/2000/svg">
<g filter="url(#filter0_i_93_7663)">
<rect width="500" height="500" rx="250" fill="url(#paint0_radial_93_7663)" fill-opacity="0.5"/>
<rect x="0.5" y="0.5" width="499" height="499" rx="249.5" stroke="url(#paint1_linear_93_7663)"/>
<path d="M82.7267 103.086L82.4407 105.062H75.4987V110.912H81.5307V112.888H75.4987V119.024H82.9347V121H73.0287V103.086H82.7267ZM93.0069 106.986C94.2549 106.986 95.2255 107.359 95.9189 108.104C96.6295 108.849 96.9849 109.872 96.9849 111.172V121H94.5929V111.51C94.5929 110.539 94.4109 109.855 94.0469 109.456C93.6829 109.057 93.1455 108.858 92.4349 108.858C91.7069 108.858 91.0655 109.066 90.5109 109.482C89.9562 109.898 89.4362 110.496 88.9509 111.276V121H86.5589V107.298H88.6129L88.8209 109.326C89.3062 108.598 89.9042 108.026 90.6149 107.61C91.3429 107.194 92.1402 106.986 93.0069 106.986ZM112.843 107.922C112.323 108.095 111.751 108.208 111.127 108.26C110.503 108.312 109.741 108.338 108.839 108.338C110.451 109.066 111.257 110.219 111.257 111.796C111.257 113.165 110.789 114.283 109.853 115.15C108.917 116.017 107.643 116.45 106.031 116.45C105.407 116.45 104.827 116.363 104.289 116.19C104.081 116.329 103.917 116.519 103.795 116.762C103.674 116.987 103.613 117.221 103.613 117.464C103.613 118.209 104.211 118.582 105.407 118.582H107.591C108.51 118.582 109.325 118.747 110.035 119.076C110.746 119.405 111.292 119.856 111.673 120.428C112.072 121 112.271 121.65 112.271 122.378C112.271 123.713 111.725 124.735 110.633 125.446C109.541 126.174 107.947 126.538 105.849 126.538C104.376 126.538 103.206 126.382 102.339 126.07C101.49 125.775 100.883 125.325 100.519 124.718C100.155 124.111 99.9732 123.331 99.9732 122.378H102.131C102.131 122.933 102.235 123.366 102.443 123.678C102.651 124.007 103.024 124.25 103.561 124.406C104.099 124.579 104.861 124.666 105.849 124.666C107.288 124.666 108.311 124.484 108.917 124.12C109.541 123.773 109.853 123.245 109.853 122.534C109.853 121.893 109.611 121.407 109.125 121.078C108.64 120.749 107.964 120.584 107.097 120.584H104.939C103.778 120.584 102.894 120.341 102.287 119.856C101.698 119.353 101.403 118.729 101.403 117.984C101.403 117.533 101.533 117.1 101.793 116.684C102.053 116.268 102.426 115.895 102.911 115.566C102.114 115.15 101.525 114.639 101.143 114.032C100.779 113.408 100.597 112.654 100.597 111.77C100.597 110.851 100.823 110.028 101.273 109.3C101.741 108.572 102.374 108.009 103.171 107.61C103.986 107.194 104.887 106.986 105.875 106.986C106.95 107.003 107.851 106.969 108.579 106.882C109.307 106.778 109.905 106.648 110.373 106.492C110.859 106.319 111.448 106.076 112.141 105.764L112.843 107.922ZM105.875 108.702C104.974 108.702 104.272 108.988 103.769 109.56C103.284 110.115 103.041 110.851 103.041 111.77C103.041 112.706 103.293 113.46 103.795 114.032C104.298 114.587 105.009 114.864 105.927 114.864C106.863 114.864 107.574 114.595 108.059 114.058C108.562 113.503 108.813 112.732 108.813 111.744C108.813 109.716 107.834 108.702 105.875 108.702ZM117.693 107.298V121H115.301V107.298H117.693ZM116.471 100.72C116.974 100.72 117.381 100.876 117.693 101.188C118.005 101.5 118.161 101.89 118.161 102.358C118.161 102.826 118.005 103.216 117.693 103.528C117.381 103.823 116.974 103.97 116.471 103.97C115.986 103.97 115.587 103.823 115.275 103.528C114.963 103.216 114.807 102.826 114.807 102.358C114.807 101.89 114.963 101.5 115.275 101.188C115.587 100.876 115.986 100.72 116.471 100.72ZM129.087 106.986C130.335 106.986 131.306 107.359 131.999 108.104C132.71 108.849 133.065 109.872 133.065 111.172V121H130.673V111.51C130.673 110.539 130.491 109.855 130.127 109.456C129.763 109.057 129.226 108.858 128.515 108.858C127.787 108.858 127.146 109.066 126.591 109.482C126.036 109.898 125.516 110.496 125.031 111.276V121H122.639V107.298H124.693L124.901 109.326C125.386 108.598 125.984 108.026 126.695 107.61C127.423 107.194 128.22 106.986 129.087 106.986ZM148.221 113.746C148.221 114.145 148.204 114.552 148.169 114.968H139.433C139.537 116.476 139.919 117.585 140.577 118.296C141.236 119.007 142.085 119.362 143.125 119.362C143.784 119.362 144.391 119.267 144.945 119.076C145.5 118.885 146.081 118.582 146.687 118.166L147.727 119.596C146.271 120.74 144.677 121.312 142.943 121.312C141.037 121.312 139.546 120.688 138.471 119.44C137.414 118.192 136.885 116.476 136.885 114.292C136.885 112.871 137.111 111.614 137.561 110.522C138.029 109.413 138.688 108.546 139.537 107.922C140.404 107.298 141.418 106.986 142.579 106.986C144.399 106.986 145.795 107.584 146.765 108.78C147.736 109.976 148.221 111.631 148.221 113.746ZM145.855 113.044C145.855 111.692 145.587 110.661 145.049 109.95C144.512 109.239 143.706 108.884 142.631 108.884C140.673 108.884 139.607 110.323 139.433 113.2H145.855V113.044Z" fill="white"/>
<path d="M217.822 323.536C219.053 323.744 220.05 324.177 220.812 324.836C221.575 325.495 221.956 326.517 221.956 327.904C221.956 331.301 219.59 333 214.858 333H209.918V315.086H214.156C216.427 315.086 218.16 315.459 219.356 316.204C220.57 316.949 221.176 318.085 221.176 319.61C221.176 320.65 220.847 321.517 220.188 322.21C219.547 322.903 218.758 323.345 217.822 323.536ZM212.388 317.036V322.678H215.092C216.132 322.678 216.982 322.427 217.64 321.924C218.316 321.421 218.654 320.711 218.654 319.792C218.654 318.752 218.299 318.033 217.588 317.634C216.895 317.235 215.838 317.036 214.416 317.036H212.388ZM214.858 331.024C216.314 331.024 217.424 330.807 218.186 330.374C218.966 329.941 219.356 329.117 219.356 327.904C219.356 326.725 218.984 325.876 218.238 325.356C217.493 324.836 216.522 324.576 215.326 324.576H212.388V331.024H214.858ZM234.837 329.802C234.837 330.357 234.932 330.773 235.123 331.05C235.313 331.31 235.599 331.509 235.981 331.648L235.435 333.312C234.724 333.225 234.152 333.026 233.719 332.714C233.285 332.402 232.965 331.917 232.757 331.258C231.838 332.627 230.477 333.312 228.675 333.312C227.323 333.312 226.257 332.931 225.477 332.168C224.697 331.405 224.307 330.409 224.307 329.178C224.307 327.722 224.827 326.604 225.867 325.824C226.924 325.044 228.415 324.654 230.339 324.654H232.445V323.64C232.445 322.669 232.211 321.976 231.743 321.56C231.275 321.144 230.555 320.936 229.585 320.936C228.579 320.936 227.349 321.179 225.893 321.664L225.295 319.922C226.993 319.298 228.571 318.986 230.027 318.986C231.639 318.986 232.843 319.385 233.641 320.182C234.438 320.962 234.837 322.08 234.837 323.536V329.802ZM229.221 331.518C230.59 331.518 231.665 330.807 232.445 329.386V326.24H230.651C228.12 326.24 226.855 327.176 226.855 329.048C226.855 329.863 227.054 330.478 227.453 330.894C227.851 331.31 228.441 331.518 229.221 331.518ZM246.665 332.376C245.764 333 244.741 333.312 243.597 333.312C242.436 333.312 241.526 332.983 240.867 332.324C240.226 331.648 239.905 330.677 239.905 329.412V321.144H237.513V319.298H239.905V316.204L242.297 315.918V319.298H245.547L245.287 321.144H242.297V329.308C242.297 330.019 242.419 330.539 242.661 330.868C242.921 331.18 243.346 331.336 243.935 331.336C244.473 331.336 245.079 331.154 245.755 330.79L246.665 332.376ZM256.06 332.376C255.158 333 254.136 333.312 252.992 333.312C251.83 333.312 250.92 332.983 250.262 332.324C249.62 331.648 249.3 330.677 249.3 329.412V321.144H246.908V319.298H249.3V316.204L251.692 315.918V319.298H254.942L254.682 321.144H251.692V329.308C251.692 330.019 251.813 330.539 252.056 330.868C252.316 331.18 252.74 331.336 253.33 331.336C253.867 331.336 254.474 331.154 255.15 330.79L256.06 332.376ZM268.506 325.746C268.506 326.145 268.488 326.552 268.454 326.968H259.718C259.822 328.476 260.203 329.585 260.862 330.296C261.52 331.007 262.37 331.362 263.41 331.362C264.068 331.362 264.675 331.267 265.23 331.076C265.784 330.885 266.365 330.582 266.972 330.166L268.012 331.596C266.556 332.74 264.961 333.312 263.228 333.312C261.321 333.312 259.83 332.688 258.756 331.44C257.698 330.192 257.17 328.476 257.17 326.292C257.17 324.871 257.395 323.614 257.846 322.522C258.314 321.413 258.972 320.546 259.822 319.922C260.688 319.298 261.702 318.986 262.864 318.986C264.684 318.986 266.079 319.584 267.05 320.78C268.02 321.976 268.506 323.631 268.506 325.746ZM266.14 325.044C266.14 323.692 265.871 322.661 265.334 321.95C264.796 321.239 263.99 320.884 262.916 320.884C260.957 320.884 259.891 322.323 259.718 325.2H266.14V325.044ZM278.279 318.986C278.765 318.986 279.215 319.038 279.631 319.142L279.189 321.482C278.773 321.378 278.375 321.326 277.993 321.326C277.144 321.326 276.459 321.638 275.939 322.262C275.419 322.886 275.012 323.857 274.717 325.174V333H272.325V319.298H274.379L274.613 322.08C274.977 321.057 275.471 320.286 276.095 319.766C276.719 319.246 277.447 318.986 278.279 318.986ZM287.841 333.078C287.303 334.673 286.549 335.929 285.579 336.848C284.625 337.784 283.256 338.347 281.471 338.538L281.211 336.666C282.112 336.51 282.831 336.285 283.369 335.99C283.906 335.695 284.331 335.314 284.643 334.846C284.972 334.395 285.275 333.78 285.553 333H284.747L280.145 319.298H282.693L286.359 331.258L289.947 319.298H292.417L287.841 333.078Z" fill="white"/>
<path d="M367.924 103.086L364.284 121H361.112L357.81 105.998L354.482 121H351.388L347.748 103.086H350.166L353.052 118.842L356.51 103.086H359.136L362.672 118.842L365.662 103.086H367.924ZM377.496 106.986C378.744 106.986 379.715 107.359 380.408 108.104C381.119 108.849 381.474 109.872 381.474 111.172V121H379.082V111.51C379.082 110.539 378.891 109.855 378.51 109.456C378.146 109.057 377.609 108.858 376.898 108.858C376.187 108.858 375.555 109.066 375 109.482C374.445 109.898 373.925 110.487 373.44 111.25V121H371.048V101.812L373.44 101.552V109.196C374.515 107.723 375.867 106.986 377.496 106.986ZM396.631 113.746C396.631 114.145 396.613 114.552 396.579 114.968H387.843C387.947 116.476 388.328 117.585 388.987 118.296C389.645 119.007 390.495 119.362 391.535 119.362C392.193 119.362 392.8 119.267 393.355 119.076C393.909 118.885 394.49 118.582 395.097 118.166L396.137 119.596C394.681 120.74 393.086 121.312 391.353 121.312C389.446 121.312 387.955 120.688 386.881 119.44C385.823 118.192 385.295 116.476 385.295 114.292C385.295 112.871 385.52 111.614 385.971 110.522C386.439 109.413 387.097 108.546 387.947 107.922C388.813 107.298 389.827 106.986 390.989 106.986C392.809 106.986 394.204 107.584 395.175 108.78C396.145 109.976 396.631 111.631 396.631 113.746ZM394.265 113.044C394.265 111.692 393.996 110.661 393.459 109.95C392.921 109.239 392.115 108.884 391.041 108.884C389.082 108.884 388.016 110.323 387.843 113.2H394.265V113.044ZM410.798 113.746C410.798 114.145 410.781 114.552 410.746 114.968H402.01C402.114 116.476 402.496 117.585 403.154 118.296C403.813 119.007 404.662 119.362 405.702 119.362C406.361 119.362 406.968 119.267 407.522 119.076C408.077 118.885 408.658 118.582 409.264 118.166L410.304 119.596C408.848 120.74 407.254 121.312 405.52 121.312C403.614 121.312 402.123 120.688 401.048 119.44C399.991 118.192 399.462 116.476 399.462 114.292C399.462 112.871 399.688 111.614 400.138 110.522C400.606 109.413 401.265 108.546 402.114 107.922C402.981 107.298 403.995 106.986 405.156 106.986C406.976 106.986 408.372 107.584 409.342 108.78C410.313 109.976 410.798 111.631 410.798 113.746ZM408.432 113.044C408.432 111.692 408.164 110.661 407.626 109.95C407.089 109.239 406.283 108.884 405.208 108.884C403.25 108.884 402.184 110.323 402.01 113.2H408.432V113.044ZM417.348 121.312C416.464 121.312 415.762 121.052 415.242 120.532C414.74 119.995 414.488 119.249 414.488 118.296V101.786L416.88 101.5V118.244C416.88 118.625 416.941 118.903 417.062 119.076C417.201 119.249 417.426 119.336 417.738 119.336C418.068 119.336 418.362 119.284 418.622 119.18L419.246 120.844C418.674 121.156 418.042 121.312 417.348 121.312ZM425.954 106.986C426.89 106.986 427.73 107.116 428.476 107.376C429.221 107.636 429.932 108.026 430.608 108.546L429.594 110.054C428.97 109.655 428.372 109.361 427.8 109.17C427.245 108.979 426.656 108.884 426.032 108.884C425.252 108.884 424.636 109.049 424.186 109.378C423.735 109.69 423.51 110.123 423.51 110.678C423.51 111.233 423.718 111.666 424.134 111.978C424.567 112.29 425.338 112.593 426.448 112.888C427.973 113.269 429.108 113.789 429.854 114.448C430.616 115.107 430.998 116.008 430.998 117.152C430.998 118.504 430.469 119.535 429.412 120.246C428.372 120.957 427.098 121.312 425.59 121.312C423.51 121.312 421.785 120.714 420.416 119.518L421.69 118.062C422.851 118.946 424.134 119.388 425.538 119.388C426.439 119.388 427.15 119.206 427.67 118.842C428.207 118.461 428.476 117.949 428.476 117.308C428.476 116.84 428.38 116.467 428.19 116.19C427.999 115.895 427.67 115.644 427.202 115.436C426.734 115.211 426.049 114.977 425.148 114.734C423.692 114.353 422.634 113.841 421.976 113.2C421.334 112.559 421.014 111.744 421.014 110.756C421.014 110.045 421.222 109.404 421.638 108.832C422.071 108.243 422.66 107.792 423.406 107.48C424.168 107.151 425.018 106.986 425.954 106.986Z" fill="white"/>
<ellipse cx="389.5" cy="185" rx="26.5" ry="27" fill="white" fill-opacity="0.1"/>
<g filter="url(#filter1_d_93_7663)">
<path fill-rule="evenodd" clip-rule="evenodd" d="M434 185.5C434 210.077 414.077 230 389.5 230C389.237 230 388.975 229.998 388.714 229.993V230.131C388.492 230.046 388.251 230 388 230H334C332.895 230 332 230.895 332 232C332 233.105 332.895 234 334 234H388C388.085 234 388.17 233.995 388.252 233.984C388.667 233.995 389.083 234 389.5 234C416.286 234 438 212.286 438 185.5C438 158.714 416.286 137 389.5 137C362.714 137 341 158.714 341 185.5C341 188.2 341.221 190.849 341.645 193.429H345.704C345.242 190.856 345 188.206 345 185.5C345 160.923 364.923 141 389.5 141C414.077 141 434 160.923 434 185.5ZM403.833 205.276C409.986 200.741 414 193.36 414 185C414 183.081 413.789 181.214 413.388 179.421L397.424 183.698L396.904 183.838C396.967 184.216 397 184.604 397 185C397 187.475 395.716 189.65 393.777 190.895L394.261 191.586L403.833 205.276ZM397.167 182.732L396.669 182.866C395.766 180.043 393.122 178 390 178L389.955 178L389.929 178V177.43V160.143V160.004C401.026 160.198 410.363 167.936 413.151 178.449L397.167 182.732ZM388.929 177.475V178.081C386.16 178.507 383.925 180.555 383.227 183.224L382.325 182.983L365.82 178.56C368.56 168.035 377.856 160.266 388.929 160.007V160.143V177.475ZM383.032 184.207L383.044 184.21C383.015 184.47 383 184.733 383 185C383 188.866 386.134 192 390 192C391.032 192 392.011 191.777 392.893 191.376L393.406 192.109L403.016 205.853C399.138 208.475 394.489 210 389.5 210C384.324 210 379.515 208.359 375.552 205.555L385.334 191.603L385.908 190.784L385.908 190.784L385.882 190.765C385.617 190.578 385.365 190.373 385.13 190.151L385.089 190.21L384.551 190.978L374.747 204.96C368.832 200.403 365 193.169 365 185C365 183.121 365.203 181.292 365.587 179.533L382.101 183.958L383.032 184.207ZM389.5 212C404.136 212 416 199.912 416 185C416 170.088 404.136 158 389.5 158C374.864 158 363 170.088 363 185C363 199.912 374.864 212 389.5 212ZM390 191C393.314 191 396 188.314 396 185C396 181.686 393.314 179 390 179C386.686 179 384 181.686 384 185C384 188.314 386.686 191 390 191ZM317 218C317 216.895 317.895 216 319 216H375V220H319C317.895 220 317 219.105 317 218ZM305 203C303.895 203 303 203.895 303 205C303 206.105 303.895 207 305 207H360V203H305Z" fill="white"/>
</g>
<g filter="url(#filter2_d_93_7663)">
<path d="M76.4869 143H128.439V148.191H113.503V153.382H131.036V161.168H140.777V177.389H147.271L152.466 162.466H166.753C166.753 162.466 170 182.176 170 194.908C170 207.641 166.753 227.351 166.753 227.351H152.466L147.271 212.427H144.674L139.478 228H85.2538L73.5646 212.427H58.9532V192.015H55.7062V209.183H50V165.061H55.7062V181.58H58.9532V161.168H72.5905V153.382H91.423V148.191H76.4869V143Z" fill="white" fill-opacity="0.1" shape-rendering="crispEdges"/>
<path d="M165.282 223.778C165.193 224.376 165.113 224.904 165.044 225.351H153.888L149.16 211.77L148.693 210.427H147.271H144.674H143.232L142.776 211.795L138.037 226H86.2533L75.1642 211.227L74.5641 210.427H73.5646H60.9532V192.015V190.015H58.9532H55.7062H53.7062V192.015V207.183H52V167.061H53.7062V181.58V183.58H55.7062H58.9532H60.9532V181.58V163.168H72.5905H74.5905V161.168V155.382H91.423H93.423V153.382V148.191V146.191H91.423H78.4869V145H126.439V146.191H113.503H111.503V148.191V153.382V155.382H113.503H129.036V161.168V163.168H131.036H138.777V177.389V179.389H140.777H147.271H148.693L149.16 178.047L153.888 164.466H165.044C165.113 164.913 165.193 165.44 165.282 166.038C165.585 168.073 165.988 170.919 166.392 174.159C167.202 180.663 168 188.672 168 194.908C168 201.145 167.202 209.153 166.392 215.657C165.988 218.898 165.585 221.743 165.282 223.778Z" stroke="white" stroke-width="4" shape-rendering="crispEdges"/>
</g>
</g>
<defs>
<filter id="filter0_i_93_7663" x="0" y="0" width="501" height="502" filterUnits="userSpaceOnUse" color-interpolation-filters="sRGB">
<feFlood flood-opacity="0" result="BackgroundImageFix"/>
<feBlend mode="normal" in="SourceGraphic" in2="BackgroundImageFix" result="shape"/>
<feColorMatrix in="SourceAlpha" type="matrix" values="0 0 0 0 0 0 0 0 0 0 0 0 0 0 0 0 0 0 127 0" result="hardAlpha"/>
<feOffset dx="1" dy="2"/>
<feGaussianBlur stdDeviation="8"/>
<feComposite in2="hardAlpha" operator="arithmetic" k2="-1" k3="1"/>
<feColorMatrix type="matrix" values="0 0 0 0 0 0 0 0 0 0 0 0 0 0 0 0 0 0 0.5 0"/>
<feBlend mode="normal" in2="shape" result="effect1_innerShadow_93_7663"/>
</filter>
<filter id="filter1_d_93_7663" x="301" y="136" width="141" height="103" filterUnits="userSpaceOnUse" color-interpolation-filters="sRGB">
<feFlood flood-opacity="0" result="BackgroundImageFix"/>
<feColorMatrix in="SourceAlpha" type="matrix" values="0 0 0 0 0 0 0 0 0 0 0 0 0 0 0 0 0 0 127 0" result="hardAlpha"/>
<feOffset dx="1" dy="2"/>
<feGaussianBlur stdDeviation="1.5"/>
<feComposite in2="hardAlpha" operator="out"/>
<feColorMatrix type="matrix" values="0 0 0 0 0 0 0 0 0 0 0 0 0 0 0 0 0 0 0.7 0"/>
<feBlend mode="normal" in2="BackgroundImageFix" result="effect1_dropShadow_93_7663"/>
<feBlend mode="normal" in="SourceGraphic" in2="effect1_dropShadow_93_7663" result="shape"/>
</filter>
<filter id="filter2_d_93_7663" x="48" y="142" width="126" height="91" filterUnits="userSpaceOnUse" color-interpolation-filters="sRGB">
<feFlood flood-opacity="0" result="BackgroundImageFix"/>
<feColorMatrix in="SourceAlpha" type="matrix" values="0 0 0 0 0 0 0 0 0 0 0 0 0 0 0 0 0 0 127 0" result="hardAlpha"/>
<feOffset dx="1" dy="2"/>
<feGaussianBlur stdDeviation="1.5"/>
<feComposite in2="hardAlpha" operator="out"/>
<feColorMatrix type="matrix" values="0 0 0 0 0 0 0 0 0 0 0 0 0 0 0 0 0 0 0.7 0"/>
<feBlend mode="normal" in2="BackgroundImageFix" result="effect1_dropShadow_93_7663"/>
<feBlend mode="normal" in="SourceGraphic" in2="effect1_dropShadow_93_7663" result="shape"/>
</filter>
<radialGradient id="paint0_radial_93_7663" cx="0" cy="0" r="1" gradientUnits="userSpaceOnUse" gradientTransform="translate(250 250) rotate(90) scale(250)">
<stop stop-color="#0C1039"/>
<stop offset="1"/>
<stop offset="1"/>
</radialGradient>
<linearGradient id="paint1_linear_93_7663" x1="0" y1="0" x2="591.921" y2="160.055" gradientUnits="userSpaceOnUse">
<stop stop-color="#C1D8FF" stop-opacity="0.2"/>
<stop offset="1" stop-color="#C1D8FF"/>
</linearGradient>
</defs>
</svg>
