<svg width="500" height="500" viewBox="0 0 500 500" fill="none" xmlns="http://www.w3.org/2000/svg">
<g filter="url(#filter0_i_93_7663)">
<rect width="500" height="500" rx="250" fill="url(#paint0_radial_93_7663)" fill-opacity="0.5"/>
<path fill-rule="evenodd" clip-rule="evenodd" d="M384.304 261.068C380.996 301.835 359.576 337.481 328.102 359.95L354.21 396.589C375.54 381.389 393.295 361.718 406.238 338.949C419.18 316.179 426.998 290.859 429.145 264.756L384.304 261.068Z" fill="#2962FF"/>
<path fill-rule="evenodd" clip-rule="evenodd" d="M115.207 261.172L70.3706 264.894C72.5382 291 80.3778 316.319 93.3421 339.082C106.306 361.845 124.083 381.503 145.43 396.686L171.504 360.024C140 337.579 118.546 301.94 115.207 261.172Z" fill="#2962FF"/>
<path fill-rule="evenodd" clip-rule="evenodd" d="M245.752 70.0444C219.562 70.6265 193.816 76.9178 170.309 88.4792L190.156 128.832C208.13 119.976 228.359 115 249.751 115C269.011 115 287.328 119.033 303.905 126.301L321.939 85.1094C297.942 74.6037 271.941 69.4624 245.752 70.0444Z" fill="#2962FF"/>
<path d="M85.0195 104.392L84.6355 106.96H78.6355V111.28H83.8675V113.824H78.6355V118.408H85.0675V121H75.1075V104.392H85.0195ZM94.5848 107.896C95.7048 107.896 96.5768 108.24 97.2008 108.928C97.8248 109.6 98.1368 110.536 98.1368 111.736V121H94.7288V112.312C94.7288 111.624 94.6088 111.144 94.3688 110.872C94.1448 110.584 93.8008 110.44 93.3368 110.44C92.8568 110.44 92.4168 110.592 92.0168 110.896C91.6328 111.184 91.2568 111.624 90.8888 112.216V121H87.4808V108.28H90.4328L90.6968 109.888C91.2248 109.232 91.8008 108.736 92.4248 108.4C93.0648 108.064 93.7848 107.896 94.5848 107.896ZM112.755 108.976C111.923 109.296 110.699 109.456 109.083 109.456C109.883 109.808 110.475 110.248 110.859 110.776C111.243 111.288 111.435 111.936 111.435 112.72C111.435 113.536 111.219 114.272 110.787 114.928C110.371 115.568 109.763 116.072 108.963 116.44C108.179 116.808 107.259 116.992 106.203 116.992C105.643 116.992 105.147 116.936 104.715 116.824C104.395 117.032 104.235 117.312 104.235 117.664C104.235 117.92 104.331 118.128 104.523 118.288C104.731 118.432 105.123 118.504 105.699 118.504H107.643C108.587 118.504 109.411 118.664 110.115 118.984C110.835 119.288 111.387 119.72 111.771 120.28C112.171 120.824 112.371 121.448 112.371 122.152C112.371 123.448 111.811 124.456 110.691 125.176C109.587 125.912 107.987 126.28 105.891 126.28C104.387 126.28 103.195 126.12 102.315 125.8C101.451 125.496 100.843 125.048 100.491 124.456C100.139 123.864 99.9632 123.12 99.9632 122.224H103.011C103.011 122.64 103.091 122.968 103.251 123.208C103.411 123.464 103.699 123.648 104.115 123.76C104.547 123.888 105.163 123.952 105.963 123.952C107.067 123.952 107.835 123.816 108.267 123.544C108.715 123.272 108.939 122.888 108.939 122.392C108.939 121.944 108.771 121.6 108.435 121.36C108.099 121.12 107.603 121 106.947 121H105.075C103.811 121 102.867 120.768 102.243 120.304C101.619 119.824 101.307 119.224 101.307 118.504C101.307 118.056 101.435 117.624 101.691 117.208C101.963 116.776 102.331 116.416 102.795 116.128C102.011 115.696 101.435 115.192 101.067 114.616C100.715 114.024 100.539 113.32 100.539 112.504C100.539 111.576 100.763 110.768 101.211 110.08C101.675 109.376 102.315 108.84 103.131 108.472C103.963 108.088 104.907 107.896 105.963 107.896C107.275 107.928 108.355 107.816 109.203 107.56C110.051 107.304 110.955 106.904 111.915 106.36L112.755 108.976ZM106.035 110.176C105.395 110.176 104.883 110.384 104.499 110.8C104.131 111.2 103.947 111.752 103.947 112.456C103.947 113.176 104.131 113.744 104.499 114.16C104.883 114.576 105.403 114.784 106.059 114.784C106.747 114.784 107.267 114.584 107.619 114.184C107.971 113.784 108.147 113.192 108.147 112.408C108.147 110.92 107.443 110.176 106.035 110.176ZM117.842 108.28V121H114.434V108.28H117.842ZM116.114 101.728C116.722 101.728 117.218 101.92 117.602 102.304C118.002 102.672 118.202 103.144 118.202 103.72C118.202 104.296 118.002 104.776 117.602 105.16C117.218 105.528 116.722 105.712 116.114 105.712C115.506 105.712 115.01 105.528 114.626 105.16C114.242 104.776 114.05 104.296 114.05 103.72C114.05 103.144 114.242 102.672 114.626 102.304C115.01 101.92 115.506 101.728 116.114 101.728ZM128.311 107.896C129.431 107.896 130.303 108.24 130.927 108.928C131.551 109.6 131.863 110.536 131.863 111.736V121H128.455V112.312C128.455 111.624 128.335 111.144 128.095 110.872C127.871 110.584 127.527 110.44 127.063 110.44C126.583 110.44 126.143 110.592 125.743 110.896C125.359 111.184 124.983 111.624 124.615 112.216V121H121.207V108.28H124.159L124.423 109.888C124.951 109.232 125.527 108.736 126.151 108.4C126.791 108.064 127.511 107.896 128.311 107.896ZM145.858 114.352C145.858 114.512 145.834 114.952 145.786 115.672H137.842C137.954 116.824 138.266 117.64 138.778 118.12C139.29 118.6 139.986 118.84 140.866 118.84C141.41 118.84 141.922 118.752 142.402 118.576C142.882 118.4 143.402 118.12 143.962 117.736L145.378 119.656C143.954 120.808 142.346 121.384 140.554 121.384C138.554 121.384 137.018 120.784 135.946 119.584C134.874 118.384 134.338 116.76 134.338 114.712C134.338 113.416 134.562 112.256 135.01 111.232C135.474 110.192 136.138 109.376 137.002 108.784C137.882 108.192 138.922 107.896 140.122 107.896C141.93 107.896 143.338 108.464 144.346 109.6C145.354 110.736 145.858 112.32 145.858 114.352ZM142.474 113.392C142.474 111.28 141.714 110.224 140.194 110.224C139.49 110.224 138.938 110.488 138.538 111.016C138.154 111.528 137.922 112.368 137.842 113.536H142.474V113.392Z" fill="white"/>
<path d="M220.365 324.216C221.485 324.424 222.389 324.832 223.077 325.44C223.781 326.032 224.133 326.944 224.133 328.176C224.133 329.92 223.509 331.16 222.261 331.896C221.013 332.632 219.277 333 217.053 333H211.869V316.392H216.405C218.677 316.392 220.413 316.728 221.613 317.4C222.813 318.072 223.413 319.152 223.413 320.64C223.413 321.616 223.117 322.408 222.525 323.016C221.949 323.608 221.229 324.008 220.365 324.216ZM215.397 318.936V323.136H217.125C217.989 323.136 218.653 322.96 219.117 322.608C219.581 322.24 219.813 321.688 219.813 320.952C219.813 320.216 219.565 319.696 219.069 319.392C218.573 319.088 217.797 318.936 216.741 318.936H215.397ZM217.077 330.384C218.181 330.384 219.021 330.224 219.597 329.904C220.173 329.568 220.461 328.944 220.461 328.032C220.461 326.368 219.437 325.536 217.389 325.536H215.397V330.384H217.077ZM236.283 329.472C236.283 329.968 236.355 330.336 236.499 330.576C236.643 330.8 236.883 330.968 237.219 331.08L236.499 333.336C235.747 333.272 235.131 333.096 234.651 332.808C234.187 332.52 233.827 332.072 233.571 331.464C232.739 332.744 231.467 333.384 229.755 333.384C228.491 333.384 227.483 333.024 226.731 332.304C225.995 331.568 225.627 330.616 225.627 329.448C225.627 328.056 226.131 326.992 227.139 326.256C228.147 325.52 229.595 325.152 231.483 325.152H232.947V324.528C232.947 323.744 232.771 323.2 232.419 322.896C232.067 322.592 231.483 322.44 230.667 322.44C229.771 322.44 228.651 322.664 227.307 323.112L226.539 320.832C228.123 320.208 229.691 319.896 231.243 319.896C232.971 319.896 234.243 320.272 235.059 321.024C235.875 321.76 236.283 322.864 236.283 324.336V329.472ZM230.691 330.936C231.651 330.936 232.403 330.464 232.947 329.52V327.096H231.819C229.979 327.096 229.059 327.784 229.059 329.16C229.059 329.72 229.195 330.16 229.467 330.48C229.755 330.784 230.163 330.936 230.691 330.936ZM247.296 332.4C246.832 332.72 246.304 332.96 245.712 333.12C245.136 333.296 244.56 333.384 243.984 333.384C242.672 333.368 241.68 332.992 241.008 332.256C240.336 331.52 240 330.44 240 329.016V322.68H238.104V320.28H240V317.496L243.408 317.088V320.28H246.336L246 322.68H243.408V328.944C243.408 329.552 243.512 329.992 243.72 330.264C243.928 330.536 244.248 330.672 244.68 330.672C245.112 330.672 245.592 330.528 246.12 330.24L247.296 332.4ZM256.413 332.4C255.949 332.72 255.421 332.96 254.829 333.12C254.253 333.296 253.677 333.384 253.101 333.384C251.789 333.368 250.797 332.992 250.125 332.256C249.453 331.52 249.117 330.44 249.117 329.016V322.68H247.221V320.28H249.117V317.496L252.525 317.088V320.28H255.453L255.117 322.68H252.525V328.944C252.525 329.552 252.629 329.992 252.837 330.264C253.045 330.536 253.365 330.672 253.797 330.672C254.229 330.672 254.709 330.528 255.237 330.24L256.413 332.4ZM268.276 326.352C268.276 326.512 268.252 326.952 268.204 327.672H260.26C260.372 328.824 260.684 329.64 261.196 330.12C261.708 330.6 262.404 330.84 263.284 330.84C263.828 330.84 264.34 330.752 264.82 330.576C265.3 330.4 265.82 330.12 266.38 329.736L267.796 331.656C266.372 332.808 264.764 333.384 262.972 333.384C260.972 333.384 259.436 332.784 258.364 331.584C257.292 330.384 256.756 328.76 256.756 326.712C256.756 325.416 256.98 324.256 257.428 323.232C257.892 322.192 258.556 321.376 259.42 320.784C260.3 320.192 261.34 319.896 262.54 319.896C264.348 319.896 265.756 320.464 266.764 321.6C267.772 322.736 268.276 324.32 268.276 326.352ZM264.892 325.392C264.892 323.28 264.132 322.224 262.612 322.224C261.908 322.224 261.356 322.488 260.956 323.016C260.572 323.528 260.34 324.368 260.26 325.536H264.892V325.392ZM277.319 319.92C277.703 319.92 278.127 319.984 278.591 320.112L278.015 323.4C277.567 323.288 277.191 323.232 276.887 323.232C276.135 323.232 275.551 323.496 275.135 324.024C274.719 324.552 274.391 325.352 274.151 326.424V333H270.743V320.28H273.695L274.007 322.752C274.311 321.856 274.751 321.16 275.327 320.664C275.919 320.168 276.583 319.92 277.319 319.92ZM286.834 333.024C286.322 334.64 285.514 335.888 284.41 336.768C283.322 337.648 281.842 338.152 279.97 338.28L279.61 335.832C280.826 335.672 281.714 335.384 282.274 334.968C282.85 334.552 283.322 333.896 283.69 333H282.514L278.554 320.28H282.178L284.722 330.792L287.41 320.28H290.938L286.834 333.024Z" fill="white"/>
<ellipse cx="389.5" cy="179" rx="26.5" ry="27" fill="white" fill-opacity="0.1"/>
<g filter="url(#filter1_d_93_7663)">
<path fill-rule="evenodd" clip-rule="evenodd" d="M434 179.5C434 204.077 414.077 224 389.5 224C389.237 224 388.975 223.998 388.714 223.993V224.131C388.492 224.046 388.251 224 388 224H334C332.895 224 332 224.895 332 226C332 227.105 332.895 228 334 228H388C388.085 228 388.17 227.995 388.252 227.984C388.667 227.995 389.083 228 389.5 228C416.286 228 438 206.286 438 179.5C438 152.714 416.286 131 389.5 131C362.714 131 341 152.714 341 179.5C341 182.2 341.221 184.849 341.645 187.429H345.704C345.242 184.856 345 182.206 345 179.5C345 154.923 364.923 135 389.5 135C414.077 135 434 154.923 434 179.5ZM403.833 199.276C409.986 194.741 414 187.36 414 179C414 177.081 413.789 175.214 413.388 173.421L397.424 177.698L396.904 177.838C396.967 178.216 397 178.604 397 179C397 181.475 395.716 183.65 393.777 184.895L394.261 185.586L403.833 199.276ZM397.167 176.732L396.669 176.865C395.766 174.043 393.122 172 390 172C389.976 172 389.952 172 389.929 172V171.43V154.143V154.004C401.026 154.198 410.363 161.936 413.151 172.449L397.167 176.732ZM388.929 171.475V172.081C386.159 172.507 383.925 174.555 383.227 177.224L382.325 176.983L365.82 172.56C368.56 162.035 377.855 154.266 388.929 154.007V154.143V171.475ZM383.033 178.207L383.044 178.211C383.015 178.47 383 178.733 383 179C383 182.866 386.134 186 390 186C391.032 186 392.011 185.777 392.893 185.376L393.406 186.109L403.017 199.853C399.138 202.475 394.489 204 389.5 204C384.324 204 379.515 202.359 375.552 199.555L385.334 185.602L385.908 184.783L385.882 184.765C385.617 184.578 385.365 184.373 385.13 184.151L385.089 184.209L384.551 184.977L374.747 198.96C368.832 194.403 365 187.169 365 179C365 177.121 365.203 175.292 365.587 173.533L382.101 177.958L383.033 178.207ZM389.5 206C404.136 206 416 193.912 416 179C416 164.088 404.136 152 389.5 152C374.864 152 363 164.088 363 179C363 193.912 374.864 206 389.5 206ZM390 185C393.314 185 396 182.314 396 179C396 175.686 393.314 173 390 173C386.686 173 384 175.686 384 179C384 182.314 386.686 185 390 185ZM317 212C317 210.895 317.895 210 319 210H375V214H319C317.895 214 317 213.105 317 212ZM305 197C303.895 197 303 197.895 303 199C303 200.105 303.895 201 305 201H360V197H305Z" fill="white"/>
</g>
<g filter="url(#filter2_d_93_7663)">
<path d="M76.4869 143H128.439V148.191H113.503V153.382H131.036V161.168H140.777V177.389H147.271L152.466 162.466H166.753C166.753 162.466 170 182.176 170 194.908C170 207.641 166.753 227.351 166.753 227.351H152.466L147.271 212.427H144.674L139.478 228H85.2538L73.5646 212.427H58.9532V192.015H55.7062V209.183H50V165.061H55.7062V181.58H58.9532V161.168H72.5905V153.382H91.423V148.191H76.4869V143Z" fill="white" fill-opacity="0.1" shape-rendering="crispEdges"/>
<path d="M165.282 223.778C165.193 224.376 165.113 224.904 165.044 225.351H153.888L149.16 211.77L148.693 210.427H147.271H144.674H143.232L142.776 211.795L138.037 226H86.2533L75.1642 211.227L74.5641 210.427H73.5646H60.9532V192.015V190.015H58.9532H55.7062H53.7062V192.015V207.183H52V167.061H53.7062V181.58V183.58H55.7062H58.9532H60.9532V181.58V163.168H72.5905H74.5905V161.168V155.382H91.423H93.423V153.382V148.191V146.191H91.423H78.4869V145H126.439V146.191H113.503H111.503V148.191V153.382V155.382H113.503H129.036V161.168V163.168H131.036H138.777V177.389V179.389H140.777H147.271H148.693L149.16 178.047L153.888 164.466H165.044C165.113 164.913 165.193 165.44 165.282 166.038C165.585 168.073 165.988 170.919 166.392 174.159C167.202 180.663 168 188.672 168 194.908C168 201.145 167.202 209.153 166.392 215.657C165.988 218.898 165.585 221.743 165.282 223.778Z" stroke="white" stroke-width="4" shape-rendering="crispEdges"/>
</g>
<g filter="url(#filter3_d_93_7663)">
<g filter="url(#filter4_d_93_7663)">
<rect x="216" y="360" width="68" height="90" rx="6" stroke="white" stroke-width="4" shape-rendering="crispEdges"/>
</g>
<rect width="30" height="3" transform="matrix(1 0 0 -1 236 358)" fill="white"/>
<rect width="48" height="12" transform="matrix(1 0 0 -1 226 384)" fill="white"/>
<rect width="48" height="12" transform="matrix(1 0 0 -1 226 420)" fill="white"/>
<rect width="48" height="12" transform="matrix(1 0 0 -1 226 402)" fill="white"/>
<rect width="48" height="12" transform="matrix(1 0 0 -1 226 438)" fill="white"/>
</g>
<rect x="0.5" y="0.5" width="499" height="499" rx="249.5" stroke="url(#paint1_linear_93_7663)"/>
</g>
<defs>
<filter id="filter0_i_93_7663" x="0" y="0" width="501" height="502" filterUnits="userSpaceOnUse" color-interpolation-filters="sRGB">
<feFlood flood-opacity="0" result="BackgroundImageFix"/>
<feBlend mode="normal" in="SourceGraphic" in2="BackgroundImageFix" result="shape"/>
<feColorMatrix in="SourceAlpha" type="matrix" values="0 0 0 0 0 0 0 0 0 0 0 0 0 0 0 0 0 0 127 0" result="hardAlpha"/>
<feOffset dx="1" dy="2"/>
<feGaussianBlur stdDeviation="8"/>
<feComposite in2="hardAlpha" operator="arithmetic" k2="-1" k3="1"/>
<feColorMatrix type="matrix" values="0 0 0 0 0 0 0 0 0 0 0 0 0 0 0 0 0 0 0.5 0"/>
<feBlend mode="normal" in2="shape" result="effect1_innerShadow_93_7663"/>
</filter>
<filter id="filter1_d_93_7663" x="301" y="130" width="143" height="105" filterUnits="userSpaceOnUse" color-interpolation-filters="sRGB">
<feFlood flood-opacity="0" result="BackgroundImageFix"/>
<feColorMatrix in="SourceAlpha" type="matrix" values="0 0 0 0 0 0 0 0 0 0 0 0 0 0 0 0 0 0 127 0" result="hardAlpha"/>
<feOffset dx="2" dy="3"/>
<feGaussianBlur stdDeviation="2"/>
<feComposite in2="hardAlpha" operator="out"/>
<feColorMatrix type="matrix" values="0 0 0 0 0 0 0 0 0 0 0 0 0 0 0 0 0 0 0.7 0"/>
<feBlend mode="normal" in2="BackgroundImageFix" result="effect1_dropShadow_93_7663"/>
<feBlend mode="normal" in="SourceGraphic" in2="effect1_dropShadow_93_7663" result="shape"/>
</filter>
<filter id="filter2_d_93_7663" x="48" y="142" width="128" height="93" filterUnits="userSpaceOnUse" color-interpolation-filters="sRGB">
<feFlood flood-opacity="0" result="BackgroundImageFix"/>
<feColorMatrix in="SourceAlpha" type="matrix" values="0 0 0 0 0 0 0 0 0 0 0 0 0 0 0 0 0 0 127 0" result="hardAlpha"/>
<feOffset dx="2" dy="3"/>
<feGaussianBlur stdDeviation="2"/>
<feComposite in2="hardAlpha" operator="out"/>
<feColorMatrix type="matrix" values="0 0 0 0 0 0 0 0 0 0 0 0 0 0 0 0 0 0 0.7 0"/>
<feBlend mode="normal" in2="BackgroundImageFix" result="effect1_dropShadow_93_7663"/>
<feBlend mode="normal" in="SourceGraphic" in2="effect1_dropShadow_93_7663" result="shape"/>
</filter>
<filter id="filter3_d_93_7663" x="212" y="354" width="80" height="105" filterUnits="userSpaceOnUse" color-interpolation-filters="sRGB">
<feFlood flood-opacity="0" result="BackgroundImageFix"/>
<feColorMatrix in="SourceAlpha" type="matrix" values="0 0 0 0 0 0 0 0 0 0 0 0 0 0 0 0 0 0 127 0" result="hardAlpha"/>
<feOffset dx="2" dy="3"/>
<feGaussianBlur stdDeviation="2"/>
<feComposite in2="hardAlpha" operator="out"/>
<feColorMatrix type="matrix" values="0 0 0 0 0 0 0 0 0 0 0 0 0 0 0 0 0 0 0.7 0"/>
<feBlend mode="normal" in2="BackgroundImageFix" result="effect1_dropShadow_93_7663"/>
<feBlend mode="normal" in="SourceGraphic" in2="effect1_dropShadow_93_7663" result="shape"/>
</filter>
<filter id="filter4_d_93_7663" x="212" y="357" width="80" height="102" filterUnits="userSpaceOnUse" color-interpolation-filters="sRGB">
<feFlood flood-opacity="0" result="BackgroundImageFix"/>
<feColorMatrix in="SourceAlpha" type="matrix" values="0 0 0 0 0 0 0 0 0 0 0 0 0 0 0 0 0 0 127 0" result="hardAlpha"/>
<feOffset dx="2" dy="3"/>
<feGaussianBlur stdDeviation="2"/>
<feComposite in2="hardAlpha" operator="out"/>
<feColorMatrix type="matrix" values="0 0 0 0 0 0 0 0 0 0 0 0 0 0 0 0 0 0 0.7 0"/>
<feBlend mode="normal" in2="BackgroundImageFix" result="effect1_dropShadow_93_7663"/>
<feBlend mode="normal" in="SourceGraphic" in2="effect1_dropShadow_93_7663" result="shape"/>
</filter>
<radialGradient id="paint0_radial_93_7663" cx="0" cy="0" r="1" gradientUnits="userSpaceOnUse" gradientTransform="translate(250 250) rotate(90) scale(250)">
<stop stop-color="#0C1039"/>
<stop offset="1"/>
<stop offset="1"/>
</radialGradient>
<linearGradient id="paint1_linear_93_7663" x1="0" y1="0" x2="591.921" y2="160.055" gradientUnits="userSpaceOnUse">
<stop stop-color="#C1D8FF" stop-opacity="0.2"/>
<stop offset="1" stop-color="#C1D8FF"/>
</linearGradient>
</defs>
</svg>
