<?xml version="1.0" encoding="UTF-8"?>
<svg xmlns="http://www.w3.org/2000/svg" xmlns:xlink="http://www.w3.org/1999/xlink" width="400px" height="98px" viewBox="0 0 400 98" version="1.1">
<g id="surface1">
<path style=" stroke:none;fill-rule:evenodd;fill:rgb(2.352941%,47.45098%,92.156863%);fill-opacity:1;" d="M 36.863281 15.125 C 37.496094 15.367188 38.128906 15.628906 38.761719 15.914062 C 39.425781 16.210938 40.101562 16.476562 40.792969 16.703125 C 41.613281 16.960938 42.464844 17.082031 43.320312 17.066406 C 44.433594 17.078125 45.539062 16.914062 46.597656 16.570312 C 47.636719 16.203125 48.59375 15.636719 49.417969 14.902344 L 53.980469 11.074219 C 52.789062 9.644531 51.507812 8.289062 50.140625 7.019531 C 48.734375 5.703125 47.207031 4.523438 45.582031 3.484375 C 43.957031 2.449219 42.222656 1.605469 40.410156 0.960938 C 38.605469 0.320312 36.703125 -0.0078125 34.785156 -0.0078125 C 32.15625 -0.0078125 29.539062 0.410156 27.039062 1.230469 C 24.609375 2.011719 22.335938 3.226562 20.332031 4.8125 C 18.375 6.371094 16.769531 8.328125 15.613281 10.554688 C 14.394531 12.957031 13.78125 15.625 13.832031 18.324219 C 13.832031 21.417969 14.363281 24.007812 15.433594 26.09375 C 16.460938 28.125 17.878906 29.933594 19.609375 31.40625 C 21.375 32.894531 23.335938 34.128906 25.4375 35.078125 C 27.605469 36.066406 29.804688 36.984375 32.03125 37.824219 C 33.386719 38.363281 34.679688 38.832031 35.914062 39.21875 C 37.035156 39.566406 38.132812 39.996094 39.1875 40.503906 C 40.042969 40.898438 40.808594 41.457031 41.449219 42.148438 C 42.019531 42.824219 42.320312 43.691406 42.28125 44.582031 C 42.300781 45.578125 41.980469 46.554688 41.378906 47.351562 C 40.757812 48.164062 39.980469 48.84375 39.097656 49.355469 C 38.164062 49.902344 37.160156 50.320312 36.117188 50.59375 C 35.152344 50.863281 34.15625 51.007812 33.15625 51.023438 C 31.90625 51.046875 30.667969 50.769531 29.542969 50.210938 C 28.492188 49.671875 27.46875 49.085938 26.472656 48.457031 C 25.480469 47.824219 24.464844 47.238281 23.425781 46.699219 C 22.339844 46.148438 21.140625 45.871094 19.925781 45.886719 C 19.046875 45.890625 18.171875 46.019531 17.328125 46.269531 C 16.488281 46.519531 15.679688 46.859375 14.910156 47.285156 L 10.214844 49.988281 C 11.054688 52.265625 12.246094 54.398438 13.738281 56.3125 C 15.230469 58.234375 17.003906 59.921875 19 61.3125 C 21.023438 62.71875 23.246094 63.820312 25.59375 64.578125 C 28.039062 65.367188 30.589844 65.761719 33.160156 65.75 C 36.222656 65.757812 39.265625 65.230469 42.148438 64.195312 C 44.9375 63.21875 47.53125 61.746094 49.800781 59.847656 C 52.003906 58.003906 53.8125 55.726562 55.109375 53.160156 C 56.449219 50.5 57.132812 47.558594 57.097656 44.582031 C 57.183594 40.019531 55.527344 35.597656 52.46875 32.21875 C 50.9375 30.527344 49.15625 29.082031 47.183594 27.941406 C 45.015625 26.679688 42.722656 25.644531 40.339844 24.855469 C 38.382812 24.195312 36.675781 23.664062 35.214844 23.257812 C 33.972656 22.925781 32.75 22.519531 31.554688 22.039062 C 30.730469 21.734375 29.980469 21.25 29.363281 20.621094 C 28.851562 19.988281 28.59375 19.183594 28.640625 18.367188 C 28.628906 17.785156 28.808594 17.214844 29.160156 16.746094 C 29.535156 16.277344 30.003906 15.890625 30.539062 15.621094 C 31.15625 15.304688 31.820312 15.085938 32.503906 14.96875 C 33.257812 14.832031 34.019531 14.765625 34.785156 14.765625 C 35.492188 14.757812 36.199219 14.878906 36.863281 15.125 Z M 36.863281 15.125 "/>
<path style=" stroke:none;fill-rule:evenodd;fill:rgb(2.352941%,47.45098%,92.156863%);fill-opacity:1;" d="M 58.988281 65.164062 L 68.5625 65.164062 C 69.511719 65.160156 70.457031 65.015625 71.363281 64.734375 C 72.289062 64.453125 73.167969 64.042969 73.980469 63.519531 C 74.785156 63.003906 75.519531 62.390625 76.171875 61.695312 C 76.800781 61.035156 77.3125 60.273438 77.6875 59.441406 L 80.757812 52.28125 L 106.5 52.28125 L 109.660156 59.441406 C 110.039062 60.324219 110.558594 61.136719 111.195312 61.851562 C 111.816406 62.546875 112.53125 63.15625 113.320312 63.652344 C 114.109375 64.152344 114.96875 64.53125 115.871094 64.78125 C 116.804688 65.035156 117.769531 65.164062 118.738281 65.164062 L 128.265625 65.164062 L 99.996094 0.625 L 87.261719 0.625 Z M 92.367188 25.394531 C 92.605469 24.792969 92.808594 24.222656 92.976562 23.683594 C 93.140625 23.144531 93.269531 22.664062 93.359375 22.242188 C 93.480469 21.730469 93.570312 21.265625 93.628906 20.847656 C 93.664062 21.300781 93.742188 21.753906 93.855469 22.199219 C 93.945312 22.617188 94.066406 23.097656 94.21875 23.636719 C 94.390625 24.238281 94.601562 24.824219 94.851562 25.394531 L 100.496094 38.90625 L 86.671875 38.90625 Z M 92.367188 25.394531 "/>
<path style=" stroke:none;fill-rule:evenodd;fill:rgb(2.352941%,47.45098%,92.156863%);fill-opacity:1;" d="M 149.988281 45.527344 L 158.074219 45.527344 L 168.914062 60.164062 C 169.613281 61.214844 170.484375 62.144531 171.488281 62.910156 C 172.28125 63.507812 173.148438 64.007812 174.0625 64.394531 C 174.761719 64.695312 175.5 64.90625 176.253906 65.027344 C 176.707031 65.097656 177.167969 65.144531 177.628906 65.160156 L 190.230469 65.160156 L 172.976562 41.921875 C 174.703125 40.730469 176.28125 39.332031 177.675781 37.757812 C 178.921875 36.34375 179.980469 34.777344 180.835938 33.097656 C 181.632812 31.519531 182.234375 29.847656 182.621094 28.121094 C 182.996094 26.441406 183.1875 24.726562 183.1875 23.007812 C 183.183594 21.230469 182.960938 19.460938 182.53125 17.738281 C 182.089844 15.949219 181.4375 14.21875 180.589844 12.582031 C 179.71875 10.894531 178.640625 9.320312 177.382812 7.898438 C 176.09375 6.433594 174.605469 5.160156 172.957031 4.113281 C 171.214844 3.015625 169.332031 2.160156 167.355469 1.570312 C 165.164062 0.921875 162.890625 0.601562 160.601562 0.625 L 135.222656 0.625 L 135.222656 65.164062 L 149.988281 65.164062 Z M 149.988281 30.707031 L 149.988281 15.398438 L 161.371094 15.398438 C 162.285156 15.398438 163.1875 15.632812 163.988281 16.070312 C 164.832031 16.523438 165.589844 17.117188 166.226562 17.828125 C 166.875 18.554688 167.402344 19.382812 167.785156 20.28125 C 168.566406 22.046875 168.566406 24.058594 167.785156 25.824219 C 167.402344 26.722656 166.875 27.550781 166.226562 28.277344 C 165.589844 28.988281 164.832031 29.582031 163.988281 30.035156 C 163.1875 30.472656 162.285156 30.707031 161.371094 30.707031 Z M 149.988281 30.707031 "/>
<path style=" stroke:none;fill-rule:evenodd;fill:rgb(99.607843%,51.372549%,2.352941%);fill-opacity:1;" d="M 188.632812 65.164062 L 198.207031 65.164062 C 199.15625 65.160156 200.101562 65.015625 201.007812 64.734375 C 201.933594 64.453125 202.8125 64.042969 203.625 63.519531 C 204.429688 63.003906 205.164062 62.390625 205.816406 61.695312 C 206.445312 61.035156 206.953125 60.273438 207.328125 59.441406 L 210.398438 52.28125 L 236.144531 52.28125 L 239.304688 59.441406 C 239.683594 60.324219 240.199219 61.136719 240.839844 61.851562 C 241.460938 62.546875 242.175781 63.15625 242.960938 63.652344 C 243.753906 64.152344 244.613281 64.53125 245.515625 64.78125 C 246.449219 65.035156 247.414062 65.164062 248.382812 65.164062 L 257.910156 65.164062 L 229.640625 0.625 L 216.90625 0.625 Z M 222.007812 25.394531 C 222.25 24.792969 222.453125 24.222656 222.617188 23.683594 C 222.785156 23.144531 222.910156 22.664062 223 22.242188 C 223.121094 21.730469 223.210938 21.265625 223.273438 20.847656 C 223.308594 21.300781 223.382812 21.753906 223.5 22.199219 C 223.585938 22.617188 223.707031 23.097656 223.859375 23.636719 C 224.03125 24.238281 224.242188 24.824219 224.492188 25.394531 L 230.136719 38.90625 L 216.316406 38.90625 Z M 222.007812 25.394531 "/>
<path style=" stroke:none;fill-rule:evenodd;fill:rgb(99.607843%,51.372549%,2.352941%);fill-opacity:1;" d="M 273.800781 25.824219 C 274.761719 23.660156 276.125 21.707031 277.820312 20.058594 C 279.523438 18.410156 281.511719 17.089844 283.691406 16.164062 C 285.929688 15.199219 288.34375 14.707031 290.78125 14.722656 C 292.613281 14.710938 294.4375 15 296.179688 15.578125 C 297.882812 16.148438 299.5 16.953125 300.988281 17.964844 C 302.582031 19.0625 304.472656 19.644531 306.40625 19.628906 C 307.773438 19.652344 309.128906 19.382812 310.382812 18.84375 C 311.542969 18.328125 312.597656 17.601562 313.496094 16.703125 L 317.335938 12.875 C 315.507812 10.929688 313.519531 9.136719 311.398438 7.515625 C 309.363281 5.960938 307.1875 4.601562 304.894531 3.460938 C 302.679688 2.363281 300.355469 1.5 297.960938 0.894531 C 295.613281 0.296875 293.203125 -0.00390625 290.78125 -0.0078125 C 287.804688 -0.015625 284.84375 0.378906 281.972656 1.164062 C 279.195312 1.925781 276.523438 3.035156 274.023438 4.476562 C 266.5625 8.765625 261.074219 15.8125 258.738281 24.109375 C 257.140625 29.839844 257.140625 35.898438 258.738281 41.628906 C 261.085938 49.921875 266.570312 56.96875 274.023438 61.265625 C 276.523438 62.707031 279.195312 63.816406 281.972656 64.578125 C 284.84375 65.363281 287.804688 65.757812 290.78125 65.746094 C 293.203125 65.746094 295.613281 65.445312 297.960938 64.847656 C 300.355469 64.242188 302.679688 63.378906 304.894531 62.28125 C 307.1875 61.140625 309.363281 59.78125 311.398438 58.226562 C 313.523438 56.605469 315.507812 54.8125 317.335938 52.867188 L 313.5 49.039062 C 312.613281 48.144531 311.574219 47.417969 310.425781 46.902344 C 309.152344 46.375 307.785156 46.121094 306.40625 46.15625 C 304.480469 46.132812 302.585938 46.695312 300.988281 47.777344 C 299.507812 48.769531 297.90625 49.566406 296.222656 50.144531 C 294.472656 50.738281 292.632812 51.035156 290.78125 51.019531 C 288.347656 51.035156 285.933594 50.550781 283.691406 49.601562 C 279.28125 47.757812 275.746094 44.292969 273.800781 39.917969 C 271.8125 35.433594 271.8125 30.3125 273.800781 25.824219 Z M 273.800781 25.824219 "/>
<path style=" stroke:none;fill-rule:evenodd;fill:rgb(99.607843%,51.372549%,2.352941%);fill-opacity:1;" d="M 319.613281 65.164062 L 329.1875 65.164062 C 330.136719 65.160156 331.082031 65.015625 331.988281 64.734375 C 332.914062 64.453125 333.796875 64.042969 334.609375 63.519531 C 335.410156 63.003906 336.144531 62.390625 336.800781 61.695312 C 337.425781 61.035156 337.9375 60.273438 338.3125 59.445312 L 341.382812 52.28125 L 367.125 52.28125 L 370.285156 59.445312 C 370.664062 60.324219 371.183594 61.136719 371.820312 61.851562 C 372.441406 62.550781 373.15625 63.15625 373.945312 63.65625 C 374.734375 64.152344 375.59375 64.535156 376.496094 64.78125 C 377.429688 65.039062 378.394531 65.167969 379.363281 65.164062 L 388.894531 65.164062 L 360.621094 0.625 L 347.886719 0.625 Z M 352.992188 25.394531 C 353.230469 24.792969 353.433594 24.222656 353.601562 23.683594 C 353.765625 23.144531 353.894531 22.664062 353.984375 22.242188 C 354.105469 21.730469 354.195312 21.265625 354.257812 20.847656 C 354.292969 21.300781 354.367188 21.753906 354.480469 22.199219 C 354.574219 22.617188 354.691406 23.097656 354.84375 23.636719 C 355.015625 24.238281 355.226562 24.824219 355.476562 25.394531 L 361.121094 38.90625 L 347.296875 38.90625 Z M 352.992188 25.394531 "/>
<path style=" stroke:none;fill-rule:evenodd;fill:rgb(27.843137%,30.588235%,32.941176%);fill-opacity:1;" d="M 12.617188 97.695312 L 14.542969 97.695312 L 14.542969 78.496094 L 12.617188 78.496094 Z M 24.015625 80.375 L 24.015625 97.695312 L 25.976562 97.695312 L 25.976562 80.375 L 30.269531 80.375 L 30.269531 78.496094 L 19.722656 78.496094 L 19.722656 80.375 Z M 76.140625 97.695312 L 87.09375 97.695312 L 87.09375 95.816406 L 78.0625 95.816406 L 78.0625 88.273438 L 87.09375 88.273438 L 87.09375 86.390625 L 78.0625 86.390625 L 78.0625 80.375 L 87.171875 80.375 L 87.171875 78.496094 L 76.140625 78.496094 Z M 93.28125 97.695312 L 95.203125 97.695312 L 95.203125 88.777344 L 96.292969 88.777344 L 103.214844 97.691406 L 105.59375 97.691406 L 98.671875 88.777344 C 99.964844 88.828125 101.253906 88.617188 102.46875 88.160156 C 103.339844 87.792969 104.078125 87.164062 104.582031 86.363281 C 105.082031 85.53125 105.339844 84.574219 105.320312 83.605469 C 105.355469 82.453125 104.972656 81.328125 104.246094 80.4375 C 103.53125 79.578125 102.550781 78.988281 101.460938 78.757812 C 100.023438 78.535156 98.566406 78.445312 97.113281 78.496094 L 93.28125 78.496094 Z M 98.597656 80.375 C 99.554688 80.328125 100.511719 80.441406 101.429688 80.714844 C 101.996094 80.9375 102.476562 81.332031 102.808594 81.84375 C 103.15625 82.363281 103.339844 82.976562 103.332031 83.601562 C 103.339844 84.234375 103.160156 84.859375 102.816406 85.394531 C 102.472656 85.929688 101.964844 86.335938 101.371094 86.5625 C 100.449219 86.851562 99.484375 86.972656 98.523438 86.929688 L 95.207031 86.902344 L 95.207031 80.375 L 98.601562 80.375 Z M 124.261719 92.527344 L 122.351562 90.59375 L 119.433594 87.539062 C 120.457031 86.742188 121.359375 85.804688 122.121094 84.753906 C 122.535156 84.148438 122.773438 83.433594 122.800781 82.699219 C 122.800781 82.082031 122.617188 81.484375 122.277344 80.96875 C 121.902344 80.402344 121.378906 79.953125 120.761719 79.671875 C 120.074219 79.34375 119.320312 79.179688 118.5625 79.1875 C 117.398438 79.148438 116.261719 79.539062 115.367188 80.285156 C 114.652344 80.859375 114.242188 81.738281 114.257812 82.65625 C 114.273438 83.261719 114.425781 83.851562 114.707031 84.386719 C 115.289062 85.390625 115.972656 86.332031 116.742188 87.199219 C 114.875 88.667969 113.636719 89.886719 113.035156 90.847656 C 112.460938 91.699219 112.144531 92.699219 112.125 93.726562 C 112.097656 94.929688 112.585938 96.089844 113.472656 96.902344 C 114.449219 97.78125 115.734375 98.238281 117.046875 98.175781 C 118.132812 98.183594 119.210938 97.984375 120.226562 97.589844 C 121.640625 96.9375 122.957031 96.089844 124.136719 95.070312 L 126.691406 97.695312 L 129.375 97.695312 C 128.894531 97.136719 128.324219 96.527344 127.660156 95.867188 C 126.816406 95.027344 126.132812 94.367188 125.609375 93.886719 C 126.4375 93.289062 127.234375 92.652344 127.996094 91.972656 L 126.691406 90.59375 C 125.914062 91.28125 125.105469 91.925781 124.265625 92.527344 Z M 116.429688 83.679688 C 116.253906 83.378906 116.164062 83.042969 116.167969 82.699219 C 116.175781 82.222656 116.417969 81.785156 116.808594 81.523438 C 117.292969 81.175781 117.878906 81 118.476562 81.027344 C 119.089844 80.996094 119.695312 81.167969 120.203125 81.511719 C 120.59375 81.761719 120.839844 82.191406 120.851562 82.660156 C 120.816406 83.136719 120.644531 83.59375 120.351562 83.976562 C 119.765625 84.792969 119.050781 85.507812 118.242188 86.105469 C 117.558594 85.355469 116.953125 84.542969 116.429688 83.675781 Z M 119.761719 90.578125 L 122.796875 93.695312 C 121.71875 94.601562 120.527344 95.359375 119.253906 95.957031 C 118.617188 96.230469 117.9375 96.371094 117.246094 96.375 C 116.40625 96.398438 115.589844 96.09375 114.964844 95.53125 C 114.382812 95.054688 114.042969 94.34375 114.035156 93.59375 C 114.074219 92.859375 114.339844 92.15625 114.792969 91.574219 C 115.300781 90.851562 116.371094 89.875 118.007812 88.644531 C 118.652344 89.386719 119.238281 90.027344 119.761719 90.578125 Z M 141.210938 97.695312 C 143.613281 97.695312 145.476562 97.347656 146.804688 96.648438 C 148.179688 95.910156 149.308594 94.785156 150.050781 93.414062 C 150.90625 91.859375 151.339844 90.109375 151.300781 88.335938 C 151.355469 86.304688 150.804688 84.300781 149.722656 82.582031 C 148.691406 80.984375 147.148438 79.789062 145.347656 79.1875 C 144.046875 78.726562 141.957031 78.496094 139.078125 78.496094 L 135.085938 78.496094 L 135.085938 97.695312 Z M 136.933594 80.375 L 138.292969 80.375 C 141.058594 80.375 143.046875 80.558594 144.25 80.925781 C 145.777344 81.355469 147.105469 82.3125 148.003906 83.621094 C 148.929688 85.027344 149.402344 86.6875 149.351562 88.371094 C 149.402344 89.953125 148.96875 91.515625 148.109375 92.847656 C 147.292969 94.058594 146.085938 94.957031 144.691406 95.382812 C 143.664062 95.714844 141.816406 95.878906 139.15625 95.878906 L 136.933594 95.878906 Z M 212.484375 79.078125 C 210.964844 78.351562 209.296875 77.988281 207.613281 78.015625 C 204.851562 77.929688 202.175781 78.96875 200.1875 80.890625 C 198.246094 82.730469 197.167969 85.308594 197.222656 87.984375 C 197.164062 90.488281 198.035156 92.925781 199.671875 94.824219 C 201.617188 97.058594 204.273438 98.175781 207.640625 98.175781 C 209.296875 98.199219 210.9375 97.859375 212.449219 97.179688 C 213.855469 96.535156 215.085938 95.566406 216.042969 94.351562 L 214.523438 93.203125 C 212.867188 95.238281 210.375 96.398438 207.757812 96.363281 C 205.496094 96.4375 203.296875 95.589844 201.667969 94.011719 C 200.074219 92.488281 199.195312 90.359375 199.253906 88.152344 C 199.230469 86.6875 199.605469 85.242188 200.332031 83.972656 C 201.058594 82.726562 202.109375 81.699219 203.375 81.007812 C 204.675781 80.277344 206.148438 79.894531 207.640625 79.90625 C 208.976562 79.890625 210.296875 80.179688 211.507812 80.746094 C 212.695312 81.320312 213.730469 82.167969 214.523438 83.222656 L 216.042969 82.058594 C 215.121094 80.785156 213.898438 79.757812 212.480469 79.078125 Z M 226.734375 79.351562 C 225.203125 80.230469 223.9375 81.507812 223.074219 83.050781 C 222.183594 84.613281 221.71875 86.382812 221.734375 88.179688 C 221.691406 90.847656 222.757812 93.410156 224.679688 95.253906 C 226.585938 97.179688 229.199219 98.238281 231.90625 98.175781 C 234.585938 98.199219 237.164062 97.148438 239.066406 95.25 C 240.964844 93.355469 242.027344 90.777344 242.015625 88.089844 C 242.074219 85.394531 241.007812 82.796875 239.070312 80.925781 C 237.128906 78.992188 234.484375 77.941406 231.75 78.015625 C 229.988281 78.003906 228.257812 78.464844 226.734375 79.351562 Z M 235.949219 80.992188 C 237.199219 81.6875 238.238281 82.710938 238.960938 83.949219 C 239.675781 85.207031 240.046875 86.632812 240.027344 88.082031 C 240.042969 89.546875 239.675781 90.988281 238.960938 92.261719 C 238.257812 93.503906 237.226562 94.53125 235.984375 95.226562 C 234.71875 95.949219 233.289062 96.320312 231.835938 96.3125 C 229.679688 96.320312 227.609375 95.464844 226.085938 93.9375 C 224.5625 92.410156 223.710938 90.335938 223.722656 88.171875 C 223.703125 86.707031 224.074219 85.257812 224.796875 83.980469 C 226.253906 81.464844 228.929688 79.90625 231.835938 79.878906 C 233.28125 79.878906 234.699219 80.261719 235.949219 80.992188 Z M 250.558594 97.695312 L 250.558594 83.15625 L 263.265625 97.695312 L 263.699219 97.695312 L 263.699219 78.496094 L 261.800781 78.496094 L 261.800781 93.210938 L 248.988281 78.496094 L 248.570312 78.496094 L 248.570312 97.695312 Z M 271.703125 97.246094 C 272.648438 97.863281 273.757812 98.191406 274.886719 98.179688 C 276.328125 98.207031 277.722656 97.652344 278.75 96.636719 C 279.769531 95.707031 280.347656 94.390625 280.339844 93.011719 C 280.320312 91.976562 279.996094 90.976562 279.414062 90.125 C 278.792969 89.167969 277.648438 88.078125 275.984375 86.851562 C 274.578125 85.816406 273.75 85.175781 273.496094 84.933594 C 273.101562 84.566406 272.777344 84.132812 272.539062 83.652344 C 272.367188 83.269531 272.277344 82.859375 272.277344 82.4375 C 272.265625 81.78125 272.535156 81.148438 273.019531 80.703125 C 273.535156 80.222656 274.21875 79.96875 274.921875 79.996094 C 275.507812 79.992188 276.085938 80.152344 276.589844 80.453125 C 277.3125 80.96875 277.941406 81.609375 278.441406 82.347656 L 280.011719 81.160156 C 279.351562 80.171875 278.5 79.332031 277.507812 78.683594 C 276.730469 78.242188 275.851562 78.007812 274.960938 78.011719 C 274.132812 78.007812 273.316406 78.210938 272.585938 78.605469 C 271.882812 78.980469 271.292969 79.542969 270.890625 80.230469 C 270.488281 80.925781 270.28125 81.714844 270.289062 82.515625 C 270.292969 83.582031 270.652344 84.613281 271.3125 85.453125 C 271.703125 85.992188 272.703125 86.867188 274.308594 88.074219 C 275.550781 88.9375 276.660156 89.972656 277.605469 91.15625 C 278.015625 91.699219 278.246094 92.363281 278.261719 93.046875 C 278.257812 93.613281 278.105469 94.167969 277.816406 94.652344 C 277.507812 95.167969 277.058594 95.585938 276.519531 95.859375 C 275.960938 96.15625 275.335938 96.3125 274.699219 96.308594 C 273.191406 96.308594 271.859375 95.25 270.710938 93.136719 L 269.074219 94.117188 C 269.683594 95.355469 270.585938 96.429688 271.703125 97.242188 Z M 287.15625 90.085938 C 287.15625 92.035156 287.273438 93.382812 287.511719 94.132812 C 287.882812 95.34375 288.671875 96.382812 289.734375 97.066406 C 290.925781 97.832031 292.316406 98.21875 293.726562 98.175781 C 295.042969 98.214844 296.335938 97.800781 297.386719 97.003906 C 298.324219 96.3125 299.03125 95.347656 299.402344 94.242188 C 299.773438 92.886719 299.945312 91.488281 299.902344 90.082031 L 299.902344 78.496094 L 297.980469 78.496094 L 297.980469 90.085938 C 298.019531 91.089844 297.953125 92.097656 297.785156 93.085938 C 297.625 93.722656 297.328125 94.3125 296.921875 94.824219 C 296.523438 95.304688 296.023438 95.691406 295.453125 95.945312 C 294.878906 96.214844 294.253906 96.351562 293.621094 96.351562 C 292.863281 96.34375 292.117188 96.167969 291.4375 95.835938 C 290.796875 95.558594 290.242188 95.117188 289.828125 94.554688 C 289.457031 93.988281 289.226562 93.335938 289.160156 92.65625 C 289.085938 91.804688 289.0625 90.945312 289.082031 90.085938 L 289.082031 78.496094 L 287.15625 78.496094 Z M 307.320312 97.695312 L 316.648438 97.695312 L 316.648438 95.839844 L 309.246094 95.839844 L 309.246094 78.496094 L 307.320312 78.496094 Z M 324.761719 80.375 L 324.761719 97.695312 L 326.722656 97.695312 L 326.722656 80.375 L 331.015625 80.375 L 331.015625 78.496094 L 320.46875 78.496094 L 320.46875 80.375 Z M 336.195312 97.695312 L 338.121094 97.695312 L 338.121094 78.496094 L 336.195312 78.496094 Z M 347.210938 97.695312 L 347.210938 83.15625 L 359.921875 97.695312 L 360.351562 97.695312 L 360.351562 78.496094 L 358.453125 78.496094 L 358.453125 93.210938 L 345.644531 78.496094 L 345.226562 78.496094 L 345.226562 97.695312 L 347.214844 97.695312 Z M 382.074219 78.894531 C 380.609375 78.304688 379.042969 78.003906 377.464844 78.015625 C 375.578125 77.984375 373.710938 78.441406 372.050781 79.339844 C 368.871094 81.097656 366.898438 84.449219 366.90625 88.089844 C 366.878906 90.464844 367.734375 92.765625 369.300781 94.550781 C 371.375 96.96875 374.195312 98.175781 377.753906 98.175781 C 380.6875 98.175781 383.027344 97.304688 384.777344 95.558594 C 386.527344 93.816406 387.410156 91.460938 387.425781 88.492188 L 379.128906 88.492188 L 379.128906 90.347656 L 385.265625 90.347656 C 385.050781 92.054688 384.179688 93.609375 382.832031 94.679688 C 381.40625 95.8125 379.625 96.40625 377.808594 96.351562 C 376.238281 96.367188 374.6875 95.984375 373.304688 95.238281 C 371.972656 94.527344 370.859375 93.46875 370.085938 92.167969 C 369.328125 90.929688 368.925781 89.507812 368.921875 88.050781 C 368.921875 86.636719 369.3125 85.25 370.046875 84.039062 C 370.808594 82.761719 371.90625 81.722656 373.222656 81.03125 C 374.542969 80.304688 376.023438 79.921875 377.53125 79.921875 C 378.820312 79.9375 380.089844 80.214844 381.269531 80.738281 C 382.582031 81.304688 383.78125 82.117188 384.796875 83.132812 L 386.289062 81.722656 C 385.070312 80.527344 383.640625 79.566406 382.074219 78.894531 Z M 382.074219 78.894531 "/>
<path style=" stroke:none;fill-rule:nonzero;fill:rgb(27.843137%,30.588235%,32.941176%);fill-opacity:1;" d="M 170.667969 79.738281 L 172.445312 79.738281 L 172.445312 97.554688 L 170.667969 97.554688 Z M 170.667969 79.738281 "/>
<path style=" stroke:none;fill-rule:nonzero;fill:rgb(27.843137%,30.588235%,32.941176%);fill-opacity:1;" d="M 50.667969 79.738281 L 52.445312 79.738281 L 52.445312 97.554688 L 50.667969 97.554688 Z M 50.667969 79.738281 "/>
</g>
</svg>
