<svg width="57" height="57" viewBox="0 0 57 57" fill="none" xmlns="http://www.w3.org/2000/svg">
<g filter="url(#filter0_d_38_3411)">
<mask id="path-1-inside-1_38_3411" fill="white">
<path fill-rule="evenodd" clip-rule="evenodd" d="M14.25 6.75C14.25 5.64543 15.1454 4.75 16.25 4.75H50.25C51.3546 4.75 52.25 5.64543 52.25 6.75V40.75C52.25 41.8546 51.3546 42.75 50.25 42.75H16.25C15.1454 42.75 14.25 41.8546 14.25 40.75V6.75ZM33.25 13.0625H35.625H42.75V17.8125H35.625V28.5C35.625 31.7792 32.9667 34.4375 29.6875 34.4375C26.4083 34.4375 23.75 31.7792 23.75 28.5C23.75 25.2208 26.4083 22.5625 29.6875 22.5625C31.0242 22.5625 32.2577 23.0042 33.25 23.7496V13.0625ZM10.3125 10.6875H13.0625V11.6875H10.3125C9.76021 11.6875 9.3125 12.1352 9.3125 12.6875V46.6875C9.3125 47.2398 9.76022 47.6875 10.3125 47.6875H44.3125C44.8648 47.6875 45.3125 47.2398 45.3125 46.6875V45.125H46.3125V46.6875C46.3125 47.7921 45.4171 48.6875 44.3125 48.6875H10.3125C9.20793 48.6875 8.3125 47.7921 8.3125 46.6875V12.6875C8.3125 11.5829 9.20793 10.6875 10.3125 10.6875Z"/>
</mask>
<path fill-rule="evenodd" clip-rule="evenodd" d="M14.25 6.75C14.25 5.64543 15.1454 4.75 16.25 4.75H50.25C51.3546 4.75 52.25 5.64543 52.25 6.75V40.75C52.25 41.8546 51.3546 42.75 50.25 42.75H16.25C15.1454 42.75 14.25 41.8546 14.25 40.75V6.75ZM33.25 13.0625H35.625H42.75V17.8125H35.625V28.5C35.625 31.7792 32.9667 34.4375 29.6875 34.4375C26.4083 34.4375 23.75 31.7792 23.75 28.5C23.75 25.2208 26.4083 22.5625 29.6875 22.5625C31.0242 22.5625 32.2577 23.0042 33.25 23.7496V13.0625ZM10.3125 10.6875H13.0625V11.6875H10.3125C9.76021 11.6875 9.3125 12.1352 9.3125 12.6875V46.6875C9.3125 47.2398 9.76022 47.6875 10.3125 47.6875H44.3125C44.8648 47.6875 45.3125 47.2398 45.3125 46.6875V45.125H46.3125V46.6875C46.3125 47.7921 45.4171 48.6875 44.3125 48.6875H10.3125C9.20793 48.6875 8.3125 47.7921 8.3125 46.6875V12.6875C8.3125 11.5829 9.20793 10.6875 10.3125 10.6875Z" fill="white"/>
<path d="M33.25 13.0625V12.0625H32.25V13.0625H33.25ZM42.75 13.0625H43.75V12.0625H42.75V13.0625ZM42.75 17.8125V18.8125H43.75V17.8125H42.75ZM35.625 17.8125V16.8125H34.625V17.8125H35.625ZM33.25 23.7496L32.6494 24.5491L34.25 25.7514V23.7496H33.25ZM13.0625 10.6875H14.0625V9.6875H13.0625V10.6875ZM13.0625 11.6875V12.6875H14.0625V11.6875H13.0625ZM45.3125 45.125V44.125H44.3125V45.125H45.3125ZM46.3125 45.125H47.3125V44.125H46.3125V45.125ZM16.25 3.75C14.5931 3.75 13.25 5.09314 13.25 6.75H15.25C15.25 6.19772 15.6977 5.75 16.25 5.75V3.75ZM50.25 3.75H16.25V5.75H50.25V3.75ZM53.25 6.75C53.25 5.09315 51.9069 3.75 50.25 3.75V5.75C50.8023 5.75 51.25 6.19772 51.25 6.75H53.25ZM53.25 40.75V6.75H51.25V40.75H53.25ZM50.25 43.75C51.9069 43.75 53.25 42.4069 53.25 40.75H51.25C51.25 41.3023 50.8023 41.75 50.25 41.75V43.75ZM16.25 43.75H50.25V41.75H16.25V43.75ZM13.25 40.75C13.25 42.4069 14.5931 43.75 16.25 43.75V41.75C15.6977 41.75 15.25 41.3023 15.25 40.75H13.25ZM13.25 6.75V40.75H15.25V6.75H13.25ZM35.625 12.0625H33.25V14.0625H35.625V12.0625ZM42.75 12.0625H35.625V14.0625H42.75V12.0625ZM43.75 17.8125V13.0625H41.75V17.8125H43.75ZM35.625 18.8125H42.75V16.8125H35.625V18.8125ZM36.625 28.5V17.8125H34.625V28.5H36.625ZM29.6875 35.4375C33.519 35.4375 36.625 32.3315 36.625 28.5H34.625C34.625 31.2269 32.4144 33.4375 29.6875 33.4375V35.4375ZM22.75 28.5C22.75 32.3315 25.856 35.4375 29.6875 35.4375V33.4375C26.9606 33.4375 24.75 31.2269 24.75 28.5H22.75ZM29.6875 21.5625C25.856 21.5625 22.75 24.6685 22.75 28.5H24.75C24.75 25.7731 26.9606 23.5625 29.6875 23.5625V21.5625ZM33.8506 22.95C32.691 22.079 31.2481 21.5625 29.6875 21.5625V23.5625C30.8002 23.5625 31.8243 23.9294 32.6494 24.5491L33.8506 22.95ZM32.25 13.0625V23.7496H34.25V13.0625H32.25ZM13.0625 9.6875H10.3125V11.6875H13.0625V9.6875ZM14.0625 11.6875V10.6875H12.0625V11.6875H14.0625ZM10.3125 12.6875H13.0625V10.6875H10.3125V12.6875ZM10.3125 12.6875V12.6875V10.6875C9.20793 10.6875 8.3125 11.5829 8.3125 12.6875H10.3125ZM10.3125 46.6875V12.6875H8.3125V46.6875H10.3125ZM10.3125 46.6875H10.3125H8.3125C8.3125 47.7921 9.20793 48.6875 10.3125 48.6875V46.6875ZM44.3125 46.6875H10.3125V48.6875H44.3125V46.6875ZM44.3125 46.6875V48.6875C45.4171 48.6875 46.3125 47.7921 46.3125 46.6875H44.3125ZM44.3125 45.125V46.6875H46.3125V45.125H44.3125ZM46.3125 44.125H45.3125V46.125H46.3125V44.125ZM47.3125 46.6875V45.125H45.3125V46.6875H47.3125ZM44.3125 49.6875C45.9694 49.6875 47.3125 48.3444 47.3125 46.6875H45.3125C45.3125 47.2398 44.8648 47.6875 44.3125 47.6875V49.6875ZM10.3125 49.6875H44.3125V47.6875H10.3125V49.6875ZM7.3125 46.6875C7.3125 48.3444 8.65564 49.6875 10.3125 49.6875V47.6875C9.76022 47.6875 9.3125 47.2398 9.3125 46.6875H7.3125ZM7.3125 12.6875V46.6875H9.3125V12.6875H7.3125ZM10.3125 9.6875C8.65565 9.6875 7.3125 11.0306 7.3125 12.6875H9.3125C9.3125 12.1352 9.76021 11.6875 10.3125 11.6875V9.6875Z" fill="white" mask="url(#path-1-inside-1_38_3411)"/>
</g>
<defs>
<filter id="filter0_d_38_3411" x="6.3125" y="3.75" width="49.9375" height="49.9375" filterUnits="userSpaceOnUse" color-interpolation-filters="sRGB">
<feFlood flood-opacity="0" result="BackgroundImageFix"/>
<feColorMatrix in="SourceAlpha" type="matrix" values="0 0 0 0 0 0 0 0 0 0 0 0 0 0 0 0 0 0 127 0" result="hardAlpha"/>
<feOffset dx="1" dy="2"/>
<feGaussianBlur stdDeviation="1.5"/>
<feComposite in2="hardAlpha" operator="out"/>
<feColorMatrix type="matrix" values="0 0 0 0 0 0 0 0 0 0 0 0 0 0 0 0 0 0 0.7 0"/>
<feBlend mode="normal" in2="BackgroundImageFix" result="effect1_dropShadow_38_3411"/>
<feBlend mode="normal" in="SourceGraphic" in2="effect1_dropShadow_38_3411" result="shape"/>
</filter>
</defs>
</svg>
