<svg width="234" height="234" viewBox="0 0 234 234" fill="none" xmlns="http://www.w3.org/2000/svg">
<g opacity="0.3">
<path d="M179 30V34H180V30H184V29H180V25H179V29H175V30H179Z" fill="url(#paint0_radial_178_4084)"/>
<path d="M129 30V34H130V30H134V29H130V25H129V29H125V30H129Z" fill="url(#paint1_radial_178_4084)"/>
<path d="M79 30V34H80V30H84V29H80V25H79V29L75 29V30L79 30Z" fill="url(#paint2_radial_178_4084)"/>
<path d="M229 80V84H230V80H234V79H230V75H229V79H225V80H229Z" fill="url(#paint3_radial_178_4084)"/>
<path d="M179 80V84H180V80H184V79H180V75H179V79H175V80H179Z" fill="url(#paint4_radial_178_4084)"/>
<path d="M129 80V84H130V80L134 80V79L130 79V75H129V79H125V80H129Z" fill="url(#paint5_radial_178_4084)"/>
<path d="M79 80V84H80V80H84V79H80V75H79V79H75V80H79Z" fill="url(#paint6_radial_178_4084)"/>
<path d="M29 80V84H30V80H34V79H30L30 75H29L29 79H25V80H29Z" fill="url(#paint7_radial_178_4084)"/>
<path d="M229 105V109H230V105H234V104H230V100H229V104H225V105H229Z" fill="url(#paint8_radial_178_4084)"/>
<path d="M179 105V109H180V105H184V104H180V100H179V104H175V105H179Z" fill="url(#paint9_radial_178_4084)"/>
<path d="M129 105V109H130V105L134 105V104L130 104V100H129V104H125V105H129Z" fill="url(#paint10_radial_178_4084)"/>
<path d="M79 105V109H80V105H84V104H80V100H79V104H75V105H79Z" fill="url(#paint11_radial_178_4084)"/>
<path d="M29 105V109H30V105H34V104H30V100H29V104H25V105H29Z" fill="url(#paint12_radial_178_4084)"/>
<path d="M229 130V134H230V130H234V129H230V125H229V129H225V130H229Z" fill="url(#paint13_radial_178_4084)"/>
<path d="M179 130V134H180V130H184V129H180V125H179V129H175V130H179Z" fill="url(#paint14_radial_178_4084)"/>
<path d="M129 130V134H130V130H134V129H130V125H129V129H125V130H129Z" fill="url(#paint15_radial_178_4084)"/>
<path d="M79 130L79 134H80L80 130H84V129H80V125H79V129H75V130H79Z" fill="url(#paint16_radial_178_4084)"/>
<path d="M29 130V134H30V130H34V129H30V125H29V129H25V130H29Z" fill="url(#paint17_radial_178_4084)"/>
<path d="M229 155V159H230V155H234V154H230V150H229V154H225V155H229Z" fill="url(#paint18_radial_178_4084)"/>
<path d="M179 155V159H180V155H184V154H180V150H179V154H175V155H179Z" fill="url(#paint19_radial_178_4084)"/>
<path d="M129 155V159H130V155H134V154H130V150H129V154H125V155H129Z" fill="url(#paint20_radial_178_4084)"/>
<path d="M79 155V159H80V155H84V154H80V150H79V154H75V155H79Z" fill="url(#paint21_radial_178_4084)"/>
<path d="M29 155V159H30V155H34L34 154H30V150H29V154H25V155H29Z" fill="url(#paint22_radial_178_4084)"/>
<path d="M179 180V184H180V180H184V179H180V175H179V179H175V180H179Z" fill="url(#paint23_radial_178_4084)"/>
<path d="M129 180V184H130V180H134V179H130V175H129V179H125V180H129Z" fill="url(#paint24_radial_178_4084)"/>
<path d="M79 180V184H80V180H84V179H80V175H79V179H75V180H79Z" fill="url(#paint25_radial_178_4084)"/>
<path d="M29 180V184H30V180H34V179H30V175H29V179H25V180H29Z" fill="url(#paint26_radial_178_4084)"/>
<path d="M179 205V209H180V205H184V204H180V200H179V204H175V205H179Z" fill="url(#paint27_radial_178_4084)"/>
<path d="M129 205V209H130V205H134V204H130V200H129V204H125V205H129Z" fill="url(#paint28_radial_178_4084)"/>
<path d="M79 205V209H80V205H84V204H80V200H79V204H75V205H79Z" fill="url(#paint29_radial_178_4084)"/>
<path d="M179 55V59H180V55H184V54H180V50H179V54H175V55H179Z" fill="url(#paint30_radial_178_4084)"/>
<path d="M129 55V59H130V55H134V54H130V50H129V54H125V55H129Z" fill="url(#paint31_radial_178_4084)"/>
<path d="M79 55V59H80V55H84V54H80V50H79V54H75V55H79Z" fill="url(#paint32_radial_178_4084)"/>
<path d="M29 55L29 59H30L30 55H34V54H30V50H29V54H25V55H29Z" fill="url(#paint33_radial_178_4084)"/>
<path d="M204 55V59H205V55H209V54H205V50H204V54H200V55H204Z" fill="url(#paint34_radial_178_4084)"/>
<path d="M154 55V59L155 59V55H159V54H155V50L154 50V54H150V55H154Z" fill="url(#paint35_radial_178_4084)"/>
<path d="M104 55V59H105V55H109V54H105V50H104V54H100V55H104Z" fill="url(#paint36_radial_178_4084)"/>
<path d="M54 55V59H55V55H59V54H55V50H54V54H50V55H54Z" fill="url(#paint37_radial_178_4084)"/>
<path d="M204 80V84H205V80H209V79H205V75H204V79H200V80H204Z" fill="url(#paint38_radial_178_4084)"/>
<path d="M154 80V84H155V80H159V79H155V75H154V79H150V80H154Z" fill="url(#paint39_radial_178_4084)"/>
<path d="M104 80V84H105V80H109V79H105V75H104V79H100V80H104Z" fill="url(#paint40_radial_178_4084)"/>
<path d="M54 80V84H55V80H59V79H55V75H54V79H50V80H54Z" fill="url(#paint41_radial_178_4084)"/>
<path d="M4 80L4 84H5L5 80H9V79H5V75H4L4 79H0L0 80H4Z" fill="url(#paint42_radial_178_4084)"/>
<path d="M204 105V109H205V105H209V104H205V100H204V104H200V105H204Z" fill="url(#paint43_radial_178_4084)"/>
<path d="M154 105V109H155V105H159V104H155V100H154V104H150V105H154Z" fill="url(#paint44_radial_178_4084)"/>
<path d="M104 105V109H105V105H109V104H105V100H104V104H100V105H104Z" fill="url(#paint45_radial_178_4084)"/>
<path d="M54 105V109H55V105H59V104H55V100H54V104H50V105H54Z" fill="url(#paint46_radial_178_4084)"/>
<path d="M4 105L4 109H5L5 105H9L9 104H5L5 100H4L4 104H0L0 105H4Z" fill="url(#paint47_radial_178_4084)"/>
<path d="M204 130V134H205V130H209V129H205V125H204V129H200V130H204Z" fill="url(#paint48_radial_178_4084)"/>
<path d="M154 130V134H155V130H159V129H155V125H154V129H150V130H154Z" fill="url(#paint49_radial_178_4084)"/>
<path d="M104 130L104 134H105L105 130H109V129H105V125H104V129H100V130H104Z" fill="url(#paint50_radial_178_4084)"/>
<path d="M54 130V134H55V130H59V129H55V125H54V129H50V130H54Z" fill="url(#paint51_radial_178_4084)"/>
<path d="M4 130L4 134H5V130H9V129H5V125H4L4 129H0L0 130H4Z" fill="url(#paint52_radial_178_4084)"/>
<path d="M204 155V159H205V155H209V154H205V150H204V154H200V155H204Z" fill="url(#paint53_radial_178_4084)"/>
<path d="M154 155V159H155V155H159V154H155V150H154V154H150V155H154Z" fill="url(#paint54_radial_178_4084)"/>
<path d="M104 155V159H105V155H109V154H105V150H104V154H100V155H104Z" fill="url(#paint55_radial_178_4084)"/>
<path d="M54 155V159H55V155H59L59 154H55V150H54V154H50L50 155H54Z" fill="url(#paint56_radial_178_4084)"/>
<path d="M4 155L4 159H5L5 155H9V154H5L5 150H4L4 154H0L0 155H4Z" fill="url(#paint57_radial_178_4084)"/>
<path d="M204 180V184H205V180H209V179H205V175H204V179H200V180H204Z" fill="url(#paint58_radial_178_4084)"/>
<path d="M154 180V184H155V180H159V179H155V175H154V179H150V180H154Z" fill="url(#paint59_radial_178_4084)"/>
<path d="M104 180V184H105V180H109V179H105V175H104V179H100V180H104Z" fill="url(#paint60_radial_178_4084)"/>
<path d="M54 180V184H55V180H59V179H55V175H54V179H50V180H54Z" fill="url(#paint61_radial_178_4084)"/>
<path d="M154 205V209H155V205H159V204H155V200H154V204H150V205H154Z" fill="url(#paint62_radial_178_4084)"/>
<path d="M104 205V209H105V205H109V204H105V200H104V204H100V205H104Z" fill="url(#paint63_radial_178_4084)"/>
<path d="M54 205V209H55V205H59V204H55V200H54V204H50V205H54Z" fill="url(#paint64_radial_178_4084)"/>
<path d="M154 30V34L155 34V30H159V29H155V25H154V29H150V30H154Z" fill="url(#paint65_radial_178_4084)"/>
<path d="M104 30V34H105V30H109V29H105V25H104V29H100V30H104Z" fill="url(#paint66_radial_178_4084)"/>
<path d="M54 30V34H55V30L59 30V29L55 29V25H54V29H50V30H54Z" fill="url(#paint67_radial_178_4084)"/>
<path d="M129 230V234H130V230H134V229H130V225H129V229H125V230H129Z" fill="url(#paint68_radial_178_4084)"/>
<path d="M79 230V234H80V230H84V229H80V225H79V229H75V230H79Z" fill="url(#paint69_radial_178_4084)"/>
<path d="M154 230V234H155V230H159V229H155V225H154V229H150V230H154Z" fill="url(#paint70_radial_178_4084)"/>
<path d="M104 230V234H105V230H109V229H105V225H104V229H100V230H104Z" fill="url(#paint71_radial_178_4084)"/>
<path d="M129 5V9H130V5H134V4H130V0L129 0V4H125V5H129Z" fill="url(#paint72_radial_178_4084)"/>
<path d="M79 5V9H80V5L84 5V4L80 4V0L79 0V4H75V5H79Z" fill="url(#paint73_radial_178_4084)"/>
<path d="M154 5V9H155V5L159 5V4L155 4V0L154 0V4L150 4V5L154 5Z" fill="url(#paint74_radial_178_4084)"/>
<path d="M104 5V9L105 9V5L109 5V4L105 4V0L104 0V4L100 4V5L104 5Z" fill="url(#paint75_radial_178_4084)"/>
</g>
<defs>
<radialGradient id="paint0_radial_178_4084" cx="0" cy="0" r="1" gradientUnits="userSpaceOnUse" gradientTransform="translate(117 117) rotate(147.319) scale(125.936)">
<stop offset="0.0001" stop-color="#82B1FF"/>
<stop offset="1" stop-color="#82B1FF" stop-opacity="0"/>
</radialGradient>
<radialGradient id="paint1_radial_178_4084" cx="0" cy="0" r="1" gradientUnits="userSpaceOnUse" gradientTransform="translate(117 117) rotate(147.319) scale(125.936)">
<stop offset="0.0001" stop-color="#82B1FF"/>
<stop offset="1" stop-color="#82B1FF" stop-opacity="0"/>
</radialGradient>
<radialGradient id="paint2_radial_178_4084" cx="0" cy="0" r="1" gradientUnits="userSpaceOnUse" gradientTransform="translate(117 117) rotate(147.319) scale(125.936)">
<stop offset="0.0001" stop-color="#82B1FF"/>
<stop offset="1" stop-color="#82B1FF" stop-opacity="0"/>
</radialGradient>
<radialGradient id="paint3_radial_178_4084" cx="0" cy="0" r="1" gradientUnits="userSpaceOnUse" gradientTransform="translate(117 117) rotate(147.319) scale(125.936)">
<stop offset="0.0001" stop-color="#82B1FF"/>
<stop offset="1" stop-color="#82B1FF" stop-opacity="0"/>
</radialGradient>
<radialGradient id="paint4_radial_178_4084" cx="0" cy="0" r="1" gradientUnits="userSpaceOnUse" gradientTransform="translate(117 117) rotate(147.319) scale(125.936)">
<stop offset="0.0001" stop-color="#82B1FF"/>
<stop offset="1" stop-color="#82B1FF" stop-opacity="0"/>
</radialGradient>
<radialGradient id="paint5_radial_178_4084" cx="0" cy="0" r="1" gradientUnits="userSpaceOnUse" gradientTransform="translate(117 117) rotate(147.319) scale(125.936)">
<stop offset="0.0001" stop-color="#82B1FF"/>
<stop offset="1" stop-color="#82B1FF" stop-opacity="0"/>
</radialGradient>
<radialGradient id="paint6_radial_178_4084" cx="0" cy="0" r="1" gradientUnits="userSpaceOnUse" gradientTransform="translate(117 117) rotate(147.319) scale(125.936)">
<stop offset="0.0001" stop-color="#82B1FF"/>
<stop offset="1" stop-color="#82B1FF" stop-opacity="0"/>
</radialGradient>
<radialGradient id="paint7_radial_178_4084" cx="0" cy="0" r="1" gradientUnits="userSpaceOnUse" gradientTransform="translate(117 117) rotate(147.319) scale(125.936)">
<stop offset="0.0001" stop-color="#82B1FF"/>
<stop offset="1" stop-color="#82B1FF" stop-opacity="0"/>
</radialGradient>
<radialGradient id="paint8_radial_178_4084" cx="0" cy="0" r="1" gradientUnits="userSpaceOnUse" gradientTransform="translate(117 117) rotate(147.319) scale(125.936)">
<stop offset="0.0001" stop-color="#82B1FF"/>
<stop offset="1" stop-color="#82B1FF" stop-opacity="0"/>
</radialGradient>
<radialGradient id="paint9_radial_178_4084" cx="0" cy="0" r="1" gradientUnits="userSpaceOnUse" gradientTransform="translate(117 117) rotate(147.319) scale(125.936)">
<stop offset="0.0001" stop-color="#82B1FF"/>
<stop offset="1" stop-color="#82B1FF" stop-opacity="0"/>
</radialGradient>
<radialGradient id="paint10_radial_178_4084" cx="0" cy="0" r="1" gradientUnits="userSpaceOnUse" gradientTransform="translate(117 117) rotate(147.319) scale(125.936)">
<stop offset="0.0001" stop-color="#82B1FF"/>
<stop offset="1" stop-color="#82B1FF" stop-opacity="0"/>
</radialGradient>
<radialGradient id="paint11_radial_178_4084" cx="0" cy="0" r="1" gradientUnits="userSpaceOnUse" gradientTransform="translate(117 117) rotate(147.319) scale(125.936)">
<stop offset="0.0001" stop-color="#82B1FF"/>
<stop offset="1" stop-color="#82B1FF" stop-opacity="0"/>
</radialGradient>
<radialGradient id="paint12_radial_178_4084" cx="0" cy="0" r="1" gradientUnits="userSpaceOnUse" gradientTransform="translate(117 117) rotate(147.319) scale(125.936)">
<stop offset="0.0001" stop-color="#82B1FF"/>
<stop offset="1" stop-color="#82B1FF" stop-opacity="0"/>
</radialGradient>
<radialGradient id="paint13_radial_178_4084" cx="0" cy="0" r="1" gradientUnits="userSpaceOnUse" gradientTransform="translate(117 117) rotate(147.319) scale(125.936)">
<stop offset="0.0001" stop-color="#82B1FF"/>
<stop offset="1" stop-color="#82B1FF" stop-opacity="0"/>
</radialGradient>
<radialGradient id="paint14_radial_178_4084" cx="0" cy="0" r="1" gradientUnits="userSpaceOnUse" gradientTransform="translate(117 117) rotate(147.319) scale(125.936)">
<stop offset="0.0001" stop-color="#82B1FF"/>
<stop offset="1" stop-color="#82B1FF" stop-opacity="0"/>
</radialGradient>
<radialGradient id="paint15_radial_178_4084" cx="0" cy="0" r="1" gradientUnits="userSpaceOnUse" gradientTransform="translate(117 117) rotate(147.319) scale(125.936)">
<stop offset="0.0001" stop-color="#82B1FF"/>
<stop offset="1" stop-color="#82B1FF" stop-opacity="0"/>
</radialGradient>
<radialGradient id="paint16_radial_178_4084" cx="0" cy="0" r="1" gradientUnits="userSpaceOnUse" gradientTransform="translate(117 117) rotate(147.319) scale(125.936)">
<stop offset="0.0001" stop-color="#82B1FF"/>
<stop offset="1" stop-color="#82B1FF" stop-opacity="0"/>
</radialGradient>
<radialGradient id="paint17_radial_178_4084" cx="0" cy="0" r="1" gradientUnits="userSpaceOnUse" gradientTransform="translate(117 117) rotate(147.319) scale(125.936)">
<stop offset="0.0001" stop-color="#82B1FF"/>
<stop offset="1" stop-color="#82B1FF" stop-opacity="0"/>
</radialGradient>
<radialGradient id="paint18_radial_178_4084" cx="0" cy="0" r="1" gradientUnits="userSpaceOnUse" gradientTransform="translate(117 117) rotate(147.319) scale(125.936)">
<stop offset="0.0001" stop-color="#82B1FF"/>
<stop offset="1" stop-color="#82B1FF" stop-opacity="0"/>
</radialGradient>
<radialGradient id="paint19_radial_178_4084" cx="0" cy="0" r="1" gradientUnits="userSpaceOnUse" gradientTransform="translate(117 117) rotate(147.319) scale(125.936)">
<stop offset="0.0001" stop-color="#82B1FF"/>
<stop offset="1" stop-color="#82B1FF" stop-opacity="0"/>
</radialGradient>
<radialGradient id="paint20_radial_178_4084" cx="0" cy="0" r="1" gradientUnits="userSpaceOnUse" gradientTransform="translate(117 117) rotate(147.319) scale(125.936)">
<stop offset="0.0001" stop-color="#82B1FF"/>
<stop offset="1" stop-color="#82B1FF" stop-opacity="0"/>
</radialGradient>
<radialGradient id="paint21_radial_178_4084" cx="0" cy="0" r="1" gradientUnits="userSpaceOnUse" gradientTransform="translate(117 117) rotate(147.319) scale(125.936)">
<stop offset="0.0001" stop-color="#82B1FF"/>
<stop offset="1" stop-color="#82B1FF" stop-opacity="0"/>
</radialGradient>
<radialGradient id="paint22_radial_178_4084" cx="0" cy="0" r="1" gradientUnits="userSpaceOnUse" gradientTransform="translate(117 117) rotate(147.319) scale(125.936)">
<stop offset="0.0001" stop-color="#82B1FF"/>
<stop offset="1" stop-color="#82B1FF" stop-opacity="0"/>
</radialGradient>
<radialGradient id="paint23_radial_178_4084" cx="0" cy="0" r="1" gradientUnits="userSpaceOnUse" gradientTransform="translate(117 117) rotate(147.319) scale(125.936)">
<stop offset="0.0001" stop-color="#82B1FF"/>
<stop offset="1" stop-color="#82B1FF" stop-opacity="0"/>
</radialGradient>
<radialGradient id="paint24_radial_178_4084" cx="0" cy="0" r="1" gradientUnits="userSpaceOnUse" gradientTransform="translate(117 117) rotate(147.319) scale(125.936)">
<stop offset="0.0001" stop-color="#82B1FF"/>
<stop offset="1" stop-color="#82B1FF" stop-opacity="0"/>
</radialGradient>
<radialGradient id="paint25_radial_178_4084" cx="0" cy="0" r="1" gradientUnits="userSpaceOnUse" gradientTransform="translate(117 117) rotate(147.319) scale(125.936)">
<stop offset="0.0001" stop-color="#82B1FF"/>
<stop offset="1" stop-color="#82B1FF" stop-opacity="0"/>
</radialGradient>
<radialGradient id="paint26_radial_178_4084" cx="0" cy="0" r="1" gradientUnits="userSpaceOnUse" gradientTransform="translate(117 117) rotate(147.319) scale(125.936)">
<stop offset="0.0001" stop-color="#82B1FF"/>
<stop offset="1" stop-color="#82B1FF" stop-opacity="0"/>
</radialGradient>
<radialGradient id="paint27_radial_178_4084" cx="0" cy="0" r="1" gradientUnits="userSpaceOnUse" gradientTransform="translate(117 117) rotate(147.319) scale(125.936)">
<stop offset="0.0001" stop-color="#82B1FF"/>
<stop offset="1" stop-color="#82B1FF" stop-opacity="0"/>
</radialGradient>
<radialGradient id="paint28_radial_178_4084" cx="0" cy="0" r="1" gradientUnits="userSpaceOnUse" gradientTransform="translate(117 117) rotate(147.319) scale(125.936)">
<stop offset="0.0001" stop-color="#82B1FF"/>
<stop offset="1" stop-color="#82B1FF" stop-opacity="0"/>
</radialGradient>
<radialGradient id="paint29_radial_178_4084" cx="0" cy="0" r="1" gradientUnits="userSpaceOnUse" gradientTransform="translate(117 117) rotate(147.319) scale(125.936)">
<stop offset="0.0001" stop-color="#82B1FF"/>
<stop offset="1" stop-color="#82B1FF" stop-opacity="0"/>
</radialGradient>
<radialGradient id="paint30_radial_178_4084" cx="0" cy="0" r="1" gradientUnits="userSpaceOnUse" gradientTransform="translate(117 117) rotate(147.319) scale(125.936)">
<stop offset="0.0001" stop-color="#82B1FF"/>
<stop offset="1" stop-color="#82B1FF" stop-opacity="0"/>
</radialGradient>
<radialGradient id="paint31_radial_178_4084" cx="0" cy="0" r="1" gradientUnits="userSpaceOnUse" gradientTransform="translate(117 117) rotate(147.319) scale(125.936)">
<stop offset="0.0001" stop-color="#82B1FF"/>
<stop offset="1" stop-color="#82B1FF" stop-opacity="0"/>
</radialGradient>
<radialGradient id="paint32_radial_178_4084" cx="0" cy="0" r="1" gradientUnits="userSpaceOnUse" gradientTransform="translate(117 117) rotate(147.319) scale(125.936)">
<stop offset="0.0001" stop-color="#82B1FF"/>
<stop offset="1" stop-color="#82B1FF" stop-opacity="0"/>
</radialGradient>
<radialGradient id="paint33_radial_178_4084" cx="0" cy="0" r="1" gradientUnits="userSpaceOnUse" gradientTransform="translate(117 117) rotate(147.319) scale(125.936)">
<stop offset="0.0001" stop-color="#82B1FF"/>
<stop offset="1" stop-color="#82B1FF" stop-opacity="0"/>
</radialGradient>
<radialGradient id="paint34_radial_178_4084" cx="0" cy="0" r="1" gradientUnits="userSpaceOnUse" gradientTransform="translate(117 117) rotate(147.319) scale(125.936)">
<stop offset="0.0001" stop-color="#82B1FF"/>
<stop offset="1" stop-color="#82B1FF" stop-opacity="0"/>
</radialGradient>
<radialGradient id="paint35_radial_178_4084" cx="0" cy="0" r="1" gradientUnits="userSpaceOnUse" gradientTransform="translate(117 117) rotate(147.319) scale(125.936)">
<stop offset="0.0001" stop-color="#82B1FF"/>
<stop offset="1" stop-color="#82B1FF" stop-opacity="0"/>
</radialGradient>
<radialGradient id="paint36_radial_178_4084" cx="0" cy="0" r="1" gradientUnits="userSpaceOnUse" gradientTransform="translate(117 117) rotate(147.319) scale(125.936)">
<stop offset="0.0001" stop-color="#82B1FF"/>
<stop offset="1" stop-color="#82B1FF" stop-opacity="0"/>
</radialGradient>
<radialGradient id="paint37_radial_178_4084" cx="0" cy="0" r="1" gradientUnits="userSpaceOnUse" gradientTransform="translate(117 117) rotate(147.319) scale(125.936)">
<stop offset="0.0001" stop-color="#82B1FF"/>
<stop offset="1" stop-color="#82B1FF" stop-opacity="0"/>
</radialGradient>
<radialGradient id="paint38_radial_178_4084" cx="0" cy="0" r="1" gradientUnits="userSpaceOnUse" gradientTransform="translate(117 117) rotate(147.319) scale(125.936)">
<stop offset="0.0001" stop-color="#82B1FF"/>
<stop offset="1" stop-color="#82B1FF" stop-opacity="0"/>
</radialGradient>
<radialGradient id="paint39_radial_178_4084" cx="0" cy="0" r="1" gradientUnits="userSpaceOnUse" gradientTransform="translate(117 117) rotate(147.319) scale(125.936)">
<stop offset="0.0001" stop-color="#82B1FF"/>
<stop offset="1" stop-color="#82B1FF" stop-opacity="0"/>
</radialGradient>
<radialGradient id="paint40_radial_178_4084" cx="0" cy="0" r="1" gradientUnits="userSpaceOnUse" gradientTransform="translate(117 117) rotate(147.319) scale(125.936)">
<stop offset="0.0001" stop-color="#82B1FF"/>
<stop offset="1" stop-color="#82B1FF" stop-opacity="0"/>
</radialGradient>
<radialGradient id="paint41_radial_178_4084" cx="0" cy="0" r="1" gradientUnits="userSpaceOnUse" gradientTransform="translate(117 117) rotate(147.319) scale(125.936)">
<stop offset="0.0001" stop-color="#82B1FF"/>
<stop offset="1" stop-color="#82B1FF" stop-opacity="0"/>
</radialGradient>
<radialGradient id="paint42_radial_178_4084" cx="0" cy="0" r="1" gradientUnits="userSpaceOnUse" gradientTransform="translate(117 117) rotate(147.319) scale(125.936)">
<stop offset="0.0001" stop-color="#82B1FF"/>
<stop offset="1" stop-color="#82B1FF" stop-opacity="0"/>
</radialGradient>
<radialGradient id="paint43_radial_178_4084" cx="0" cy="0" r="1" gradientUnits="userSpaceOnUse" gradientTransform="translate(117 117) rotate(147.319) scale(125.936)">
<stop offset="0.0001" stop-color="#82B1FF"/>
<stop offset="1" stop-color="#82B1FF" stop-opacity="0"/>
</radialGradient>
<radialGradient id="paint44_radial_178_4084" cx="0" cy="0" r="1" gradientUnits="userSpaceOnUse" gradientTransform="translate(117 117) rotate(147.319) scale(125.936)">
<stop offset="0.0001" stop-color="#82B1FF"/>
<stop offset="1" stop-color="#82B1FF" stop-opacity="0"/>
</radialGradient>
<radialGradient id="paint45_radial_178_4084" cx="0" cy="0" r="1" gradientUnits="userSpaceOnUse" gradientTransform="translate(117 117) rotate(147.319) scale(125.936)">
<stop offset="0.0001" stop-color="#82B1FF"/>
<stop offset="1" stop-color="#82B1FF" stop-opacity="0"/>
</radialGradient>
<radialGradient id="paint46_radial_178_4084" cx="0" cy="0" r="1" gradientUnits="userSpaceOnUse" gradientTransform="translate(117 117) rotate(147.319) scale(125.936)">
<stop offset="0.0001" stop-color="#82B1FF"/>
<stop offset="1" stop-color="#82B1FF" stop-opacity="0"/>
</radialGradient>
<radialGradient id="paint47_radial_178_4084" cx="0" cy="0" r="1" gradientUnits="userSpaceOnUse" gradientTransform="translate(117 117) rotate(147.319) scale(125.936)">
<stop offset="0.0001" stop-color="#82B1FF"/>
<stop offset="1" stop-color="#82B1FF" stop-opacity="0"/>
</radialGradient>
<radialGradient id="paint48_radial_178_4084" cx="0" cy="0" r="1" gradientUnits="userSpaceOnUse" gradientTransform="translate(117 117) rotate(147.319) scale(125.936)">
<stop offset="0.0001" stop-color="#82B1FF"/>
<stop offset="1" stop-color="#82B1FF" stop-opacity="0"/>
</radialGradient>
<radialGradient id="paint49_radial_178_4084" cx="0" cy="0" r="1" gradientUnits="userSpaceOnUse" gradientTransform="translate(117 117) rotate(147.319) scale(125.936)">
<stop offset="0.0001" stop-color="#82B1FF"/>
<stop offset="1" stop-color="#82B1FF" stop-opacity="0"/>
</radialGradient>
<radialGradient id="paint50_radial_178_4084" cx="0" cy="0" r="1" gradientUnits="userSpaceOnUse" gradientTransform="translate(117 117) rotate(147.319) scale(125.936)">
<stop offset="0.0001" stop-color="#82B1FF"/>
<stop offset="1" stop-color="#82B1FF" stop-opacity="0"/>
</radialGradient>
<radialGradient id="paint51_radial_178_4084" cx="0" cy="0" r="1" gradientUnits="userSpaceOnUse" gradientTransform="translate(117 117) rotate(147.319) scale(125.936)">
<stop offset="0.0001" stop-color="#82B1FF"/>
<stop offset="1" stop-color="#82B1FF" stop-opacity="0"/>
</radialGradient>
<radialGradient id="paint52_radial_178_4084" cx="0" cy="0" r="1" gradientUnits="userSpaceOnUse" gradientTransform="translate(117 117) rotate(147.319) scale(125.936)">
<stop offset="0.0001" stop-color="#82B1FF"/>
<stop offset="1" stop-color="#82B1FF" stop-opacity="0"/>
</radialGradient>
<radialGradient id="paint53_radial_178_4084" cx="0" cy="0" r="1" gradientUnits="userSpaceOnUse" gradientTransform="translate(117 117) rotate(147.319) scale(125.936)">
<stop offset="0.0001" stop-color="#82B1FF"/>
<stop offset="1" stop-color="#82B1FF" stop-opacity="0"/>
</radialGradient>
<radialGradient id="paint54_radial_178_4084" cx="0" cy="0" r="1" gradientUnits="userSpaceOnUse" gradientTransform="translate(117 117) rotate(147.319) scale(125.936)">
<stop offset="0.0001" stop-color="#82B1FF"/>
<stop offset="1" stop-color="#82B1FF" stop-opacity="0"/>
</radialGradient>
<radialGradient id="paint55_radial_178_4084" cx="0" cy="0" r="1" gradientUnits="userSpaceOnUse" gradientTransform="translate(117 117) rotate(147.319) scale(125.936)">
<stop offset="0.0001" stop-color="#82B1FF"/>
<stop offset="1" stop-color="#82B1FF" stop-opacity="0"/>
</radialGradient>
<radialGradient id="paint56_radial_178_4084" cx="0" cy="0" r="1" gradientUnits="userSpaceOnUse" gradientTransform="translate(117 117) rotate(147.319) scale(125.936)">
<stop offset="0.0001" stop-color="#82B1FF"/>
<stop offset="1" stop-color="#82B1FF" stop-opacity="0"/>
</radialGradient>
<radialGradient id="paint57_radial_178_4084" cx="0" cy="0" r="1" gradientUnits="userSpaceOnUse" gradientTransform="translate(117 117) rotate(147.319) scale(125.936)">
<stop offset="0.0001" stop-color="#82B1FF"/>
<stop offset="1" stop-color="#82B1FF" stop-opacity="0"/>
</radialGradient>
<radialGradient id="paint58_radial_178_4084" cx="0" cy="0" r="1" gradientUnits="userSpaceOnUse" gradientTransform="translate(117 117) rotate(147.319) scale(125.936)">
<stop offset="0.0001" stop-color="#82B1FF"/>
<stop offset="1" stop-color="#82B1FF" stop-opacity="0"/>
</radialGradient>
<radialGradient id="paint59_radial_178_4084" cx="0" cy="0" r="1" gradientUnits="userSpaceOnUse" gradientTransform="translate(117 117) rotate(147.319) scale(125.936)">
<stop offset="0.0001" stop-color="#82B1FF"/>
<stop offset="1" stop-color="#82B1FF" stop-opacity="0"/>
</radialGradient>
<radialGradient id="paint60_radial_178_4084" cx="0" cy="0" r="1" gradientUnits="userSpaceOnUse" gradientTransform="translate(117 117) rotate(147.319) scale(125.936)">
<stop offset="0.0001" stop-color="#82B1FF"/>
<stop offset="1" stop-color="#82B1FF" stop-opacity="0"/>
</radialGradient>
<radialGradient id="paint61_radial_178_4084" cx="0" cy="0" r="1" gradientUnits="userSpaceOnUse" gradientTransform="translate(117 117) rotate(147.319) scale(125.936)">
<stop offset="0.0001" stop-color="#82B1FF"/>
<stop offset="1" stop-color="#82B1FF" stop-opacity="0"/>
</radialGradient>
<radialGradient id="paint62_radial_178_4084" cx="0" cy="0" r="1" gradientUnits="userSpaceOnUse" gradientTransform="translate(117 117) rotate(147.319) scale(125.936)">
<stop offset="0.0001" stop-color="#82B1FF"/>
<stop offset="1" stop-color="#82B1FF" stop-opacity="0"/>
</radialGradient>
<radialGradient id="paint63_radial_178_4084" cx="0" cy="0" r="1" gradientUnits="userSpaceOnUse" gradientTransform="translate(117 117) rotate(147.319) scale(125.936)">
<stop offset="0.0001" stop-color="#82B1FF"/>
<stop offset="1" stop-color="#82B1FF" stop-opacity="0"/>
</radialGradient>
<radialGradient id="paint64_radial_178_4084" cx="0" cy="0" r="1" gradientUnits="userSpaceOnUse" gradientTransform="translate(117 117) rotate(147.319) scale(125.936)">
<stop offset="0.0001" stop-color="#82B1FF"/>
<stop offset="1" stop-color="#82B1FF" stop-opacity="0"/>
</radialGradient>
<radialGradient id="paint65_radial_178_4084" cx="0" cy="0" r="1" gradientUnits="userSpaceOnUse" gradientTransform="translate(117 117) rotate(147.319) scale(125.936)">
<stop offset="0.0001" stop-color="#82B1FF"/>
<stop offset="1" stop-color="#82B1FF" stop-opacity="0"/>
</radialGradient>
<radialGradient id="paint66_radial_178_4084" cx="0" cy="0" r="1" gradientUnits="userSpaceOnUse" gradientTransform="translate(117 117) rotate(147.319) scale(125.936)">
<stop offset="0.0001" stop-color="#82B1FF"/>
<stop offset="1" stop-color="#82B1FF" stop-opacity="0"/>
</radialGradient>
<radialGradient id="paint67_radial_178_4084" cx="0" cy="0" r="1" gradientUnits="userSpaceOnUse" gradientTransform="translate(117 117) rotate(147.319) scale(125.936)">
<stop offset="0.0001" stop-color="#82B1FF"/>
<stop offset="1" stop-color="#82B1FF" stop-opacity="0"/>
</radialGradient>
<radialGradient id="paint68_radial_178_4084" cx="0" cy="0" r="1" gradientUnits="userSpaceOnUse" gradientTransform="translate(117 117) rotate(147.319) scale(125.936)">
<stop offset="0.0001" stop-color="#82B1FF"/>
<stop offset="1" stop-color="#82B1FF" stop-opacity="0"/>
</radialGradient>
<radialGradient id="paint69_radial_178_4084" cx="0" cy="0" r="1" gradientUnits="userSpaceOnUse" gradientTransform="translate(117 117) rotate(147.319) scale(125.936)">
<stop offset="0.0001" stop-color="#82B1FF"/>
<stop offset="1" stop-color="#82B1FF" stop-opacity="0"/>
</radialGradient>
<radialGradient id="paint70_radial_178_4084" cx="0" cy="0" r="1" gradientUnits="userSpaceOnUse" gradientTransform="translate(117 117) rotate(147.319) scale(125.936)">
<stop offset="0.0001" stop-color="#82B1FF"/>
<stop offset="1" stop-color="#82B1FF" stop-opacity="0"/>
</radialGradient>
<radialGradient id="paint71_radial_178_4084" cx="0" cy="0" r="1" gradientUnits="userSpaceOnUse" gradientTransform="translate(117 117) rotate(147.319) scale(125.936)">
<stop offset="0.0001" stop-color="#82B1FF"/>
<stop offset="1" stop-color="#82B1FF" stop-opacity="0"/>
</radialGradient>
<radialGradient id="paint72_radial_178_4084" cx="0" cy="0" r="1" gradientUnits="userSpaceOnUse" gradientTransform="translate(117 117) rotate(147.319) scale(125.936)">
<stop offset="0.0001" stop-color="#82B1FF"/>
<stop offset="1" stop-color="#82B1FF" stop-opacity="0"/>
</radialGradient>
<radialGradient id="paint73_radial_178_4084" cx="0" cy="0" r="1" gradientUnits="userSpaceOnUse" gradientTransform="translate(117 117) rotate(147.319) scale(125.936)">
<stop offset="0.0001" stop-color="#82B1FF"/>
<stop offset="1" stop-color="#82B1FF" stop-opacity="0"/>
</radialGradient>
<radialGradient id="paint74_radial_178_4084" cx="0" cy="0" r="1" gradientUnits="userSpaceOnUse" gradientTransform="translate(117 117) rotate(147.319) scale(125.936)">
<stop offset="0.0001" stop-color="#82B1FF"/>
<stop offset="1" stop-color="#82B1FF" stop-opacity="0"/>
</radialGradient>
<radialGradient id="paint75_radial_178_4084" cx="0" cy="0" r="1" gradientUnits="userSpaceOnUse" gradientTransform="translate(117 117) rotate(147.319) scale(125.936)">
<stop offset="0.0001" stop-color="#82B1FF"/>
<stop offset="1" stop-color="#82B1FF" stop-opacity="0"/>
</radialGradient>
</defs>
</svg>
