<svg width="160" height="72" viewBox="0 0 160 72" fill="none" xmlns="http://www.w3.org/2000/svg">
<g filter="url(#filter0_d_106_7306)">
<path fill-rule="evenodd" clip-rule="evenodd" d="M105.354 17.5349C104.466 15.9683 102.804 15 101.004 15H89H72.4853C71.1592 15 69.8874 15.5268 68.9497 16.4645L57.4183 27.9959C56.1351 29.2791 54.3947 30 52.58 30C44.5277 30 38 36.5277 38 44.58V48C38 48.5523 38.4477 49 39 49H42.3781C42.2115 49.6472 42.0975 50.3154 42.0411 51H39C37.3431 51 36 49.6569 36 48V44.58C36 35.4231 43.4231 28 52.58 28C53.8643 28 55.096 27.4898 56.0041 26.5817L67.5355 15.0503C68.8483 13.7375 70.6288 13 72.4853 13H89H101.004C103.525 13 105.851 14.3556 107.094 16.5489L112.236 25.6241C113.068 27.0925 114.626 28 116.314 28C120.006 28 123 30.9936 123 34.6864V44C123 46.835 121.315 49.2764 118.891 50.3769C118.798 49.686 118.646 49.0138 118.44 48.3654C119.967 47.5098 121 45.8755 121 44V34.6864C121 32.0982 118.902 30 116.314 30C113.906 30 111.684 28.7052 110.496 26.6101L105.354 17.5349ZM95.3781 49C95.2115 49.6472 95.0975 50.3154 95.0411 51H65.9589C65.9025 50.3154 65.7885 49.6472 65.6219 49H95.3781ZM101 52C101 55.3137 103.686 58 107 58C110.314 58 113 55.3137 113 52C113 48.6863 110.314 46 107 46C103.686 46 101 48.6863 101 52ZM99 52C99 56.4183 102.582 60 107 60C111.418 60 115 56.4183 115 52C115 47.5817 111.418 44 107 44C102.582 44 99 47.5817 99 52ZM48 52C48 55.3137 50.6863 58 54 58C57.3137 58 60 55.3137 60 52C60 48.6863 57.3137 46 54 46C50.6863 46 48 48.6863 48 52ZM46 52C46 56.4183 49.5817 60 54 60C58.4183 60 62 56.4183 62 52C62 47.5817 58.4183 44 54 44C49.5817 44 46 47.5817 46 52ZM76 27C73.7909 27 72 28.7909 72 31C72 33.2091 73.7909 35 76 35L92 35V32L98 36L92 40V37L76 37C72.6863 37 70 34.3137 70 31C70 27.6863 72.6863 25 76 25H88.0001V27L76 27Z" fill="#C1D8FF"/>
</g>
<defs>
<filter id="filter0_d_106_7306" x="34" y="12" width="95" height="55" filterUnits="userSpaceOnUse" color-interpolation-filters="sRGB">
<feFlood flood-opacity="0" result="BackgroundImageFix"/>
<feColorMatrix in="SourceAlpha" type="matrix" values="0 0 0 0 0 0 0 0 0 0 0 0 0 0 0 0 0 0 127 0" result="hardAlpha"/>
<feOffset dx="2" dy="3"/>
<feGaussianBlur stdDeviation="2"/>
<feComposite in2="hardAlpha" operator="out"/>
<feColorMatrix type="matrix" values="0 0 0 0 0 0 0 0 0 0 0 0 0 0 0 0 0 0 0.7 0"/>
<feBlend mode="normal" in2="BackgroundImageFix" result="effect1_dropShadow_106_7306"/>
<feBlend mode="normal" in="SourceGraphic" in2="effect1_dropShadow_106_7306" result="shape"/>
</filter>
</defs>
</svg>
