<svg width="57" height="57" viewBox="0 0 57 57" fill="none" xmlns="http://www.w3.org/2000/svg">
<g filter="url(#filter0_d_38_3444)">
<path fill-rule="evenodd" clip-rule="evenodd" d="M24.1239 11.5512L25.25 11.2614V10.0986V8.625H31.75V10.0986V11.2614L32.8761 11.5512C34.4806 11.9642 35.9963 12.5992 37.3888 13.4221L38.3901 14.0137L39.2125 13.1913L40.2557 12.1482L44.8519 16.7444L43.8087 17.7875L42.9863 18.61L43.578 19.6113C44.4008 21.0037 45.0358 22.5194 45.4488 24.1239L45.7386 25.25H46.9014H48.375V31.75H46.9014H45.7386L45.4488 32.8761C45.0358 34.4806 44.4008 35.9963 43.578 37.3887L42.9863 38.3901L43.8087 39.2125L44.8519 40.2557L40.2557 44.8519L39.2125 43.8087L38.3901 42.9863L37.3888 43.5779C35.9963 44.4008 34.4806 45.0358 32.8761 45.4488L31.75 45.7386V46.9014V48.375H25.25V46.9014V45.7386L24.1239 45.4488C22.5194 45.0358 21.0037 44.4008 19.6113 43.578L18.61 42.9863L17.7875 43.8087L16.7444 44.8519L12.1482 40.2557L13.1913 39.2125L14.0137 38.3901L13.4221 37.3888C12.5992 35.9963 11.9642 34.4806 11.5512 32.8761L11.2614 31.75H10.0986H8.625V25.25H10.0986H11.2614L11.5512 24.1239C11.9642 22.5194 12.5992 21.0037 13.4221 19.6112L14.0137 18.6099L13.1913 17.7875L12.1482 16.7444L16.7444 12.1482L17.7875 13.1913L18.6099 14.0137L19.6113 13.422C21.0037 12.5992 22.5194 11.9642 24.1239 11.5512ZM40.2557 10.0269L39.195 11.0875L38.1519 12.1307C36.6399 11.2372 34.9934 10.5473 33.25 10.0986V8.625V7.125H31.75H25.25H23.75V8.625V10.0986C22.0067 10.5473 20.3602 11.2372 18.8482 12.1306L17.8051 11.0875L16.7444 10.0268L15.6837 11.0875L11.0876 15.6837L10.0269 16.7444L11.0876 17.805L12.1307 18.8481C11.2372 20.3601 10.5473 22.0066 10.0986 23.75H8.625H7.125V25.25V31.75V33.25H8.625H10.0986C10.5473 34.9934 11.2372 36.6399 12.1307 38.1519L11.0875 39.195L10.0269 40.2557L11.0875 41.3163L15.6837 45.9125L16.7444 46.9732L17.8051 45.9125L18.8482 44.8694C20.3602 45.7628 22.0067 46.4527 23.75 46.9014V48.375V49.875H25.25H31.75H33.25V48.375V46.9014C34.9934 46.4527 36.6399 45.7628 38.1519 44.8693L39.195 45.9125L40.2557 46.9732L41.3164 45.9125L45.9126 41.3163L46.9732 40.2557L45.9126 39.195L44.8694 38.1518C45.7628 36.6398 46.4527 34.9933 46.9014 33.25H48.375H49.875V31.75V25.25V23.75H48.375H46.9014C46.4527 22.0067 45.7628 20.3602 44.8694 18.8482L45.9126 17.805L46.9732 16.7444L45.9126 15.6837L41.3164 11.0875L40.2557 10.0269ZM37 28.5C37 33.1944 33.1944 37 28.5 37C23.8056 37 20 33.1944 20 28.5C20 23.8056 23.8056 20 28.5 20C33.1944 20 37 23.8056 37 28.5ZM38 28.5C38 33.7467 33.7467 38 28.5 38C23.2533 38 19 33.7467 19 28.5C19 23.2533 23.2533 19 28.5 19C33.7467 19 38 23.2533 38 28.5Z" fill="#C1D8FF"/>
</g>
<defs>
<filter id="filter0_d_38_3444" x="5.125" y="6.125" width="48.75" height="48.75" filterUnits="userSpaceOnUse" color-interpolation-filters="sRGB">
<feFlood flood-opacity="0" result="BackgroundImageFix"/>
<feColorMatrix in="SourceAlpha" type="matrix" values="0 0 0 0 0 0 0 0 0 0 0 0 0 0 0 0 0 0 127 0" result="hardAlpha"/>
<feOffset dx="1" dy="2"/>
<feGaussianBlur stdDeviation="1.5"/>
<feComposite in2="hardAlpha" operator="out"/>
<feColorMatrix type="matrix" values="0 0 0 0 0 0 0 0 0 0 0 0 0 0 0 0 0 0 0.7 0"/>
<feBlend mode="normal" in2="BackgroundImageFix" result="effect1_dropShadow_38_3444"/>
<feBlend mode="normal" in="SourceGraphic" in2="effect1_dropShadow_38_3444" result="shape"/>
</filter>
</defs>
</svg>
