<svg width="1080" height="1921" viewBox="0 0 1080 1921" fill="none" xmlns="http://www.w3.org/2000/svg">
<path d="M24 636L1056 636V1284H24L24 636Z" fill="url(#paint0_radial_100_3738)" fill-opacity="0.3"/>
<g opacity="0.5">
<path d="M416 636H415L415 1284H416L416 636Z" fill="url(#paint1_radial_100_3738)"/>
<path d="M816 636H815L815 1284H816L816 636Z" fill="url(#paint2_radial_100_3738)"/>
<path d="M966 636H965L965 1284H966L966 636Z" fill="url(#paint3_radial_100_3738)"/>
<path d="M1041 636H1040V1284H1041V636Z" fill="url(#paint4_radial_100_3738)"/>
<path d="M316 636H315L315 1284H316L316 636Z" fill="url(#paint5_radial_100_3738)"/>
<path d="M716 636H715L715 1284H716L716 636Z" fill="url(#paint6_radial_100_3738)"/>
<path d="M866 636H865L865 1284H866L866 636Z" fill="url(#paint7_radial_100_3738)"/>
<path d="M366 636H365L365 1284H366L366 636Z" fill="url(#paint8_radial_100_3738)"/>
<path d="M766 636H765L765 1284H766L766 636Z" fill="url(#paint9_radial_100_3738)"/>
<path d="M916 636H915L915 1284H916L916 636Z" fill="url(#paint10_radial_100_3738)"/>
<path d="M991 636H990L990 1284H991L991 636Z" fill="url(#paint11_radial_100_3738)"/>
<path d="M266 636H265L265 1284H266L266 636Z" fill="url(#paint12_radial_100_3738)"/>
<path d="M666 636H665L665 1284H666L666 636Z" fill="url(#paint13_radial_100_3738)"/>
<path d="M391 636H390L390 1284H391L391 636Z" fill="url(#paint14_radial_100_3738)"/>
<path d="M791 636H790L790 1284H791L791 636Z" fill="url(#paint15_radial_100_3738)"/>
<path d="M941 636H940L940 1284H941L941 636Z" fill="url(#paint16_radial_100_3738)"/>
<path d="M1016 636H1015L1015 1284H1016L1016 636Z" fill="url(#paint17_radial_100_3738)"/>
<path d="M291 636H290L290 1284H291L291 636Z" fill="url(#paint18_radial_100_3738)"/>
<path d="M691 636H690L690 1284H691L691 636Z" fill="url(#paint19_radial_100_3738)"/>
<path d="M841 636H840L840 1284H841L841 636Z" fill="url(#paint20_radial_100_3738)"/>
<path d="M341 636H340L340 1284H341L341 636Z" fill="url(#paint21_radial_100_3738)"/>
<path d="M741 636H740L740 1284H741L741 636Z" fill="url(#paint22_radial_100_3738)"/>
<path d="M891 636H890L890 1284H891L891 636Z" fill="url(#paint23_radial_100_3738)"/>
<path d="M241 636H240L240 1284H241L241 636Z" fill="url(#paint24_radial_100_3738)"/>
<path d="M641 636H640L640 1284H641L641 636Z" fill="url(#paint25_radial_100_3738)"/>
<path d="M216 636H215L215 1284H216L216 636Z" fill="url(#paint26_radial_100_3738)"/>
<path d="M616 636H615L615 1284H616L616 636Z" fill="url(#paint27_radial_100_3738)"/>
<path d="M116 636H115L115 1284H116L116 636Z" fill="url(#paint28_radial_100_3738)"/>
<path d="M516 636H515L515 1284H516L516 636Z" fill="url(#paint29_radial_100_3738)"/>
<path d="M166 636H165L165 1284H166L166 636Z" fill="url(#paint30_radial_100_3738)"/>
<path d="M566 636H565L565 1284H566L566 636Z" fill="url(#paint31_radial_100_3738)"/>
<path d="M66 636H65L65 1284H66L66 636Z" fill="url(#paint32_radial_100_3738)"/>
<path d="M466 636H465L465 1284H466L466 636Z" fill="url(#paint33_radial_100_3738)"/>
<path d="M191 636H190L190 1284H191L191 636Z" fill="url(#paint34_radial_100_3738)"/>
<path d="M591 636H590L590 1284H591L591 636Z" fill="url(#paint35_radial_100_3738)"/>
<path d="M91 636H90L90 1284H91L91 636Z" fill="url(#paint36_radial_100_3738)"/>
<path d="M491 636H490L490 1284H491L491 636Z" fill="url(#paint37_radial_100_3738)"/>
<path d="M141 636H140L140 1284H141L141 636Z" fill="url(#paint38_radial_100_3738)"/>
<path d="M541 636H540L540 1284H541L541 636Z" fill="url(#paint39_radial_100_3738)"/>
<path d="M41 636H40L40 1284H41L41 636Z" fill="url(#paint40_radial_100_3738)"/>
<path d="M441 636H440L440 1284H441L441 636Z" fill="url(#paint41_radial_100_3738)"/>
<path d="M1056 659.036L24 659.036V660.037L1056 660.037V659.036Z" fill="url(#paint42_radial_100_3738)"/>
<path d="M1056 859.345L24 859.345V860.346L1056 860.346V859.345Z" fill="url(#paint43_radial_100_3738)"/>
<path d="M1056 1059.65L24 1059.65V1060.66L1056 1060.66V1059.65Z" fill="url(#paint44_radial_100_3738)"/>
<path d="M1056 759.19L24 759.19V760.192L1056 760.192V759.19Z" fill="url(#paint45_radial_100_3738)"/>
<path d="M1056 959.499L24 959.499V960.501L1056 960.501V959.499Z" fill="url(#paint46_radial_100_3738)"/>
<path d="M1056 1159.81H24V1160.81H1056V1159.81Z" fill="url(#paint47_radial_100_3738)"/>
<path d="M1056 709.113L24 709.113V710.114L1056 710.114V709.113Z" fill="url(#paint48_radial_100_3738)"/>
<path d="M1056 909.422L24 909.422V910.423L1056 910.423V909.422Z" fill="url(#paint49_radial_100_3738)"/>
<path d="M1056 1109.73L24 1109.73V1110.73L1056 1110.73V1109.73Z" fill="url(#paint50_radial_100_3738)"/>
<path d="M1056 809.267L24 809.267V810.269L1056 810.269V809.267Z" fill="url(#paint51_radial_100_3738)"/>
<path d="M1056 1009.58L24 1009.58V1010.58L1056 1010.58V1009.58Z" fill="url(#paint52_radial_100_3738)"/>
<path d="M1056 1209.89H24V1210.89H1056V1209.89Z" fill="url(#paint53_radial_100_3738)"/>
<path d="M1056 684.074L24 684.074V685.076L1056 685.076V684.074Z" fill="url(#paint54_radial_100_3738)"/>
<path d="M1056 884.383L24 884.383V885.385L1056 885.385V884.383Z" fill="url(#paint55_radial_100_3738)"/>
<path d="M1056 1084.69L24 1084.69V1085.69L1056 1085.69V1084.69Z" fill="url(#paint56_radial_100_3738)"/>
<path d="M1056 784.229L24 784.229V785.23L1056 785.23V784.229Z" fill="url(#paint57_radial_100_3738)"/>
<path d="M1056 984.538L24 984.538V985.539L1056 985.539V984.538Z" fill="url(#paint58_radial_100_3738)"/>
<path d="M1056 1184.85H24V1185.85H1056V1184.85Z" fill="url(#paint59_radial_100_3738)"/>
<path d="M1056 734.151L24 734.151V735.153L1056 735.153V734.151Z" fill="url(#paint60_radial_100_3738)"/>
<path d="M1056 934.461L24 934.461V935.462L1056 935.462V934.461Z" fill="url(#paint61_radial_100_3738)"/>
<path d="M1056 1134.77L24 1134.77V1135.77L1056 1135.77V1134.77Z" fill="url(#paint62_radial_100_3738)"/>
<path d="M1056 834.306L24 834.306V835.308L1056 835.308V834.306Z" fill="url(#paint63_radial_100_3738)"/>
<path d="M1056 1034.62L24 1034.62V1035.62L1056 1035.62V1034.62Z" fill="url(#paint64_radial_100_3738)"/>
<path d="M1056 1234.92H24V1235.93H1056V1234.92Z" fill="url(#paint65_radial_100_3738)"/>
<path d="M1056 1259.96H24V1260.96H1056V1259.96Z" fill="url(#paint66_radial_100_3738)"/>
</g>
<defs>
<radialGradient id="paint0_radial_100_3738" cx="0" cy="0" r="1" gradientUnits="userSpaceOnUse" gradientTransform="translate(540 960) rotate(90) scale(324 516)">
<stop stop-color="#2962FF"/>
<stop offset="1" stop-color="#2962FF" stop-opacity="0"/>
</radialGradient>
<radialGradient id="paint1_radial_100_3738" cx="0" cy="0" r="1" gradientUnits="userSpaceOnUse" gradientTransform="translate(540 960) rotate(90) scale(324 516)">
<stop stop-color="#2962FF"/>
<stop offset="1" stop-color="#2962FF" stop-opacity="0"/>
</radialGradient>
<radialGradient id="paint2_radial_100_3738" cx="0" cy="0" r="1" gradientUnits="userSpaceOnUse" gradientTransform="translate(540 960) rotate(90) scale(324 516)">
<stop stop-color="#2962FF"/>
<stop offset="1" stop-color="#2962FF" stop-opacity="0"/>
</radialGradient>
<radialGradient id="paint3_radial_100_3738" cx="0" cy="0" r="1" gradientUnits="userSpaceOnUse" gradientTransform="translate(540 960) rotate(90) scale(324 516)">
<stop stop-color="#2962FF"/>
<stop offset="1" stop-color="#2962FF" stop-opacity="0"/>
</radialGradient>
<radialGradient id="paint4_radial_100_3738" cx="0" cy="0" r="1" gradientUnits="userSpaceOnUse" gradientTransform="translate(540 960) rotate(90) scale(324 516)">
<stop stop-color="#2962FF"/>
<stop offset="1" stop-color="#2962FF" stop-opacity="0"/>
</radialGradient>
<radialGradient id="paint5_radial_100_3738" cx="0" cy="0" r="1" gradientUnits="userSpaceOnUse" gradientTransform="translate(540 960) rotate(90) scale(324 516)">
<stop stop-color="#2962FF"/>
<stop offset="1" stop-color="#2962FF" stop-opacity="0"/>
</radialGradient>
<radialGradient id="paint6_radial_100_3738" cx="0" cy="0" r="1" gradientUnits="userSpaceOnUse" gradientTransform="translate(540 960) rotate(90) scale(324 516)">
<stop stop-color="#2962FF"/>
<stop offset="1" stop-color="#2962FF" stop-opacity="0"/>
</radialGradient>
<radialGradient id="paint7_radial_100_3738" cx="0" cy="0" r="1" gradientUnits="userSpaceOnUse" gradientTransform="translate(540 960) rotate(90) scale(324 516)">
<stop stop-color="#2962FF"/>
<stop offset="1" stop-color="#2962FF" stop-opacity="0"/>
</radialGradient>
<radialGradient id="paint8_radial_100_3738" cx="0" cy="0" r="1" gradientUnits="userSpaceOnUse" gradientTransform="translate(540 960) rotate(90) scale(324 516)">
<stop stop-color="#2962FF"/>
<stop offset="1" stop-color="#2962FF" stop-opacity="0"/>
</radialGradient>
<radialGradient id="paint9_radial_100_3738" cx="0" cy="0" r="1" gradientUnits="userSpaceOnUse" gradientTransform="translate(540 960) rotate(90) scale(324 516)">
<stop stop-color="#2962FF"/>
<stop offset="1" stop-color="#2962FF" stop-opacity="0"/>
</radialGradient>
<radialGradient id="paint10_radial_100_3738" cx="0" cy="0" r="1" gradientUnits="userSpaceOnUse" gradientTransform="translate(540 960) rotate(90) scale(324 516)">
<stop stop-color="#2962FF"/>
<stop offset="1" stop-color="#2962FF" stop-opacity="0"/>
</radialGradient>
<radialGradient id="paint11_radial_100_3738" cx="0" cy="0" r="1" gradientUnits="userSpaceOnUse" gradientTransform="translate(540 960) rotate(90) scale(324 516)">
<stop stop-color="#2962FF"/>
<stop offset="1" stop-color="#2962FF" stop-opacity="0"/>
</radialGradient>
<radialGradient id="paint12_radial_100_3738" cx="0" cy="0" r="1" gradientUnits="userSpaceOnUse" gradientTransform="translate(540 960) rotate(90) scale(324 516)">
<stop stop-color="#2962FF"/>
<stop offset="1" stop-color="#2962FF" stop-opacity="0"/>
</radialGradient>
<radialGradient id="paint13_radial_100_3738" cx="0" cy="0" r="1" gradientUnits="userSpaceOnUse" gradientTransform="translate(540 960) rotate(90) scale(324 516)">
<stop stop-color="#2962FF"/>
<stop offset="1" stop-color="#2962FF" stop-opacity="0"/>
</radialGradient>
<radialGradient id="paint14_radial_100_3738" cx="0" cy="0" r="1" gradientUnits="userSpaceOnUse" gradientTransform="translate(540 960) rotate(90) scale(324 516)">
<stop stop-color="#2962FF"/>
<stop offset="1" stop-color="#2962FF" stop-opacity="0"/>
</radialGradient>
<radialGradient id="paint15_radial_100_3738" cx="0" cy="0" r="1" gradientUnits="userSpaceOnUse" gradientTransform="translate(540 960) rotate(90) scale(324 516)">
<stop stop-color="#2962FF"/>
<stop offset="1" stop-color="#2962FF" stop-opacity="0"/>
</radialGradient>
<radialGradient id="paint16_radial_100_3738" cx="0" cy="0" r="1" gradientUnits="userSpaceOnUse" gradientTransform="translate(540 960) rotate(90) scale(324 516)">
<stop stop-color="#2962FF"/>
<stop offset="1" stop-color="#2962FF" stop-opacity="0"/>
</radialGradient>
<radialGradient id="paint17_radial_100_3738" cx="0" cy="0" r="1" gradientUnits="userSpaceOnUse" gradientTransform="translate(540 960) rotate(90) scale(324 516)">
<stop stop-color="#2962FF"/>
<stop offset="1" stop-color="#2962FF" stop-opacity="0"/>
</radialGradient>
<radialGradient id="paint18_radial_100_3738" cx="0" cy="0" r="1" gradientUnits="userSpaceOnUse" gradientTransform="translate(540 960) rotate(90) scale(324 516)">
<stop stop-color="#2962FF"/>
<stop offset="1" stop-color="#2962FF" stop-opacity="0"/>
</radialGradient>
<radialGradient id="paint19_radial_100_3738" cx="0" cy="0" r="1" gradientUnits="userSpaceOnUse" gradientTransform="translate(540 960) rotate(90) scale(324 516)">
<stop stop-color="#2962FF"/>
<stop offset="1" stop-color="#2962FF" stop-opacity="0"/>
</radialGradient>
<radialGradient id="paint20_radial_100_3738" cx="0" cy="0" r="1" gradientUnits="userSpaceOnUse" gradientTransform="translate(540 960) rotate(90) scale(324 516)">
<stop stop-color="#2962FF"/>
<stop offset="1" stop-color="#2962FF" stop-opacity="0"/>
</radialGradient>
<radialGradient id="paint21_radial_100_3738" cx="0" cy="0" r="1" gradientUnits="userSpaceOnUse" gradientTransform="translate(540 960) rotate(90) scale(324 516)">
<stop stop-color="#2962FF"/>
<stop offset="1" stop-color="#2962FF" stop-opacity="0"/>
</radialGradient>
<radialGradient id="paint22_radial_100_3738" cx="0" cy="0" r="1" gradientUnits="userSpaceOnUse" gradientTransform="translate(540 960) rotate(90) scale(324 516)">
<stop stop-color="#2962FF"/>
<stop offset="1" stop-color="#2962FF" stop-opacity="0"/>
</radialGradient>
<radialGradient id="paint23_radial_100_3738" cx="0" cy="0" r="1" gradientUnits="userSpaceOnUse" gradientTransform="translate(540 960) rotate(90) scale(324 516)">
<stop stop-color="#2962FF"/>
<stop offset="1" stop-color="#2962FF" stop-opacity="0"/>
</radialGradient>
<radialGradient id="paint24_radial_100_3738" cx="0" cy="0" r="1" gradientUnits="userSpaceOnUse" gradientTransform="translate(540 960) rotate(90) scale(324 516)">
<stop stop-color="#2962FF"/>
<stop offset="1" stop-color="#2962FF" stop-opacity="0"/>
</radialGradient>
<radialGradient id="paint25_radial_100_3738" cx="0" cy="0" r="1" gradientUnits="userSpaceOnUse" gradientTransform="translate(540 960) rotate(90) scale(324 516)">
<stop stop-color="#2962FF"/>
<stop offset="1" stop-color="#2962FF" stop-opacity="0"/>
</radialGradient>
<radialGradient id="paint26_radial_100_3738" cx="0" cy="0" r="1" gradientUnits="userSpaceOnUse" gradientTransform="translate(540 960) rotate(90) scale(324 516)">
<stop stop-color="#2962FF"/>
<stop offset="1" stop-color="#2962FF" stop-opacity="0"/>
</radialGradient>
<radialGradient id="paint27_radial_100_3738" cx="0" cy="0" r="1" gradientUnits="userSpaceOnUse" gradientTransform="translate(540 960) rotate(90) scale(324 516)">
<stop stop-color="#2962FF"/>
<stop offset="1" stop-color="#2962FF" stop-opacity="0"/>
</radialGradient>
<radialGradient id="paint28_radial_100_3738" cx="0" cy="0" r="1" gradientUnits="userSpaceOnUse" gradientTransform="translate(540 960) rotate(90) scale(324 516)">
<stop stop-color="#2962FF"/>
<stop offset="1" stop-color="#2962FF" stop-opacity="0"/>
</radialGradient>
<radialGradient id="paint29_radial_100_3738" cx="0" cy="0" r="1" gradientUnits="userSpaceOnUse" gradientTransform="translate(540 960) rotate(90) scale(324 516)">
<stop stop-color="#2962FF"/>
<stop offset="1" stop-color="#2962FF" stop-opacity="0"/>
</radialGradient>
<radialGradient id="paint30_radial_100_3738" cx="0" cy="0" r="1" gradientUnits="userSpaceOnUse" gradientTransform="translate(540 960) rotate(90) scale(324 516)">
<stop stop-color="#2962FF"/>
<stop offset="1" stop-color="#2962FF" stop-opacity="0"/>
</radialGradient>
<radialGradient id="paint31_radial_100_3738" cx="0" cy="0" r="1" gradientUnits="userSpaceOnUse" gradientTransform="translate(540 960) rotate(90) scale(324 516)">
<stop stop-color="#2962FF"/>
<stop offset="1" stop-color="#2962FF" stop-opacity="0"/>
</radialGradient>
<radialGradient id="paint32_radial_100_3738" cx="0" cy="0" r="1" gradientUnits="userSpaceOnUse" gradientTransform="translate(540 960) rotate(90) scale(324 516)">
<stop stop-color="#2962FF"/>
<stop offset="1" stop-color="#2962FF" stop-opacity="0"/>
</radialGradient>
<radialGradient id="paint33_radial_100_3738" cx="0" cy="0" r="1" gradientUnits="userSpaceOnUse" gradientTransform="translate(540 960) rotate(90) scale(324 516)">
<stop stop-color="#2962FF"/>
<stop offset="1" stop-color="#2962FF" stop-opacity="0"/>
</radialGradient>
<radialGradient id="paint34_radial_100_3738" cx="0" cy="0" r="1" gradientUnits="userSpaceOnUse" gradientTransform="translate(540 960) rotate(90) scale(324 516)">
<stop stop-color="#2962FF"/>
<stop offset="1" stop-color="#2962FF" stop-opacity="0"/>
</radialGradient>
<radialGradient id="paint35_radial_100_3738" cx="0" cy="0" r="1" gradientUnits="userSpaceOnUse" gradientTransform="translate(540 960) rotate(90) scale(324 516)">
<stop stop-color="#2962FF"/>
<stop offset="1" stop-color="#2962FF" stop-opacity="0"/>
</radialGradient>
<radialGradient id="paint36_radial_100_3738" cx="0" cy="0" r="1" gradientUnits="userSpaceOnUse" gradientTransform="translate(540 960) rotate(90) scale(324 516)">
<stop stop-color="#2962FF"/>
<stop offset="1" stop-color="#2962FF" stop-opacity="0"/>
</radialGradient>
<radialGradient id="paint37_radial_100_3738" cx="0" cy="0" r="1" gradientUnits="userSpaceOnUse" gradientTransform="translate(540 960) rotate(90) scale(324 516)">
<stop stop-color="#2962FF"/>
<stop offset="1" stop-color="#2962FF" stop-opacity="0"/>
</radialGradient>
<radialGradient id="paint38_radial_100_3738" cx="0" cy="0" r="1" gradientUnits="userSpaceOnUse" gradientTransform="translate(540 960) rotate(90) scale(324 516)">
<stop stop-color="#2962FF"/>
<stop offset="1" stop-color="#2962FF" stop-opacity="0"/>
</radialGradient>
<radialGradient id="paint39_radial_100_3738" cx="0" cy="0" r="1" gradientUnits="userSpaceOnUse" gradientTransform="translate(540 960) rotate(90) scale(324 516)">
<stop stop-color="#2962FF"/>
<stop offset="1" stop-color="#2962FF" stop-opacity="0"/>
</radialGradient>
<radialGradient id="paint40_radial_100_3738" cx="0" cy="0" r="1" gradientUnits="userSpaceOnUse" gradientTransform="translate(540 960) rotate(90) scale(324 516)">
<stop stop-color="#2962FF"/>
<stop offset="1" stop-color="#2962FF" stop-opacity="0"/>
</radialGradient>
<radialGradient id="paint41_radial_100_3738" cx="0" cy="0" r="1" gradientUnits="userSpaceOnUse" gradientTransform="translate(540 960) rotate(90) scale(324 516)">
<stop stop-color="#2962FF"/>
<stop offset="1" stop-color="#2962FF" stop-opacity="0"/>
</radialGradient>
<radialGradient id="paint42_radial_100_3738" cx="0" cy="0" r="1" gradientUnits="userSpaceOnUse" gradientTransform="translate(540 960) rotate(90) scale(324 516)">
<stop stop-color="#2962FF"/>
<stop offset="1" stop-color="#2962FF" stop-opacity="0"/>
</radialGradient>
<radialGradient id="paint43_radial_100_3738" cx="0" cy="0" r="1" gradientUnits="userSpaceOnUse" gradientTransform="translate(540 960) rotate(90) scale(324 516)">
<stop stop-color="#2962FF"/>
<stop offset="1" stop-color="#2962FF" stop-opacity="0"/>
</radialGradient>
<radialGradient id="paint44_radial_100_3738" cx="0" cy="0" r="1" gradientUnits="userSpaceOnUse" gradientTransform="translate(540 960) rotate(90) scale(324 516)">
<stop stop-color="#2962FF"/>
<stop offset="1" stop-color="#2962FF" stop-opacity="0"/>
</radialGradient>
<radialGradient id="paint45_radial_100_3738" cx="0" cy="0" r="1" gradientUnits="userSpaceOnUse" gradientTransform="translate(540 960) rotate(90) scale(324 516)">
<stop stop-color="#2962FF"/>
<stop offset="1" stop-color="#2962FF" stop-opacity="0"/>
</radialGradient>
<radialGradient id="paint46_radial_100_3738" cx="0" cy="0" r="1" gradientUnits="userSpaceOnUse" gradientTransform="translate(540 960) rotate(90) scale(324 516)">
<stop stop-color="#2962FF"/>
<stop offset="1" stop-color="#2962FF" stop-opacity="0"/>
</radialGradient>
<radialGradient id="paint47_radial_100_3738" cx="0" cy="0" r="1" gradientUnits="userSpaceOnUse" gradientTransform="translate(540 960) rotate(90) scale(324 516)">
<stop stop-color="#2962FF"/>
<stop offset="1" stop-color="#2962FF" stop-opacity="0"/>
</radialGradient>
<radialGradient id="paint48_radial_100_3738" cx="0" cy="0" r="1" gradientUnits="userSpaceOnUse" gradientTransform="translate(540 960) rotate(90) scale(324 516)">
<stop stop-color="#2962FF"/>
<stop offset="1" stop-color="#2962FF" stop-opacity="0"/>
</radialGradient>
<radialGradient id="paint49_radial_100_3738" cx="0" cy="0" r="1" gradientUnits="userSpaceOnUse" gradientTransform="translate(540 960) rotate(90) scale(324 516)">
<stop stop-color="#2962FF"/>
<stop offset="1" stop-color="#2962FF" stop-opacity="0"/>
</radialGradient>
<radialGradient id="paint50_radial_100_3738" cx="0" cy="0" r="1" gradientUnits="userSpaceOnUse" gradientTransform="translate(540 960) rotate(90) scale(324 516)">
<stop stop-color="#2962FF"/>
<stop offset="1" stop-color="#2962FF" stop-opacity="0"/>
</radialGradient>
<radialGradient id="paint51_radial_100_3738" cx="0" cy="0" r="1" gradientUnits="userSpaceOnUse" gradientTransform="translate(540 960) rotate(90) scale(324 516)">
<stop stop-color="#2962FF"/>
<stop offset="1" stop-color="#2962FF" stop-opacity="0"/>
</radialGradient>
<radialGradient id="paint52_radial_100_3738" cx="0" cy="0" r="1" gradientUnits="userSpaceOnUse" gradientTransform="translate(540 960) rotate(90) scale(324 516)">
<stop stop-color="#2962FF"/>
<stop offset="1" stop-color="#2962FF" stop-opacity="0"/>
</radialGradient>
<radialGradient id="paint53_radial_100_3738" cx="0" cy="0" r="1" gradientUnits="userSpaceOnUse" gradientTransform="translate(540 960) rotate(90) scale(324 516)">
<stop stop-color="#2962FF"/>
<stop offset="1" stop-color="#2962FF" stop-opacity="0"/>
</radialGradient>
<radialGradient id="paint54_radial_100_3738" cx="0" cy="0" r="1" gradientUnits="userSpaceOnUse" gradientTransform="translate(540 960) rotate(90) scale(324 516)">
<stop stop-color="#2962FF"/>
<stop offset="1" stop-color="#2962FF" stop-opacity="0"/>
</radialGradient>
<radialGradient id="paint55_radial_100_3738" cx="0" cy="0" r="1" gradientUnits="userSpaceOnUse" gradientTransform="translate(540 960) rotate(90) scale(324 516)">
<stop stop-color="#2962FF"/>
<stop offset="1" stop-color="#2962FF" stop-opacity="0"/>
</radialGradient>
<radialGradient id="paint56_radial_100_3738" cx="0" cy="0" r="1" gradientUnits="userSpaceOnUse" gradientTransform="translate(540 960) rotate(90) scale(324 516)">
<stop stop-color="#2962FF"/>
<stop offset="1" stop-color="#2962FF" stop-opacity="0"/>
</radialGradient>
<radialGradient id="paint57_radial_100_3738" cx="0" cy="0" r="1" gradientUnits="userSpaceOnUse" gradientTransform="translate(540 960) rotate(90) scale(324 516)">
<stop stop-color="#2962FF"/>
<stop offset="1" stop-color="#2962FF" stop-opacity="0"/>
</radialGradient>
<radialGradient id="paint58_radial_100_3738" cx="0" cy="0" r="1" gradientUnits="userSpaceOnUse" gradientTransform="translate(540 960) rotate(90) scale(324 516)">
<stop stop-color="#2962FF"/>
<stop offset="1" stop-color="#2962FF" stop-opacity="0"/>
</radialGradient>
<radialGradient id="paint59_radial_100_3738" cx="0" cy="0" r="1" gradientUnits="userSpaceOnUse" gradientTransform="translate(540 960) rotate(90) scale(324 516)">
<stop stop-color="#2962FF"/>
<stop offset="1" stop-color="#2962FF" stop-opacity="0"/>
</radialGradient>
<radialGradient id="paint60_radial_100_3738" cx="0" cy="0" r="1" gradientUnits="userSpaceOnUse" gradientTransform="translate(540 960) rotate(90) scale(324 516)">
<stop stop-color="#2962FF"/>
<stop offset="1" stop-color="#2962FF" stop-opacity="0"/>
</radialGradient>
<radialGradient id="paint61_radial_100_3738" cx="0" cy="0" r="1" gradientUnits="userSpaceOnUse" gradientTransform="translate(540 960) rotate(90) scale(324 516)">
<stop stop-color="#2962FF"/>
<stop offset="1" stop-color="#2962FF" stop-opacity="0"/>
</radialGradient>
<radialGradient id="paint62_radial_100_3738" cx="0" cy="0" r="1" gradientUnits="userSpaceOnUse" gradientTransform="translate(540 960) rotate(90) scale(324 516)">
<stop stop-color="#2962FF"/>
<stop offset="1" stop-color="#2962FF" stop-opacity="0"/>
</radialGradient>
<radialGradient id="paint63_radial_100_3738" cx="0" cy="0" r="1" gradientUnits="userSpaceOnUse" gradientTransform="translate(540 960) rotate(90) scale(324 516)">
<stop stop-color="#2962FF"/>
<stop offset="1" stop-color="#2962FF" stop-opacity="0"/>
</radialGradient>
<radialGradient id="paint64_radial_100_3738" cx="0" cy="0" r="1" gradientUnits="userSpaceOnUse" gradientTransform="translate(540 960) rotate(90) scale(324 516)">
<stop stop-color="#2962FF"/>
<stop offset="1" stop-color="#2962FF" stop-opacity="0"/>
</radialGradient>
<radialGradient id="paint65_radial_100_3738" cx="0" cy="0" r="1" gradientUnits="userSpaceOnUse" gradientTransform="translate(540 960) rotate(90) scale(324 516)">
<stop stop-color="#2962FF"/>
<stop offset="1" stop-color="#2962FF" stop-opacity="0"/>
</radialGradient>
<radialGradient id="paint66_radial_100_3738" cx="0" cy="0" r="1" gradientUnits="userSpaceOnUse" gradientTransform="translate(540 960) rotate(90) scale(324 516)">
<stop stop-color="#2962FF"/>
<stop offset="1" stop-color="#2962FF" stop-opacity="0"/>
</radialGradient>
</defs>
</svg>
