<svg width="306" height="306" viewBox="0 0 306 306" fill="none" xmlns="http://www.w3.org/2000/svg">
<g filter="url(#filter0_d_250_8462)">
<path d="M148.875 51V1H155.125V51H148.875Z" fill="#C1D8FF"/>
<path d="M233.25 151C233.25 172.186 225.141 191.478 211.858 205.942C213.21 207.568 214.485 209.26 215.677 211.013C230.447 195.347 239.5 174.231 239.5 151C239.5 102.675 200.325 63.5 152 63.5C108.709 63.5 72.7609 94.9385 65.7413 136.23C67.8762 135.943 70.0335 135.727 72.2107 135.583C79.4136 98.0825 112.398 69.75 152 69.75C196.873 69.75 233.25 106.127 233.25 151Z" fill="#C1D8FF"/>
<path d="M221.916 222.505C222.54 223.992 223.111 225.506 223.626 227.046L255.856 259.276L260.275 254.857L224.92 219.502L221.916 222.505Z" fill="#C1D8FF"/>
<path d="M21.784 154.125C24.8353 151.858 28.0268 149.77 31.343 147.875H2V154.125H21.784Z" fill="#C1D8FF"/>
<path d="M302 147.875H252V154.125H302V147.875Z" fill="#C1D8FF"/>
<path d="M255.857 42.7244L220.501 78.0798L224.921 82.4992L260.276 47.1439L255.857 42.7244Z" fill="#C1D8FF"/>
<path d="M43.7244 47.1434L79.0798 82.4987L83.4992 78.0793L48.1438 42.724L43.7244 47.1434Z" fill="#C1D8FF"/>
<path fill-rule="evenodd" clip-rule="evenodd" d="M161.374 301L161.375 300.977C161.894 300.992 162.415 301 162.938 301C163.46 301 163.981 300.992 164.5 300.977C192.254 300.151 214.5 277.392 214.5 249.438C214.5 220.96 191.415 197.875 162.938 197.875C157.312 197.875 151.897 198.776 146.829 200.441C136.04 173.307 109.541 154.125 78.5625 154.125C38.0041 154.125 5.125 187.004 5.125 227.562C5.125 265.482 33.8646 296.689 70.75 300.589V301H161.374ZM74.9629 294.75L71.4073 294.374C37.6677 290.806 11.375 262.251 11.375 227.562C11.375 190.456 41.4559 160.375 78.5625 160.375C106.895 160.375 131.146 177.914 141.022 202.75L143.194 208.214L148.78 206.379C153.227 204.918 157.983 204.125 162.938 204.125C187.963 204.125 208.25 224.412 208.25 249.438C208.25 274.463 187.963 294.75 162.938 294.75C162.477 294.75 162.018 294.743 161.561 294.73L155.125 294.538V294.75H74.9629Z" fill="#C1D8FF"/>
</g>
<defs>
<filter id="filter0_d_250_8462" x="0" y="0" width="306" height="306" filterUnits="userSpaceOnUse" color-interpolation-filters="sRGB">
<feFlood flood-opacity="0" result="BackgroundImageFix"/>
<feColorMatrix in="SourceAlpha" type="matrix" values="0 0 0 0 0 0 0 0 0 0 0 0 0 0 0 0 0 0 127 0" result="hardAlpha"/>
<feOffset dx="1" dy="2"/>
<feGaussianBlur stdDeviation="1.5"/>
<feComposite in2="hardAlpha" operator="out"/>
<feColorMatrix type="matrix" values="0 0 0 0 0 0 0 0 0 0 0 0 0 0 0 0 0 0 0.7 0"/>
<feBlend mode="normal" in2="BackgroundImageFix" result="effect1_dropShadow_250_8462"/>
<feBlend mode="normal" in="SourceGraphic" in2="effect1_dropShadow_250_8462" result="shape"/>
</filter>
</defs>
</svg>
