<svg width="160" height="160" viewBox="0 0 160 160" fill="none" xmlns="http://www.w3.org/2000/svg">
<g filter="url(#filter0_d_117_7981)">
<path d="M78.9583 46.6667V30H81.0417V46.6667H78.9583Z" fill="#C1D8FF"/>
<path d="M107.083 80C107.083 87.062 104.38 93.4928 99.9526 98.3141C100.403 98.8561 100.828 99.4201 101.226 100.004C106.149 94.7822 109.167 87.7435 109.167 80C109.167 63.8917 96.1083 50.8333 80 50.8333C65.5697 50.8333 53.587 61.3128 51.2471 75.0766C51.9587 74.981 52.6778 74.9088 53.4036 74.8611C55.8045 62.3608 66.7994 52.9167 80 52.9167C94.9577 52.9167 107.083 65.0423 107.083 80Z" fill="#C1D8FF"/>
<path d="M103.305 103.835C103.513 104.331 103.704 104.835 103.875 105.349L114.619 116.092L116.092 114.619L104.307 102.834L103.305 103.835Z" fill="#C1D8FF"/>
<path d="M36.5947 81.0417C37.6118 80.2862 38.6756 79.59 39.781 78.9583H30V81.0417H36.5947Z" fill="#C1D8FF"/>
<path d="M130 78.9583H113.333V81.0417H130V78.9583Z" fill="#C1D8FF"/>
<path d="M114.619 43.9081L102.834 55.6933L104.307 57.1664L116.092 45.3813L114.619 43.9081Z" fill="#C1D8FF"/>
<path d="M43.9081 45.3811L55.6933 57.1662L57.1664 55.6931L45.3813 43.908L43.9081 45.3811Z" fill="#C1D8FF"/>
<path fill-rule="evenodd" clip-rule="evenodd" d="M83.1248 130L83.125 129.992C83.298 129.997 83.4716 130 83.6458 130C83.8201 130 83.9937 129.997 84.1667 129.992C93.4181 129.717 100.833 122.131 100.833 112.812C100.833 103.32 93.1382 95.625 83.6458 95.625C81.7708 95.625 79.9658 95.9253 78.2765 96.4803C74.68 87.4356 65.8471 81.0417 55.5208 81.0417C42.0014 81.0417 31.0417 92.0014 31.0417 105.521C31.0417 118.161 40.6215 128.563 52.9167 129.863V130H83.1248ZM54.321 127.917L53.1357 127.791C41.8892 126.602 33.125 117.084 33.125 105.521C33.125 93.152 43.152 83.125 55.5208 83.125C64.965 83.125 73.0487 88.9714 76.3406 97.2501L77.0647 99.0714L78.9268 98.4596C80.4089 97.9726 81.9944 97.7083 83.6458 97.7083C91.9876 97.7083 98.75 104.471 98.75 112.812C98.75 121.154 91.9876 127.917 83.6458 127.917C83.4923 127.917 83.3393 127.914 83.187 127.91L81.0417 127.846V127.917H54.321Z" fill="#C1D8FF"/>
</g>
<defs>
<filter id="filter0_d_117_7981" x="28" y="29" width="108" height="108" filterUnits="userSpaceOnUse" color-interpolation-filters="sRGB">
<feFlood flood-opacity="0" result="BackgroundImageFix"/>
<feColorMatrix in="SourceAlpha" type="matrix" values="0 0 0 0 0 0 0 0 0 0 0 0 0 0 0 0 0 0 127 0" result="hardAlpha"/>
<feOffset dx="2" dy="3"/>
<feGaussianBlur stdDeviation="2"/>
<feComposite in2="hardAlpha" operator="out"/>
<feColorMatrix type="matrix" values="0 0 0 0 0 0 0 0 0 0 0 0 0 0 0 0 0 0 0.7 0"/>
<feBlend mode="normal" in2="BackgroundImageFix" result="effect1_dropShadow_117_7981"/>
<feBlend mode="normal" in="SourceGraphic" in2="effect1_dropShadow_117_7981" result="shape"/>
</filter>
</defs>
</svg>
